<svg width="14" height="13" viewBox="0 0 14 13" fill="none" xmlns="http://www.w3.org/2000/svg">
<path d="M10.5003 11.75C10.5003 10.5123 10.0087 9.32534 9.13349 8.45017C8.25832 7.575 7.07134 7.08333 5.83366 7.08333M5.83366 7.08333C4.59598 7.08333 3.409 7.575 2.53383 8.45017C1.65866 9.32534 1.16699 10.5123 1.16699 11.75M5.83366 7.08333C7.44449 7.08333 8.75033 5.7775 8.75033 4.16667C8.75033 2.55584 7.44449 1.25 5.83366 1.25C4.22283 1.25 2.91699 2.55584 2.91699 4.16667C2.91699 5.7775 4.22283 7.08333 5.83366 7.08333ZM12.8337 11.1666C12.8337 9.2008 11.667 7.37497 10.5004 6.49997C10.8838 6.21225 11.1905 5.83444 11.3932 5.39996C11.5959 4.96548 11.6883 4.48774 11.6624 4.00902C11.6364 3.5303 11.4928 3.06535 11.2444 2.65534C10.9959 2.24532 10.6502 1.90287 10.2379 1.6583" stroke="black" stroke-width="2" stroke-linecap="round" stroke-linejoin="round"/>
</svg>
