<svg width="17" height="16" viewBox="0 0 17 16" fill="none" xmlns="http://www.w3.org/2000/svg">
<path d="M0.447266 16L1.57193 11.8913C0.877931 10.6887 0.513265 9.32533 0.513932 7.92733C0.515932 3.55667 4.07259 0 8.44258 0C10.5632 0.000666667 12.5539 0.826667 14.0512 2.32533C15.5479 3.824 16.3719 5.816 16.3712 7.93467C16.3692 12.306 12.8126 15.8627 8.44258 15.8627C7.11592 15.862 5.80859 15.5293 4.65059 14.8973L0.447266 16ZM4.84526 13.462C5.96259 14.1253 7.02925 14.5227 8.43991 14.5233C12.0719 14.5233 15.0306 11.5673 15.0326 7.93333C15.0339 4.292 12.0892 1.34 8.44525 1.33867C4.81059 1.33867 1.85393 4.29467 1.8526 7.928C1.85193 9.41133 2.28659 10.522 3.01659 11.684L2.35059 14.116L4.84526 13.462ZM12.4366 9.81933C12.3872 9.73667 12.2552 9.68733 12.0566 9.588C11.8586 9.48867 10.8846 9.00933 10.7026 8.94333C10.5212 8.87733 10.3892 8.844 10.2566 9.04267C10.1246 9.24067 9.74458 9.68733 9.62924 9.81933C9.51391 9.95133 9.39791 9.968 9.19991 9.86867C9.00191 9.76933 8.36325 9.56067 7.60658 8.88533C7.01792 8.36 6.61992 7.71133 6.50459 7.51267C6.38925 7.31467 6.49259 7.20733 6.59125 7.10867C6.68058 7.02 6.78925 6.87733 6.88858 6.76133C6.98925 6.64667 7.02192 6.564 7.08858 6.43133C7.15458 6.29933 7.12192 6.18333 7.07192 6.084C7.02192 5.98533 6.62592 5.01 6.46125 4.61333C6.29992 4.22733 6.13659 4.27933 6.01525 4.27333L5.63525 4.26667C5.50325 4.26667 5.28859 4.316 5.10725 4.51467C4.92592 4.71333 4.41392 5.192 4.41392 6.16733C4.41392 7.14267 5.12392 8.08467 5.22259 8.21667C5.32192 8.34867 6.61925 10.35 8.60658 11.208C9.07925 11.412 9.44858 11.534 9.73591 11.6253C10.2106 11.776 10.6426 11.7547 10.9839 11.704C11.3646 11.6473 12.1559 11.2247 12.3212 10.762C12.4866 10.2987 12.4866 9.902 12.4366 9.81933Z" fill="black" fill-opacity="0.5"/>
</svg>
