<svg width="294" height="161" viewBox="0 0 294 161" fill="none" xmlns="http://www.w3.org/2000/svg">
<g clip-path="url(#clip0_1306_27696)">
<path d="M-17.5194 20.3185L-12.8726 12.2713L-15.511 10.748L-17.6406 14.4365C-17.666 14.4806 -17.6998 14.5192 -17.7401 14.5502C-17.7805 14.5812 -17.8265 14.6039 -17.8756 14.617C-17.9247 14.6302 -17.9759 14.6335 -18.0263 14.6269C-18.0767 14.6202 -18.1253 14.6037 -18.1693 14.5782L-18.8397 14.1912C-19.0251 14.0841 -19.0885 13.8474 -18.9814 13.6625L-16.8518 9.97387L-18.8636 8.81192C-19.6046 8.38413 -20.5517 8.6379 -20.9794 9.37884L-24.0768 14.7437C-24.5041 15.4845 -24.2509 16.4317 -23.5099 16.8595L-17.5194 20.3185ZM-0.673556 9.90034C-0.0258354 8.77846 -0.410618 7.34431 -1.53203 6.69647L-4.23807 5.13413C-5.35996 4.48641 -6.7947 4.87085 -7.44289 5.99286L-9.03194 8.74448L-2.26235 12.6529L-0.673556 9.90034ZM-9.81315 10.0983L-20.0681 27.8576L-19.5951 33.162C-19.5313 33.8774 -18.7766 34.3131 -18.1249 34.0096L-13.2952 31.7631L-3.04369 14.0062L-9.81315 10.0983ZM2.5963 21.2018L0.58456 20.0403L-1.54505 23.7289C-1.65208 23.9143 -1.88885 23.9778 -2.07376 23.8706L-2.74414 23.4836C-2.92905 23.3764 -2.9925 23.1396 -2.88581 22.9548L-0.756201 19.2663L-3.39586 17.7422L-8.04272 25.7895L-2.05008 29.2489C-1.30914 29.6767 -0.362078 29.4229 0.0657079 28.682L3.16322 23.3176C3.59101 22.5767 3.33724 21.6296 2.5963 21.2018Z" fill="black" fill-opacity="0.1"/>
</g>
<g clip-path="url(#clip1_1306_27696)">
<path d="M29.8757 -4.31297C23.4156 -2.58199 19.5821 4.05782 21.3131 10.5179C23.0441 16.978 29.6839 20.8115 36.144 19.0805C42.6041 17.3496 46.4376 10.7098 44.7066 4.24965C42.9756 -2.21045 36.3358 -6.04395 29.8757 -4.31297ZM40.1454 3.82892L40.233 4.15577C40.3072 4.43263 40.2185 4.72786 40.004 4.91777L39.3754 5.47543C39.2756 5.56401 39.1541 5.62459 39.0233 5.65102C38.8925 5.67746 38.7571 5.66881 38.6307 5.62595L37.6184 5.2835C37.5092 5.24662 37.3931 5.23513 37.2788 5.2499C37.1645 5.26467 37.055 5.30532 36.9588 5.36874L36.8449 5.44374C36.4283 5.71866 36.3876 6.31393 36.7626 6.64364L37.638 7.413C37.8278 7.58001 38.0888 7.641 38.3332 7.57554L38.7204 7.47178C39.1241 7.36361 39.5391 7.60322 39.6473 8.00695L39.7906 8.54179C39.8329 8.69979 39.8229 8.86779 39.7619 9.0196L39.1938 10.4346C39.1508 10.5421 39.1329 10.6582 39.1415 10.7736L39.2273 11.9047C39.2396 12.0677 39.1987 12.2303 39.1109 12.3686C38.7736 12.8977 38.5015 13.4655 38.3003 14.0599L37.9329 15.1466C37.8614 15.3579 37.7388 15.5483 37.5761 15.7009C37.4134 15.8535 37.2155 15.9636 37 16.0213C36.5043 16.1542 35.976 15.9955 35.6355 15.6115C35.2387 15.164 34.9515 14.6301 34.7967 14.0524L34.4189 12.6426C34.3108 12.2389 33.8957 11.9993 33.492 12.1074L32.2714 12.4345C31.588 12.6176 30.8601 12.5215 30.2472 12.1681C29.6347 11.8142 29.1877 11.2316 29.0044 10.5483L28.8267 9.88519C28.6095 9.07443 28.7869 8.20848 29.305 7.54797L30.3443 6.2236C30.7008 5.76959 31.1948 5.44336 31.7522 5.29383L31.7942 5.28258C32.1942 5.17541 32.6138 5.16255 33.0194 5.24598L33.8066 5.40708C34.0035 5.44736 34.2077 5.4078 34.3752 5.2972L36.4073 3.95553C36.6791 3.77602 36.8057 3.44284 36.7214 3.12825C36.6133 2.72453 36.1982 2.48491 35.7945 2.59309L35.3186 2.7206C35.1248 2.77255 34.9183 2.74546 34.7443 2.64499L34.3305 2.40606C34.2444 2.35635 34.1494 2.32408 34.0509 2.31111C33.9523 2.29813 33.8522 2.3047 33.7562 2.33045L29.509 3.46847C29.1053 3.57664 28.6903 3.33703 28.5821 2.9333L28.5265 2.72578C28.4366 2.39044 28.5866 2.03685 28.8901 1.86806L29.526 1.51518C29.6906 1.42358 29.8154 1.27438 29.8757 1.09594L30.1038 0.422664C30.1847 0.183116 30.3802 -0.000206117 30.6245 -0.0656691L31.7664 -0.371627C32.1701 -0.479805 32.4097 -0.894831 32.3015 -1.29856L32.0273 -2.32202C35.9259 -2.71759 39.6776 -0.720631 41.5498 2.66908L40.6806 2.90199C40.2769 3.01017 40.0372 3.4252 40.1454 3.82892Z" fill="black" fill-opacity="0.1"/>
</g>
<g clip-path="url(#clip2_1306_27696)">
<path d="M81.4358 -2.35668L87.8501 -4.07541L84.5138 -16.5268C84.3457 -17.1541 83.7058 -17.5235 83.0786 -17.3554L64.2128 -12.3004C63.5855 -12.1323 63.2161 -11.4924 63.3842 -10.8651L68.4392 8.00061C68.6073 8.6279 69.2472 8.99733 69.8745 8.82925L82.3259 5.49291L80.6071 -0.921437C80.4403 -1.54401 80.8132 -2.18987 81.4358 -2.35668ZM88.2151 -1.3929L84.8314 4.46769C84.6761 4.7368 84.42 4.9318 84.1181 5.01268L83.8351 5.08851L82.2175 -0.948527L88.2545 -2.56615L88.3316 -2.27844C88.4113 -1.98131 88.3704 -1.66201 88.2151 -1.3929Z" fill="black" fill-opacity="0.1"/>
</g>
<g clip-path="url(#clip3_1306_27696)">
<path d="M3.6958 53.7378C3.02575 51.2372 0.455464 49.7532 -2.04519 50.4233C-4.54584 51.0933 -6.0298 53.6636 -5.35975 56.1643C-4.6897 58.6649 -2.11942 60.1489 0.381238 59.4788C2.88189 58.8088 4.36585 56.2385 3.6958 53.7378ZM-0.055206 62.0778C-3.31247 61.1146 -7.97108 61.8584 -10.2867 62.3398C-11.0648 62.5018 -11.5474 63.2569 -11.3498 63.9941L-8.53418 74.5023C-8.35308 75.1782 -7.65543 75.5953 -6.94295 75.4433C-4.85481 74.9996 -0.582756 74.279 2.68523 74.9578C3.18681 75.062 3.62955 74.6183 3.50115 74.1391L0.392417 62.5372C0.332927 62.317 0.169888 62.1444 -0.055206 62.0778ZM11.0504 56.6225C8.80468 57.3628 4.39796 59.0486 2.05917 61.5113C1.89752 61.6815 1.84481 61.9205 1.90382 62.1408L5.01003 73.7333C5.13881 74.2139 5.74561 74.3769 6.12917 74.035C8.61986 71.8147 12.6775 70.3033 14.7073 69.6437C15.4002 69.4186 15.7958 68.7085 15.6147 68.0327L12.7988 57.5235C12.6008 56.7864 11.8052 56.3738 11.0504 56.6225Z" fill="black" fill-opacity="0.1"/>
</g>
<g clip-path="url(#clip4_1306_27696)">
<path d="M38.427 41.0166C37.1735 41.3525 36.3641 42.4906 36.3776 43.7316C36.344 43.7406 36.3166 43.739 36.2831 43.7479C34.8032 44.1445 33.9224 45.6701 34.3189 47.15C34.3728 47.3512 34.4508 47.5415 34.5475 47.7178C33.4581 48.5489 32.9199 49.9783 33.2951 51.3785C33.4367 51.9068 33.7022 52.3613 34.0351 52.7484C33.184 53.5966 32.7882 54.8529 33.1218 56.0981C33.4959 57.4941 34.6724 58.464 36.023 58.6413C36.037 58.8443 36.0688 59.0469 36.1227 59.2482C36.5698 60.9167 38.2815 61.905 39.9501 61.4579C40.1219 61.4118 40.284 61.3459 40.4397 61.2728C41.1623 62.3597 42.51 62.9288 43.8432 62.5715C45.5117 62.1244 46.5 60.4128 46.0529 58.7442L41.8291 42.9808C41.4326 41.5009 39.9069 40.6201 38.427 41.0166ZM57.27 49.6276C56.9363 48.3824 55.9654 47.4923 54.8042 47.1834C54.9031 46.6806 54.9017 46.1552 54.7601 45.627C54.3849 44.2267 53.2042 43.258 51.8452 43.0829C51.8366 42.883 51.8132 42.6781 51.7592 42.4769C51.3627 40.997 49.8371 40.1162 48.3572 40.5127C48.3236 40.5217 48.2965 40.5379 48.2672 40.5458C47.6584 39.4643 46.3884 38.8834 45.1348 39.2193C43.6549 39.6158 42.773 41.1373 43.1707 42.6214L47.3944 58.3847C47.8415 60.0533 49.5532 61.0415 51.2218 60.5944C52.5549 60.2372 53.4376 59.0706 53.5199 57.7679C53.6913 57.7535 53.8646 57.7295 54.0365 57.6834C55.705 57.2363 56.6933 55.5247 56.2462 53.8561C56.1923 53.6549 56.1185 53.4634 56.0291 53.2807C57.1101 52.4518 57.6441 51.0237 57.27 49.6276Z" fill="black" fill-opacity="0.1"/>
</g>
<g clip-path="url(#clip5_1306_27696)">
<path d="M100.002 41.2778L95.7562 25.4306C95.5882 24.8033 94.9483 24.4339 94.321 24.602L78.8511 28.7471C76.3514 29.4169 74.8667 31.9884 75.5365 34.4881L79.5806 49.5807C80.2504 52.0804 82.8219 53.5651 85.3216 52.8953L100.791 48.7501C101.419 48.582 101.788 47.9421 101.62 47.3149L101.418 46.5602C101.323 46.2065 101.072 45.93 100.762 45.7907C100.369 45.1175 99.8143 43.047 99.8178 42.2676C100.018 41.9965 100.097 41.6316 100.002 41.2778ZM82.0538 34.6627C82.0121 34.5071 82.1053 34.3456 82.261 34.3039L92.2598 31.6247C92.4154 31.583 92.5769 31.6763 92.6186 31.8319L92.8714 32.7752C92.9131 32.9308 92.8198 33.0923 92.6642 33.134L82.6654 35.8132C82.5097 35.8549 82.3483 35.7617 82.3066 35.606L82.0538 34.6627ZM82.8626 37.6812C82.8209 37.5256 82.9141 37.3641 83.0698 37.3224L93.0686 34.6433C93.2243 34.6016 93.3857 34.6948 93.4274 34.8504L93.6802 35.7937C93.7219 35.9493 93.6287 36.1108 93.473 36.1525L83.4742 38.8317C83.3185 38.8734 83.1571 38.7802 83.1154 38.6245L82.8626 37.6812ZM97.9735 46.27L84.5128 49.8767C83.678 50.1004 82.8228 49.6067 82.5991 48.7719C82.3767 47.9418 82.8739 47.0806 83.704 46.8582L97.1647 43.2514C97.2911 44.082 97.6678 45.4875 97.9735 46.27Z" fill="black" fill-opacity="0.1"/>
</g>
<g clip-path="url(#clip6_1306_27696)">
<path d="M131.172 19.4412L138.827 23.8613L129.229 40.4857L124.005 42.5224C123.306 42.7952 122.534 42.349 122.421 41.6069L121.576 36.0593L131.172 19.4412ZM140.703 15.9238L137.108 13.8484C135.987 13.201 134.553 13.5853 133.906 14.7066L131.953 18.0884L139.609 22.5085L141.561 19.1267C142.209 18.0049 141.824 16.5711 140.703 15.9238Z" fill="black" fill-opacity="0.1"/>
</g>
<g clip-path="url(#clip7_1306_27696)">
<path d="M177.562 7.15037C176.892 4.64972 174.322 3.16576 171.821 3.83581C169.321 4.50586 167.837 7.07614 168.507 9.5768C169.177 12.0775 171.747 13.5614 174.248 12.8914C176.749 12.2213 178.232 9.65102 177.562 7.15037ZM173.811 15.4903C170.554 14.5271 165.896 15.2709 163.58 15.7524C162.802 15.9143 162.319 16.6695 162.517 17.4066L165.332 27.9149C165.514 28.5907 166.211 29.0079 166.924 28.8559C169.012 28.4121 173.284 27.6916 176.552 28.3703C177.053 28.4745 177.496 28.0309 177.368 27.5517L174.259 15.9497C174.2 15.7296 174.037 15.5569 173.811 15.4903ZM184.917 10.0351C182.671 10.7753 178.265 12.4611 175.926 14.9238C175.764 15.094 175.711 15.3331 175.77 15.5533L178.877 27.1458C179.005 27.6265 179.612 27.7894 179.996 27.4475C182.486 25.2272 186.544 23.7159 188.574 23.0562C189.267 22.8311 189.662 22.1211 189.481 21.4452L186.665 10.936C186.467 10.199 185.672 9.78633 184.917 10.0351Z" fill="black" fill-opacity="0.1"/>
</g>
<g clip-path="url(#clip8_1306_27696)">
<path d="M230.402 6.33727L226.156 -9.50995C225.988 -10.1372 225.348 -10.5067 224.721 -10.3386L209.251 -6.19344C206.751 -5.52364 205.267 -2.95216 205.937 -0.452447L209.981 14.6401C210.65 17.1399 213.222 18.6245 215.722 17.9547L231.191 13.8096C231.819 13.6415 232.188 13.0016 232.02 12.3743L231.818 11.6197C231.723 11.2659 231.472 10.9895 231.162 10.8502C230.769 10.1769 230.214 8.10641 230.218 7.32701C230.418 7.05596 230.497 6.69101 230.402 6.33727ZM212.454 -0.277821C212.412 -0.433464 212.505 -0.594929 212.661 -0.636633L222.66 -3.31581C222.815 -3.35752 222.977 -3.2643 223.019 -3.10865L223.271 -2.16537C223.313 -2.00973 223.22 -1.84826 223.064 -1.80656L213.065 0.872626C212.91 0.91433 212.748 0.821108 212.707 0.665466L212.454 -0.277821ZM213.263 2.7407C213.221 2.58505 213.314 2.42359 213.47 2.38188L223.469 -0.297297C223.624 -0.339001 223.786 -0.245779 223.827 -0.0901363L224.08 0.853151C224.122 1.00879 224.029 1.17026 223.873 1.21196L213.874 3.89114C213.719 3.93285 213.557 3.83963 213.515 3.68398L213.263 2.7407ZM228.373 11.3294L214.913 14.9362C214.078 15.1599 213.223 14.6661 212.999 13.8313C212.777 13.0012 213.274 12.1401 214.104 11.9177L227.565 8.31089C227.691 9.14141 228.068 10.5469 228.373 11.3294Z" fill="black" fill-opacity="0.1"/>
</g>
<g clip-path="url(#clip9_1306_27696)">
<path d="M261.572 -15.4993L269.227 -11.0792L259.629 5.54514L254.405 7.58187C253.706 7.85468 252.934 7.40847 252.821 6.66632L251.976 1.11871L261.572 -15.4993ZM271.103 -19.0168L267.508 -21.0922C266.387 -21.7396 264.953 -21.3553 264.306 -20.234L262.353 -16.8522L270.009 -12.4321L271.961 -15.8139C272.609 -16.9356 272.224 -18.3694 271.103 -19.0168Z" fill="black" fill-opacity="0.1"/>
</g>
<g clip-path="url(#clip10_1306_27696)">
<path d="M5.77429 107.252L10.4211 99.2046L7.78268 97.6812L5.65307 101.37C5.6277 101.414 5.59388 101.453 5.55356 101.483C5.51324 101.514 5.46721 101.537 5.4181 101.55C5.36899 101.563 5.31777 101.567 5.26736 101.56C5.21696 101.553 5.16837 101.537 5.12436 101.512L4.45398 101.124C4.26859 101.017 4.20515 100.781 4.31231 100.596L6.44192 96.9072L4.43005 95.7452C3.68911 95.3174 2.74205 95.5712 2.31426 96.3121L-0.783129 101.677C-1.21044 102.418 -0.957151 103.365 -0.216204 103.793L5.77429 107.252ZM22.6201 96.8336C23.2679 95.7117 22.8831 94.2776 21.7617 93.6298L19.0556 92.0674C17.9337 91.4197 16.499 91.8041 15.8508 92.9262L14.2618 95.6778L21.0314 99.5862L22.6201 96.8336ZM13.4806 97.0316L3.22562 114.791L3.6986 120.095C3.7624 120.811 4.5171 121.246 5.16876 120.943L9.99847 118.696L20.25 100.94L13.4806 97.0316ZM25.89 108.135L23.8783 106.974L21.7487 110.662C21.6416 110.848 21.4049 110.911 21.2199 110.804L20.5496 110.417C20.3646 110.31 20.3012 110.073 20.4079 109.888L22.5375 106.2L19.8978 104.676L15.251 112.723L21.2436 116.182C21.9846 116.61 22.9316 116.356 23.3594 115.615L26.4569 110.251C26.8847 109.51 26.6309 108.563 25.89 108.135Z" fill="black" fill-opacity="0.1"/>
</g>
<g clip-path="url(#clip11_1306_27696)">
<path d="M53.1694 82.6203C46.7093 84.3513 42.8758 90.9911 44.6068 97.4512C46.3378 103.911 52.9776 107.745 59.4377 106.014C65.8978 104.283 69.7313 97.643 68.0003 91.1829C66.2693 84.7228 59.6295 80.8893 53.1694 82.6203ZM63.4391 90.7622L63.5267 91.0891C63.6009 91.3659 63.5122 91.6611 63.2977 91.8511L62.6691 92.4087C62.5693 92.4973 62.4478 92.5579 62.317 92.5843C62.1862 92.6107 62.0508 92.6021 61.9244 92.5592L60.9121 92.2168C60.8029 92.1799 60.6868 92.1684 60.5725 92.1832C60.4582 92.198 60.3487 92.2386 60.2525 92.302L60.1386 92.377C59.722 92.652 59.6813 93.2472 60.0563 93.5769L60.9317 94.3463C61.1215 94.5133 61.3825 94.5743 61.6269 94.5088L62.0141 94.4051C62.4178 94.2969 62.8328 94.5365 62.941 94.9402L63.0843 95.4751C63.1266 95.6331 63.1166 95.8011 63.0556 95.9529L62.4875 97.3679C62.4445 97.4754 62.4266 97.5915 62.4352 97.7069L62.521 98.838C62.5333 99.001 62.4924 99.1636 62.4046 99.3019C62.0673 99.831 61.7952 100.399 61.594 100.993L61.2266 102.08C61.1551 102.291 61.0325 102.482 60.8698 102.634C60.7071 102.787 60.5092 102.897 60.2937 102.955C59.798 103.087 59.2697 102.929 58.9292 102.545C58.5324 102.097 58.2452 101.563 58.0904 100.986L57.7126 99.5759C57.6045 99.1722 57.1894 98.9326 56.7857 99.0407L55.5651 99.3678C54.8817 99.5509 54.1538 99.4548 53.5409 99.1014C52.9284 98.7475 52.4814 98.1649 52.2981 97.4816L52.1204 96.8185C51.9032 96.0077 52.0806 95.1418 52.5987 94.4813L53.638 93.1569C53.9945 92.7029 54.4885 92.3767 55.0459 92.2271L55.0879 92.2159C55.4879 92.1087 55.9075 92.0958 56.3131 92.1793L57.1003 92.3404C57.2972 92.3806 57.5014 92.3411 57.6689 92.2305L59.701 90.8888C59.9728 90.7093 60.0994 90.3761 60.0151 90.0615C59.907 89.6578 59.4919 89.4182 59.0882 89.5264L58.6123 89.6539C58.4185 89.7058 58.212 89.6787 58.038 89.5783L57.6242 89.3394C57.5381 89.2896 57.4431 89.2574 57.3446 89.2444C57.246 89.2314 57.1459 89.238 57.0499 89.2637L52.8027 90.4018C52.399 90.5099 51.984 90.2703 51.8758 89.8666L51.8202 89.6591C51.7303 89.3237 51.8803 88.9701 52.1838 88.8013L52.8197 88.4485C52.9843 88.3569 53.1091 88.2077 53.1694 88.0292L53.3975 87.356C53.4784 87.1164 53.6739 86.9331 53.9182 86.8676L55.0601 86.5617C55.4638 86.4535 55.7034 86.0385 55.5952 85.6347L55.321 84.6113C59.2196 84.2157 62.9713 86.2127 64.8435 89.6024L63.9743 89.8353C63.5706 89.9435 63.3309 90.3585 63.4391 90.7622Z" fill="black" fill-opacity="0.1"/>
</g>
<g clip-path="url(#clip12_1306_27696)">
<path d="M104.729 84.5766L111.144 82.8579L107.808 70.4065C107.639 69.7792 107 69.4098 106.372 69.5779L87.5065 74.6329C86.8792 74.801 86.5098 75.4409 86.6779 76.0682L91.7329 94.9339C91.901 95.5612 92.5409 95.9306 93.1682 95.7625L105.62 92.4262L103.901 86.0119C103.734 85.3893 104.107 84.7434 104.729 84.5766ZM111.509 85.5404L108.125 91.401C107.97 91.6701 107.714 91.8651 107.412 91.946L107.129 92.0218L105.511 85.9848L111.548 84.3671L111.625 84.6548C111.705 84.952 111.664 85.2713 111.509 85.5404Z" fill="black" fill-opacity="0.1"/>
</g>
<g clip-path="url(#clip13_1306_27696)">
<path d="M137.007 61.1895C135.754 61.5254 134.944 62.6634 134.958 63.9045C134.924 63.9134 134.897 63.9118 134.863 63.9208C133.383 64.3173 132.503 65.8429 132.899 67.3229C132.953 67.5241 133.031 67.7144 133.128 67.8907C132.038 68.7218 131.5 70.1511 131.875 71.5514C132.017 72.0796 132.282 72.5342 132.615 72.9213C131.764 73.7694 131.368 75.0258 131.702 76.2709C132.076 77.667 133.253 78.6368 134.603 78.8142C134.617 79.0171 134.649 79.2198 134.703 79.421C135.15 81.0896 136.862 82.0778 138.53 81.6307C138.702 81.5847 138.864 81.5188 139.02 81.4456C139.742 82.5326 141.09 83.1016 142.423 82.7444C144.092 82.2973 145.08 80.5856 144.633 78.9171L140.409 63.1537C140.013 61.6738 138.487 60.793 137.007 61.1895ZM155.85 69.8004C155.517 68.5553 154.546 67.6652 153.384 67.3562C153.483 66.8534 153.482 66.3281 153.34 65.7998C152.965 64.3996 151.784 63.4308 150.425 63.2558C150.417 63.0559 150.393 62.851 150.339 62.6497C149.943 61.1698 148.417 60.289 146.937 60.6856C146.904 60.6945 146.877 60.7108 146.847 60.7186C146.239 59.6371 144.969 59.0563 143.715 59.3921C142.235 59.7887 141.353 61.3101 141.751 62.7942L145.975 78.5576C146.422 80.2262 148.133 81.2144 149.802 80.7673C151.135 80.4101 152.018 79.2434 152.1 77.9408C152.271 77.9263 152.445 77.9023 152.617 77.8563C154.285 77.4092 155.273 75.6975 154.826 74.0289C154.772 73.8277 154.699 73.6363 154.609 73.4535C155.69 72.6247 156.224 71.1965 155.85 69.8004Z" fill="black" fill-opacity="0.1"/>
</g>
<g clip-path="url(#clip14_1306_27696)">
<path d="M179.641 60.6643L184.288 52.6171L181.649 51.0938L179.52 54.7824C179.494 54.8264 179.461 54.865 179.42 54.896C179.38 54.927 179.334 54.9497 179.285 54.9629C179.236 54.976 179.184 54.9794 179.134 54.9727C179.084 54.966 179.035 54.9495 178.991 54.924L178.321 54.537C178.135 54.43 178.072 54.1932 178.179 54.0083L180.309 50.3197L178.297 49.1577C177.556 48.73 176.609 48.9837 176.181 49.7247L173.084 55.0895C172.656 55.8303 172.909 56.7775 173.65 57.2053L179.641 60.6643ZM196.487 50.2462C197.135 49.1243 196.75 47.6901 195.628 47.0423L192.922 45.48C191.8 44.8322 190.366 45.2167 189.717 46.3387L188.128 49.0903L194.898 52.9987L196.487 50.2462ZM187.347 50.4441L177.092 68.2034L177.565 73.5078C177.629 74.2232 178.384 74.6589 179.035 74.3554L183.865 72.1089L194.117 54.352L187.347 50.4441ZM199.757 61.5477L197.745 60.3862L195.615 64.0748C195.508 64.2601 195.271 64.3236 195.087 64.2164L194.416 63.8294C194.231 63.7222 194.168 63.4855 194.275 63.3007L196.404 59.6121L193.764 58.0881L189.118 66.1353L195.11 69.5947C195.851 70.0225 196.798 69.7688 197.226 69.0278L200.324 63.6634C200.751 62.9225 200.498 61.9754 199.757 61.5477Z" fill="black" fill-opacity="0.1"/>
</g>
<g clip-path="url(#clip15_1306_27696)">
<path d="M227.036 36.0329C220.576 37.7638 216.742 44.4036 218.473 50.8638C220.204 57.3239 226.844 61.1573 233.304 59.4264C239.764 57.6954 243.598 51.0556 241.867 44.5955C240.136 38.1354 233.496 34.3019 227.036 36.0329ZM237.306 44.1747L237.393 44.5016C237.468 44.7785 237.379 45.0737 237.164 45.2636L236.536 45.8213C236.436 45.9098 236.314 45.9704 236.184 45.9968C236.053 46.0233 235.917 46.0146 235.791 45.9718L234.779 45.6293C234.67 45.5924 234.553 45.581 234.439 45.5957C234.325 45.6105 234.215 45.6511 234.119 45.7146L234.005 45.7896C233.589 46.0645 233.548 46.6598 233.923 46.9895L234.798 47.7588C234.988 47.9258 235.249 47.9868 235.494 47.9214L235.881 47.8176C236.284 47.7094 236.699 47.949 236.808 48.3528L236.951 48.8876C236.993 49.0456 236.983 49.2136 236.922 49.3654L236.354 50.7804C236.311 50.888 236.293 51.004 236.302 51.1194L236.388 52.2506C236.4 52.4136 236.359 52.5762 236.271 52.7144C235.934 53.2435 235.662 53.8114 235.461 54.4057L235.093 55.4924C235.022 55.7037 234.899 55.8941 234.736 56.0467C234.574 56.1993 234.376 56.3094 234.16 56.3672C233.665 56.5 233.136 56.3413 232.796 55.9573C232.399 55.5098 232.112 54.976 231.957 54.3982L231.579 52.9884C231.471 52.5847 231.056 52.3451 230.652 52.4533L229.432 52.7803C228.748 52.9635 228.02 52.8673 227.408 52.5139C226.795 52.16 226.348 51.5774 226.165 50.8941L225.987 50.231C225.77 49.4203 225.947 48.5543 226.465 47.8938L227.505 46.5694C227.861 46.1154 228.355 45.7892 228.913 45.6397L228.955 45.6284C229.355 45.5212 229.774 45.5084 230.18 45.5918L230.967 45.7529C231.164 45.7932 231.368 45.7536 231.536 45.643L233.568 44.3014C233.839 44.1218 233.966 43.7887 233.882 43.4741C233.774 43.0704 233.359 42.8307 232.955 42.9389L232.479 43.0664C232.285 43.1184 232.079 43.0913 231.905 42.9908L231.491 42.7519C231.405 42.7022 231.31 42.6699 231.211 42.6569C231.113 42.644 231.013 42.6505 230.917 42.6763L226.669 43.8143C226.266 43.9225 225.851 43.6829 225.742 43.2791L225.687 43.0716C225.597 42.7363 225.747 42.3827 226.05 42.2139L226.686 41.861C226.851 41.7694 226.976 41.6202 227.036 41.4418L227.264 40.7685C227.345 40.5289 227.541 40.3456 227.785 40.2802L228.927 39.9742C229.33 39.866 229.57 39.451 229.462 39.0473L229.188 38.0238C233.086 37.6282 236.838 39.6252 238.71 43.0149L237.841 43.2478C237.437 43.356 237.198 43.771 237.306 44.1747Z" fill="black" fill-opacity="0.1"/>
</g>
<g clip-path="url(#clip16_1306_27696)">
<path d="M278.596 37.9892L285.01 36.2705L281.674 23.8191C281.506 23.1918 280.866 22.8224 280.239 22.9905L261.373 28.0455C260.746 28.2136 260.376 28.8535 260.545 29.4808L265.6 48.3465C265.768 48.9738 266.408 49.3432 267.035 49.1751L279.486 45.8388L277.767 39.4244C277.601 38.8019 277.974 38.156 278.596 37.9892ZM285.375 38.953L281.992 44.8136C281.836 45.0827 281.58 45.2777 281.278 45.3586L280.995 45.4344L279.378 39.3974L285.415 37.7797L285.492 38.0674C285.572 38.3646 285.531 38.6839 285.375 38.953Z" fill="black" fill-opacity="0.1"/>
</g>
<g clip-path="url(#clip17_1306_27696)">
<path d="M26.9895 140.671C26.3194 138.17 23.7491 136.687 21.2485 137.357C18.7478 138.027 17.2639 140.597 17.9339 143.098C18.604 145.598 21.1743 147.082 23.6749 146.412C26.1756 145.742 27.6595 143.172 26.9895 140.671ZM23.2385 149.011C19.9812 148.048 15.3226 148.792 13.007 149.273C12.2289 149.435 11.7463 150.19 11.9438 150.927L14.7595 161.436C14.9406 162.111 15.6383 162.529 16.3507 162.377C18.4389 161.933 22.7109 161.212 25.9789 161.891C26.4805 161.995 26.9232 161.552 26.7948 161.072L23.6861 149.47C23.6266 149.25 23.4636 149.078 23.2385 149.011ZM34.3441 143.556C32.0984 144.296 27.6916 145.982 25.3529 148.445C25.1912 148.615 25.1385 148.854 25.1975 149.074L28.3037 160.667C28.4325 161.147 29.0393 161.31 29.4229 160.968C31.9135 158.748 35.9712 157.237 38.001 156.577C38.6939 156.352 39.0895 155.642 38.9084 154.966L36.0925 144.457C35.8945 143.72 35.0989 143.307 34.3441 143.556Z" fill="black" fill-opacity="0.1"/>
</g>
<g clip-path="url(#clip18_1306_27696)">
<path d="M61.7207 127.95C60.4672 128.286 59.6578 129.424 59.6713 130.665C59.6377 130.674 59.6103 130.672 59.5768 130.681C58.0969 131.078 57.2161 132.603 57.6126 134.083C57.6665 134.285 57.7445 134.475 57.8412 134.651C56.7518 135.482 56.2136 136.912 56.5888 138.312C56.7304 138.84 56.996 139.295 57.3288 139.682C56.4777 140.53 56.0819 141.786 56.4155 143.031C56.7896 144.427 57.9661 145.397 59.3167 145.575C59.3307 145.778 59.3625 145.98 59.4164 146.181C59.8635 147.85 61.5752 148.838 63.2438 148.391C63.4156 148.345 63.5777 148.279 63.7334 148.206C64.456 149.293 65.8037 149.862 67.1369 149.505C68.8054 149.058 69.7937 147.346 69.3466 145.677L65.1228 129.914C64.7263 128.434 63.2006 127.553 61.7207 127.95ZM80.5637 136.561C80.23 135.316 79.2591 134.426 78.0979 134.117C78.1968 133.614 78.1954 133.089 78.0538 132.56C77.6786 131.16 76.4979 130.191 75.1389 130.016C75.1303 129.816 75.1069 129.611 75.0529 129.41C74.6564 127.93 73.1308 127.049 71.6509 127.446C71.6173 127.455 71.5902 127.471 71.5609 127.479C70.9521 126.398 69.6821 125.817 68.4285 126.153C66.9486 126.549 66.0667 128.071 66.4644 129.555L70.6881 145.318C71.1352 146.987 72.8469 147.975 74.5155 147.528C75.8486 147.171 76.7313 146.004 76.8136 144.701C76.985 144.687 77.1583 144.663 77.3302 144.617C78.9987 144.17 79.987 142.458 79.5399 140.789C79.486 140.588 79.4122 140.397 79.3228 140.214C80.4038 139.385 80.9378 137.957 80.5637 136.561Z" fill="black" fill-opacity="0.1"/>
</g>
<g clip-path="url(#clip19_1306_27696)">
<path d="M123.296 128.211L119.05 112.364C118.882 111.737 118.242 111.367 117.615 111.535L102.145 115.68C99.6451 116.35 98.1604 118.922 98.8302 121.421L102.874 136.514C103.544 139.014 106.116 140.498 108.615 139.829L124.085 135.683C124.712 135.515 125.082 134.875 124.914 134.248L124.712 133.494C124.617 133.14 124.366 132.863 124.056 132.724C123.663 132.051 123.108 129.98 123.111 129.201C123.312 128.93 123.391 128.565 123.296 128.211ZM105.348 121.596C105.306 121.44 105.399 121.279 105.555 121.237L115.554 118.558C115.709 118.516 115.871 118.61 115.912 118.765L116.165 119.708C116.207 119.864 116.114 120.026 115.958 120.067L105.959 122.746C105.803 122.788 105.642 122.695 105.6 122.539L105.348 121.596ZM106.156 124.615C106.115 124.459 106.208 124.297 106.363 124.256L116.362 121.577C116.518 121.535 116.679 121.628 116.721 121.784L116.974 122.727C117.016 122.883 116.922 123.044 116.767 123.086L106.768 125.765C106.612 125.807 106.451 125.713 106.409 125.558L106.156 124.615ZM121.267 133.203L107.806 136.81C106.972 137.034 106.116 136.54 105.893 135.705C105.67 134.875 106.168 134.014 106.998 133.792L120.458 130.185C120.585 131.015 120.961 132.421 121.267 133.203Z" fill="black" fill-opacity="0.1"/>
</g>
<g clip-path="url(#clip20_1306_27696)">
<path d="M154.465 106.375L162.121 110.795L152.523 127.419L147.299 129.456C146.6 129.729 145.827 129.282 145.715 128.54L144.87 122.993L154.465 106.375ZM163.997 102.857L160.402 100.782C159.281 100.134 157.847 100.519 157.199 101.64L155.247 105.022L162.903 109.442L164.855 106.06C165.502 104.938 165.118 103.504 163.997 102.857Z" fill="black" fill-opacity="0.1"/>
</g>
<g clip-path="url(#clip21_1306_27696)">
<path d="M200.856 94.0837C200.186 91.583 197.616 90.099 195.115 90.7691C192.614 91.4391 191.131 94.0094 191.801 96.5101C192.471 99.0107 195.041 100.495 197.542 99.8246C200.042 99.1546 201.526 96.5843 200.856 94.0837ZM197.105 102.424C193.848 101.46 189.189 102.204 186.874 102.686C186.096 102.848 185.613 103.603 185.81 104.34L188.626 114.848C188.807 115.524 189.505 115.941 190.217 115.789C192.306 115.345 196.578 114.625 199.846 115.304C200.347 115.408 200.79 114.964 200.661 114.485L197.553 102.883C197.493 102.663 197.33 102.49 197.105 102.424ZM208.211 96.9684C205.965 97.7086 201.558 99.3944 199.22 101.857C199.058 102.027 199.005 102.266 199.064 102.487L202.17 114.079C202.299 114.56 202.906 114.723 203.29 114.381C205.78 112.161 209.838 110.649 211.868 109.99C212.561 109.764 212.956 109.054 212.775 108.378L209.959 97.8693C209.761 97.1323 208.966 96.7196 208.211 96.9684Z" fill="black" fill-opacity="0.1"/>
</g>
<g clip-path="url(#clip22_1306_27696)">
<path d="M253.696 93.2706L249.45 77.4233C249.282 76.7961 248.642 76.4266 248.015 76.5947L232.545 80.7398C230.045 81.4096 228.56 83.9811 229.23 86.4808L233.274 101.573C233.944 104.073 236.516 105.558 239.015 104.888L254.485 100.743C255.112 100.575 255.482 99.9349 255.314 99.3076L255.112 98.553C255.017 98.1992 254.766 97.9228 254.456 97.7835C254.063 97.1102 253.508 95.0397 253.511 94.2603C253.712 93.9892 253.791 93.6243 253.696 93.2706ZM235.747 86.6555C235.706 86.4998 235.799 86.3384 235.955 86.2967L245.953 83.6175C246.109 83.5758 246.271 83.669 246.312 83.8246L246.565 84.7679C246.607 84.9236 246.514 85.085 246.358 85.1267L236.359 87.8059C236.203 87.8476 236.042 87.7544 236 87.5988L235.747 86.6555ZM236.556 89.674C236.515 89.5183 236.608 89.3569 236.763 89.3152L246.762 86.636C246.918 86.5943 247.079 86.6875 247.121 86.8432L247.374 87.7864C247.416 87.9421 247.322 88.1035 247.167 88.1453L237.168 90.8244C237.012 90.8661 236.851 90.7729 236.809 90.6173L236.556 89.674ZM251.667 98.2627L238.206 101.869C237.372 102.093 236.516 101.599 236.293 100.765C236.07 99.9345 236.568 99.0734 237.398 98.851L250.858 95.2442C250.985 96.0747 251.361 97.4802 251.667 98.2627Z" fill="black" fill-opacity="0.1"/>
</g>
<g clip-path="url(#clip23_1306_27696)">
<path d="M284.865 71.434L292.521 75.8541L282.923 92.4784L277.699 94.5152C277 94.788 276.227 94.3418 276.115 93.5996L275.27 88.052L284.865 71.434ZM294.397 67.9165L290.802 65.8411C289.681 65.1937 288.247 65.578 287.599 66.6993L285.647 70.0811L293.303 74.5012L295.255 71.1194C295.902 69.9977 295.518 68.5639 294.397 67.9165Z" fill="black" fill-opacity="0.1"/>
</g>
<g clip-path="url(#clip24_1306_27696)">
<path d="M128.023 171.51L134.438 169.791L131.101 157.34C130.933 156.713 130.293 156.343 129.666 156.511L110.8 161.566C110.173 161.734 109.803 162.374 109.972 163.002L115.027 181.867C115.195 182.495 115.835 182.864 116.462 182.696L128.913 179.36L127.195 172.945C127.028 172.323 127.401 171.677 128.023 171.51ZM134.802 172.474L131.419 178.334C131.263 178.604 131.007 178.799 130.706 178.879L130.423 178.955L128.805 172.918L134.842 171.301L134.919 171.588C134.999 171.885 134.958 172.205 134.802 172.474Z" fill="black" fill-opacity="0.1"/>
</g>
<g clip-path="url(#clip25_1306_27696)">
<path d="M160.301 148.123C159.047 148.459 158.238 149.597 158.251 150.838C158.218 150.847 158.191 150.845 158.157 150.854C156.677 151.251 155.796 152.776 156.193 154.256C156.247 154.458 156.325 154.648 156.421 154.824C155.332 155.655 154.794 157.085 155.169 158.485C155.311 159.013 155.576 159.468 155.909 159.855C155.058 160.703 154.662 161.959 154.996 163.204C155.37 164.6 156.546 165.57 157.897 165.748C157.911 165.951 157.943 166.153 157.997 166.354C158.444 168.023 160.155 169.011 161.824 168.564C161.996 168.518 162.158 168.452 162.314 168.379C163.036 169.466 164.384 170.035 165.717 169.678C167.386 169.231 168.374 167.519 167.927 165.85L163.703 150.087C163.306 148.607 161.781 147.726 160.301 148.123ZM179.144 156.734C178.81 155.489 177.839 154.599 176.678 154.29C176.777 153.787 176.776 153.261 176.634 152.733C176.259 151.333 175.078 150.364 173.719 150.189C173.71 149.989 173.687 149.784 173.633 149.583C173.237 148.103 171.711 147.222 170.231 147.619C170.198 147.628 170.17 147.644 170.141 147.652C169.532 146.571 168.262 145.99 167.009 146.326C165.529 146.722 164.647 148.244 165.045 149.728L169.268 165.491C169.715 167.16 171.427 168.148 173.096 167.701C174.429 167.343 175.311 166.177 175.394 164.874C175.565 164.86 175.738 164.836 175.91 164.79C177.579 164.343 178.567 162.631 178.12 160.962C178.066 160.761 177.992 160.57 177.903 160.387C178.984 159.558 179.518 158.13 179.144 156.734Z" fill="black" fill-opacity="0.1"/>
</g>
<g clip-path="url(#clip26_1306_27696)">
<path d="M202.935 147.598L207.581 139.551L204.943 138.027L202.813 141.716C202.788 141.76 202.754 141.799 202.714 141.829C202.674 141.86 202.628 141.883 202.578 141.896C202.529 141.909 202.478 141.913 202.428 141.906C202.377 141.9 202.329 141.883 202.285 141.858L201.614 141.47C201.429 141.363 201.365 141.127 201.473 140.942L203.602 137.253L201.59 136.091C200.849 135.663 199.902 135.917 199.475 136.658L196.377 142.023C195.95 142.764 196.203 143.711 196.944 144.139L202.935 147.598ZM219.78 137.18C220.428 136.058 220.043 134.624 218.922 133.976L216.216 132.413C215.094 131.766 213.659 132.15 213.011 133.272L211.422 136.024L218.192 139.932L219.78 137.18ZM210.641 137.378L200.386 155.137L200.859 160.441C200.923 161.157 201.677 161.592 202.329 161.289L207.159 159.042L217.41 141.286L210.641 137.378ZM223.05 148.481L221.039 147.32L218.909 151.008C218.802 151.194 218.565 151.257 218.38 151.15L217.71 150.763C217.525 150.656 217.462 150.419 217.568 150.234L219.698 146.546L217.058 145.022L212.411 153.069L218.404 156.528C219.145 156.956 220.092 156.702 220.52 155.961L223.617 150.597C224.045 149.856 223.791 148.909 223.05 148.481Z" fill="black" fill-opacity="0.1"/>
</g>
<g clip-path="url(#clip27_1306_27696)">
<path d="M250.33 122.966C243.87 124.697 240.036 131.337 241.767 137.797C243.498 144.257 250.138 148.091 256.598 146.36C263.058 144.629 266.892 137.989 265.161 131.529C263.43 125.069 256.79 121.235 250.33 122.966ZM260.599 131.108L260.687 131.435C260.761 131.712 260.673 132.007 260.458 132.197L259.829 132.755C259.73 132.843 259.608 132.904 259.477 132.93C259.347 132.957 259.211 132.948 259.085 132.905L258.072 132.563C257.963 132.526 257.847 132.514 257.733 132.529C257.619 132.544 257.509 132.585 257.413 132.648L257.299 132.723C256.882 132.998 256.842 133.593 257.217 133.923L258.092 134.692C258.282 134.859 258.543 134.92 258.787 134.855L259.174 134.751C259.578 134.643 259.993 134.882 260.101 135.286L260.245 135.821C260.287 135.979 260.277 136.147 260.216 136.299L259.648 137.714C259.605 137.821 259.587 137.937 259.596 138.053L259.681 139.184C259.694 139.347 259.653 139.51 259.565 139.648C259.228 140.177 258.956 140.745 258.754 141.339L258.387 142.426C258.315 142.637 258.193 142.828 258.03 142.98C257.867 143.133 257.67 143.243 257.454 143.301C256.958 143.433 256.43 143.275 256.09 142.891C255.693 142.443 255.406 141.909 255.251 141.332L254.873 139.922C254.765 139.518 254.35 139.279 253.946 139.387L252.725 139.714C252.042 139.897 251.314 139.801 250.701 139.447C250.089 139.093 249.642 138.511 249.458 137.828L249.281 137.164C249.064 136.354 249.241 135.488 249.759 134.827L250.798 133.503C251.155 133.049 251.649 132.723 252.206 132.573L252.248 132.562C252.648 132.455 253.068 132.442 253.473 132.525L254.261 132.686C254.458 132.727 254.662 132.687 254.829 132.576L256.861 131.235C257.133 131.055 257.26 130.722 257.175 130.407C257.067 130.004 256.652 129.764 256.249 129.872L255.773 130C255.579 130.052 255.372 130.025 255.198 129.924L254.785 129.685C254.698 129.636 254.603 129.603 254.505 129.59C254.406 129.577 254.306 129.584 254.21 129.61L249.963 130.748C249.559 130.856 249.144 130.616 249.036 130.213L248.981 130.005C248.891 129.67 249.041 129.316 249.344 129.147L249.98 128.794C250.145 128.703 250.269 128.554 250.33 128.375L250.558 127.702C250.639 127.462 250.834 127.279 251.079 127.214L252.22 126.908C252.624 126.799 252.864 126.384 252.756 125.981L252.481 124.957C256.38 124.562 260.132 126.559 262.004 129.948L261.135 130.181C260.731 130.289 260.491 130.704 260.599 131.108Z" fill="black" fill-opacity="0.1"/>
</g>
<g clip-path="url(#clip28_1306_27696)">
<path d="M301.89 124.923L308.304 123.204L304.968 110.753C304.8 110.125 304.16 109.756 303.533 109.924L284.667 114.979C284.04 115.147 283.67 115.787 283.838 116.414L288.893 135.28C289.061 135.907 289.701 136.277 290.329 136.109L302.78 132.772L301.061 126.358C300.894 125.735 301.267 125.089 301.89 124.923ZM308.669 125.886L305.285 131.747C305.13 132.016 304.874 132.211 304.572 132.292L304.289 132.368L302.672 126.331L308.709 124.713L308.786 125.001C308.865 125.298 308.824 125.617 308.669 125.886Z" fill="black" fill-opacity="0.1"/>
</g>
<defs>
<clipPath id="clip0_1306_27696">
<rect width="25" height="25" fill="white" transform="translate(-25.7661 10.1918) rotate(-15)"/>
</clipPath>
<clipPath id="clip1_1306_27696">
<rect width="25" height="25" fill="white" transform="translate(17.7005 -1.45502) rotate(-15)"/>
</clipPath>
<clipPath id="clip2_1306_27696">
<rect width="25" height="25" fill="white" transform="translate(61.1672 -13.1019) rotate(-15)"/>
</clipPath>
<clipPath id="clip3_1306_27696">
<rect width="25" height="25" fill="white" transform="translate(-14.1193 53.6585) rotate(-15)"/>
</clipPath>
<clipPath id="clip4_1306_27696">
<rect width="25" height="25" fill="white" transform="translate(29.3474 42.0117) rotate(-15)"/>
</clipPath>
<clipPath id="clip5_1306_27696">
<rect width="25" height="25" fill="white" transform="translate(72.8141 30.3647) rotate(-15)"/>
</clipPath>
<clipPath id="clip6_1306_27696">
<rect width="25" height="25" fill="white" transform="translate(116.281 18.7179) rotate(-15)"/>
</clipPath>
<clipPath id="clip7_1306_27696">
<rect width="25" height="25" fill="white" transform="translate(159.747 7.07104) rotate(-15)"/>
</clipPath>
<clipPath id="clip8_1306_27696">
<rect width="25" height="25" fill="white" transform="translate(203.214 -4.57581) rotate(-15)"/>
</clipPath>
<clipPath id="clip9_1306_27696">
<rect width="25" height="25" fill="white" transform="translate(246.681 -16.2227) rotate(-15)"/>
</clipPath>
<clipPath id="clip10_1306_27696">
<rect width="25" height="25" fill="white" transform="translate(-2.47241 97.1251) rotate(-15)"/>
</clipPath>
<clipPath id="clip11_1306_27696">
<rect width="25" height="25" fill="white" transform="translate(40.9942 85.4783) rotate(-15)"/>
</clipPath>
<clipPath id="clip12_1306_27696">
<rect width="25" height="25" fill="white" transform="translate(84.4609 73.8314) rotate(-15)"/>
</clipPath>
<clipPath id="clip13_1306_27696">
<rect width="25" height="25" fill="white" transform="translate(127.928 62.1845) rotate(-15)"/>
</clipPath>
<clipPath id="clip14_1306_27696">
<rect width="25" height="25" fill="white" transform="translate(171.394 50.5377) rotate(-15)"/>
</clipPath>
<clipPath id="clip15_1306_27696">
<rect width="25" height="25" fill="white" transform="translate(214.861 38.8908) rotate(-15)"/>
</clipPath>
<clipPath id="clip16_1306_27696">
<rect width="25" height="25" fill="white" transform="translate(258.328 27.244) rotate(-15)"/>
</clipPath>
<clipPath id="clip17_1306_27696">
<rect width="25" height="25" fill="white" transform="translate(9.17442 140.592) rotate(-15)"/>
</clipPath>
<clipPath id="clip18_1306_27696">
<rect width="25" height="25" fill="white" transform="translate(52.6411 128.945) rotate(-15)"/>
</clipPath>
<clipPath id="clip19_1306_27696">
<rect width="25" height="25" fill="white" transform="translate(96.1078 117.298) rotate(-15)"/>
</clipPath>
<clipPath id="clip20_1306_27696">
<rect width="25" height="25" fill="white" transform="translate(139.574 105.651) rotate(-15)"/>
</clipPath>
<clipPath id="clip21_1306_27696">
<rect width="25" height="25" fill="white" transform="translate(183.041 94.0043) rotate(-15)"/>
</clipPath>
<clipPath id="clip22_1306_27696">
<rect width="25" height="25" fill="white" transform="translate(226.508 82.3575) rotate(-15)"/>
</clipPath>
<clipPath id="clip23_1306_27696">
<rect width="25" height="25" fill="white" transform="translate(269.974 70.7106) rotate(-15)"/>
</clipPath>
<clipPath id="clip24_1306_27696">
<rect width="25" height="25" fill="white" transform="translate(107.755 160.765) rotate(-15)"/>
</clipPath>
<clipPath id="clip25_1306_27696">
<rect width="25" height="25" fill="white" transform="translate(151.221 149.118) rotate(-15)"/>
</clipPath>
<clipPath id="clip26_1306_27696">
<rect width="25" height="25" fill="white" transform="translate(194.688 137.471) rotate(-15)"/>
</clipPath>
<clipPath id="clip27_1306_27696">
<rect width="25" height="25" fill="white" transform="translate(238.155 125.824) rotate(-15)"/>
</clipPath>
<clipPath id="clip28_1306_27696">
<rect width="25" height="25" fill="white" transform="translate(281.621 114.177) rotate(-15)"/>
</clipPath>
</defs>
</svg>
