<svg width="294" height="161" viewBox="0 0 294 161" fill="none" xmlns="http://www.w3.org/2000/svg">
<g clip-path="url(#clip0_1306_28246)">
<path d="M-12.5627 22.6962L-12.5635 22.6964C-12.727 22.0859 -12.6012 22.3535 -17.6076 16.7076C-18.6304 15.5545 -20.538 16.0629 -20.8476 17.5758C-22.373 25.0317 -22.3796 24.693 -22.2212 25.2842L-22.222 25.2844C-21.7753 26.9514 -19.2508 27.7235 -16.5835 27.0088C-13.9163 26.2941 -12.116 24.3632 -12.5627 22.6962ZM-19.0099 17.9533L-14.8374 22.6587L-20.2708 24.1145L-19.0099 17.9533ZM1.92543 18.8141C1.76185 18.2036 1.88773 18.4712 -3.11872 12.8254C-4.14146 11.6723 -6.04912 12.1806 -6.35872 13.6935C-7.8841 21.1494 -7.89074 20.8107 -7.73232 21.4019L-7.73307 21.4021C-7.28641 23.0691 -4.76187 23.8412 -2.09463 23.1265C0.572606 22.4119 2.37285 20.4809 1.92619 18.8139L1.92543 18.8141ZM-5.78187 20.2322L-4.52106 14.071L-0.348537 18.7764L-5.78187 20.2322ZM-1.1674 24.1722L-7.80814 25.9516L-10.7881 14.8302C-10.0051 14.2043 -9.55334 13.2263 -9.61654 12.2011L-4.72617 10.8907C-4.39262 10.8013 -4.19485 10.4588 -4.28422 10.1252L-4.60775 8.91783C-4.69712 8.58429 -5.03967 8.38652 -5.37321 8.47589L-10.8201 9.93539C-11.5663 9.35403 -12.5605 9.10762 -13.5449 9.37139C-14.5293 9.63516 -15.267 10.3456 -15.6226 11.2222L-21.0695 12.6817C-21.4031 12.7711 -21.6008 13.1136 -21.5115 13.4472L-21.1879 14.6546C-21.0986 14.9881 -20.756 15.1859 -20.4225 15.0965L-15.5321 13.7861C-15.0743 14.7052 -14.1944 15.3268 -13.2029 15.4773L-10.223 26.5986L-16.8637 28.378C-17.1972 28.4674 -17.395 28.8099 -17.3056 29.1435L-16.9821 30.3509C-16.8927 30.6844 -16.5502 30.8822 -16.2167 30.7928L-0.520357 26.587C-0.186811 26.4976 0.0109583 26.1551 -0.078415 25.8215L-0.401939 24.6141C-0.491312 24.2806 -0.833858 24.0828 -1.1674 24.1722Z" fill="black" fill-opacity="0.1"/>
</g>
<g clip-path="url(#clip1_1306_28246)">
<path d="M45.5979 10.3474L36.4495 12.7987C36.6219 13.5536 36.218 14.1548 35.5377 14.3371L33.2437 14.9518C32.5385 15.1407 31.8211 14.6264 31.6837 14.0757L22.6572 16.4943C22.3251 16.5833 22.1263 16.9277 22.2152 17.2598L22.377 17.8635C22.7329 19.1916 24.1107 19.9871 25.4389 19.6312L44.7574 14.4549C46.0855 14.099 46.881 12.7212 46.5251 11.393L46.3634 10.7893C46.2744 10.4573 45.9299 10.2584 45.5979 10.3474ZM40.0663 -3.05254C39.7994 -4.04865 38.766 -4.64527 37.7699 -4.37836L22.0736 -0.172555C21.0775 0.0943517 20.4808 1.12773 20.7478 2.12384L24.1448 14.8016L43.4633 9.62524L40.0663 -3.05254ZM40.4014 7.85747L25.9125 11.7398L23.3243 2.0805L37.8132 -1.80179L40.4014 7.85747Z" fill="black" fill-opacity="0.1"/>
</g>
<g clip-path="url(#clip2_1306_28246)">
<path d="M71.698 -5.13857L79.2443 -7.1606C79.6612 -7.27231 79.9084 -7.70049 79.7967 -8.11743L79.5945 -8.87206C79.4828 -9.28899 79.0546 -9.5362 78.6377 -9.42448L71.0914 -7.40246C70.6744 -7.29074 70.4272 -6.86256 70.5389 -6.44563L70.7411 -5.691C70.8528 -5.27407 71.281 -5.02685 71.698 -5.13857ZM71.9543 -1.16322C72.0661 -0.746289 72.4942 -0.499077 72.9112 -0.610794L80.4575 -2.63282C80.8744 -2.74453 81.1216 -3.17272 81.0099 -3.58965L80.8077 -4.34428C80.696 -4.76121 80.2678 -5.00842 79.8509 -4.89671L72.3046 -2.87468C71.8876 -2.76297 71.6404 -2.33478 71.7521 -1.91785L71.9543 -1.16322ZM78.0129 3.33658C77.2385 3.54409 76.4001 3.51295 75.6108 3.21236L63.8376 -1.2702L66.5312 8.78241C66.8662 10.0327 68.1513 10.7747 69.4017 10.4397L89.022 5.18243C90.2724 4.84741 91.0143 3.56226 90.6793 2.31194L87.9857 -7.74067L80.0311 2.02796C79.4977 2.68244 78.7874 3.12907 78.0129 3.33658ZM86.0074 -11.6545C85.5023 -11.87 85.0241 -12.0719 84.3226 -12.3561L83.7648 -14.4379C83.4298 -15.6883 82.1446 -16.4302 80.8943 -16.0952L77.2367 -15.1152C77.0655 -15.1805 76.906 -15.2419 76.7274 -15.3103C75.7795 -15.6766 73.8312 -16.6468 72.7414 -16.3371C71.6427 -16.0604 70.441 -14.2461 69.8027 -13.4549C69.6823 -13.3063 69.5749 -13.1734 69.4593 -13.0312L65.8017 -12.0512C64.5514 -11.7161 63.8094 -10.431 64.1444 -9.18067L64.7022 -7.09884C64.2367 -6.50247 63.9237 -6.08798 63.594 -5.64882C63.3805 -5.36469 63.2345 -5.03574 63.1669 -4.68686C63.0993 -4.33797 63.112 -3.97829 63.2039 -3.63502L63.3385 -3.13272L68.7427 -1.07508L66.4083 -9.78728L81.5009 -13.8313L83.8353 -5.11913L87.4867 -9.60319L87.3521 -10.1055C87.1658 -10.8007 86.67 -11.372 86.0074 -11.6545Z" fill="black" fill-opacity="0.1"/>
</g>
<g clip-path="url(#clip3_1306_28246)">
<path d="M-3.58851 61.6218L3.95779 59.5998C4.37472 59.4881 4.62193 59.0599 4.51022 58.6429L4.30801 57.8883C4.1963 57.4714 3.76812 57.2242 3.35118 57.3359L-4.19511 59.3579C-4.61205 59.4696 -4.85926 59.8978 -4.74754 60.3147L-4.54534 61.0694C-4.43362 61.4863 -4.00544 61.7335 -3.58851 61.6218ZM-3.33212 65.5972C-3.22041 66.0141 -2.79222 66.2613 -2.37529 66.1496L5.171 64.1276C5.58794 64.0158 5.83515 63.5877 5.72343 63.1707L5.52123 62.4161C5.40951 61.9992 4.98133 61.752 4.5644 61.8637L-2.9819 63.8857C-3.39883 63.9974 -3.64604 64.4256 -3.53433 64.8425L-3.33212 65.5972ZM2.72645 70.097C1.95201 70.3045 1.11363 70.2733 0.324365 69.9727L-11.4489 65.4902L-8.75529 75.5428C-8.42027 76.7931 -7.13512 77.5351 -5.8848 77.2001L13.7356 71.9428C14.9859 71.6078 15.7279 70.3226 15.3929 69.0723L12.6993 59.0197L4.74461 68.7883C4.21126 69.4428 3.50089 69.8894 2.72645 70.097ZM10.7209 55.1059C10.2158 54.8904 9.73759 54.6885 9.03613 54.4043L8.47831 52.3224C8.14328 51.0721 6.85814 50.3301 5.60781 50.6652L1.95022 51.6452C1.77904 51.5799 1.61953 51.5185 1.44095 51.4501C0.493052 51.0838 -1.4553 50.1136 -2.54509 50.4233C-3.64373 50.7 -4.84548 52.5142 -5.48372 53.3055C-5.60416 53.4541 -5.71161 53.587 -5.82718 53.7292L-9.48478 54.7092C-10.7351 55.0442 -11.4771 56.3294 -11.1421 57.5797L-10.5842 59.6615C-11.0497 60.2579 -11.3628 60.6724 -11.6925 61.1116C-11.9059 61.3957 -12.052 61.7246 -12.1196 62.0735C-12.1871 62.4224 -12.1745 62.7821 -12.0825 63.1254L-11.9479 63.6277L-6.54374 65.6853L-8.87817 56.9731L6.21442 52.929L8.54885 61.6412L12.2002 57.1572L12.0656 56.6549C11.8793 55.9597 11.3835 55.3884 10.7209 55.1059Z" fill="black" fill-opacity="0.1"/>
</g>
<g clip-path="url(#clip4_1306_28246)">
<path d="M30.7611 43.1165L36.4228 64.2461L57.5524 58.5845L51.8907 37.4548L30.7611 43.1165ZM49.7984 54.4545L46.5566 59.807L41.073 56.7925L41.7898 47.2991L37.6532 44.0298L46.3739 41.6931L44.431 46.5914L49.7984 54.4545Z" fill="black" fill-opacity="0.1"/>
</g>
<g clip-path="url(#clip5_1306_28246)">
<path d="M97.1368 28.3698L84.9441 27.0837C84.5681 27.047 84.1916 27.1479 83.8843 27.3677L73.9678 34.5779C73.8384 34.6704 73.7404 34.8002 73.6867 34.9499C73.6331 35.0995 73.6264 35.262 73.6675 35.4156L74.134 37.1565C74.2457 37.5734 74.6739 37.8206 75.0908 37.7089L97.7297 31.6428C98.1466 31.5311 98.3938 31.1029 98.2821 30.686L97.8157 28.9452C97.7314 28.6306 97.4607 28.4013 97.1368 28.3698ZM77.7591 38.6116L79.7811 46.1578L79.0265 46.36C78.6096 46.4718 78.3623 46.8999 78.4741 47.3169L79.0807 49.5808L100.21 43.9191L99.6037 41.6552C99.492 41.2383 99.0638 40.9911 98.6469 41.1028L97.8922 41.305L95.8702 33.7587L92.8517 34.5675L94.8737 42.1138L90.3459 43.327L88.3239 35.7807L85.3054 36.5895L87.3274 44.1358L82.7996 45.349L80.7776 37.8027L77.7591 38.6116ZM101.369 45.2262L78.7304 51.2922C78.3135 51.4039 78.0663 51.8321 78.178 52.2491L78.5824 53.7583C78.6941 54.1753 79.1223 54.4225 79.5393 54.3107L102.178 48.2447C102.595 48.133 102.842 47.7048 102.731 47.2878L102.326 45.7786C102.214 45.3617 101.786 45.1144 101.369 45.2262Z" fill="black" fill-opacity="0.1"/>
</g>
<g clip-path="url(#clip6_1306_28246)">
<path d="M144.178 30.5203L135.03 32.9716C135.202 33.7265 134.798 34.3277 134.118 34.51L131.824 35.1247C131.119 35.3136 130.401 34.7993 130.264 34.2486L121.237 36.6672C120.905 36.7562 120.706 37.1007 120.795 37.4327L120.957 38.0364C121.313 39.3645 122.691 40.16 124.019 39.8042L143.338 34.6278C144.666 34.2719 145.461 32.8941 145.105 31.5659L144.944 30.9622C144.855 30.6302 144.51 30.4313 144.178 30.5203ZM138.646 17.1204C138.38 16.1243 137.346 15.5276 136.35 15.7945L120.654 20.0004C119.658 20.2673 119.061 21.3006 119.328 22.2968L122.725 34.9745L142.043 29.7981L138.646 17.1204ZM138.982 28.0304L124.493 31.9127L121.905 22.2534L136.393 18.3711L138.982 28.0304Z" fill="black" fill-opacity="0.1"/>
</g>
<g clip-path="url(#clip7_1306_28246)">
<path d="M161.161 8.1759L166.823 29.3055L187.952 23.6439L182.291 2.51424L161.161 8.1759ZM180.198 19.5139L176.957 24.8664L171.473 21.8519L172.19 12.3585L168.053 9.08923L176.774 6.75252L174.831 11.6508L180.198 19.5139Z" fill="black" fill-opacity="0.1"/>
</g>
<g clip-path="url(#clip8_1306_28246)">
<path d="M227.537 -6.5708L215.344 -7.85688C214.968 -7.89363 214.592 -7.79273 214.284 -7.57291L204.368 -0.362678C204.238 -0.27019 204.14 -0.140438 204.087 0.00924816C204.033 0.158934 204.026 0.321427 204.068 0.475022L204.534 2.21586C204.646 2.63279 205.074 2.88 205.491 2.76829L228.13 -3.29779C228.547 -3.4095 228.794 -3.83768 228.682 -4.25462L228.216 -5.99545C228.131 -6.31004 227.861 -6.53929 227.537 -6.5708ZM208.159 3.67094L210.181 11.2172L209.426 11.4194C209.01 11.5312 208.762 11.9593 208.874 12.3763L209.481 14.6402L230.61 8.97849L230.004 6.7146C229.892 6.29767 229.464 6.05046 229.047 6.16217L228.292 6.36438L226.27 -1.18192L223.252 -0.37311L225.274 7.17319L220.746 8.3864L218.724 0.840104L215.705 1.64891L217.727 9.19521L213.2 10.4084L211.178 2.86213L208.159 3.67094ZM231.769 10.2855L209.13 16.3516C208.714 16.4633 208.466 16.8915 208.578 17.3084L208.982 18.8177C209.094 19.2346 209.522 19.4819 209.939 19.3701L232.578 13.3041C232.995 13.1923 233.242 12.7642 233.131 12.3472L232.726 10.838C232.614 10.421 232.186 10.1738 231.769 10.2855Z" fill="black" fill-opacity="0.1"/>
</g>
<g clip-path="url(#clip9_1306_28246)">
<path d="M259.884 -3.71828L259.883 -3.71807C259.72 -4.32857 259.846 -4.06102 254.839 -9.70685C253.816 -10.8599 251.909 -10.3516 251.599 -8.83869C250.074 -1.38281 250.067 -1.72154 250.226 -1.13029L250.225 -1.13009C250.671 0.536892 253.196 1.30902 255.863 0.594338C258.53 -0.120346 260.331 -2.0513 259.884 -3.71828ZM253.437 -8.46122L257.609 -3.75581L252.176 -2.29996L253.437 -8.46122ZM274.372 -7.60036C274.209 -8.21085 274.335 -7.9433 269.328 -13.5891C268.305 -14.7422 266.398 -14.2339 266.088 -12.721C264.563 -5.2651 264.556 -5.60382 264.714 -5.01257L264.714 -5.01237C265.16 -3.34539 267.685 -2.57326 270.352 -3.28795C273.019 -4.00263 274.82 -5.93358 274.373 -7.60056L274.372 -7.60036ZM266.665 -6.18224L267.926 -12.3435L272.098 -7.6381L266.665 -6.18224ZM271.279 -2.2423L264.639 -0.462921L261.659 -11.5843C262.442 -12.2102 262.893 -13.1882 262.83 -14.2134L267.721 -15.5238C268.054 -15.6132 268.252 -15.9557 268.163 -16.2892L267.839 -17.4967C267.75 -17.8302 267.407 -18.028 267.074 -17.9386L261.627 -16.4791C260.88 -17.0605 259.886 -17.3069 258.902 -17.0431C257.917 -16.7793 257.18 -16.0689 256.824 -15.1923L251.377 -13.7328C251.044 -13.6434 250.846 -13.3009 250.935 -12.9673L251.259 -11.7599C251.348 -11.4264 251.691 -11.2286 252.024 -11.318L256.915 -12.6283C257.372 -11.7093 258.252 -11.0877 259.244 -10.9372L262.224 0.184126L255.583 1.96351C255.25 2.05288 255.052 2.39543 255.141 2.72897L255.465 3.93638C255.554 4.26993 255.897 4.4677 256.23 4.37832L271.926 0.172512C272.26 0.0831388 272.458 -0.259407 272.368 -0.592953L272.045 -1.80036C271.955 -2.13391 271.613 -2.33168 271.279 -2.2423Z" fill="black" fill-opacity="0.1"/>
</g>
<g clip-path="url(#clip10_1306_28246)">
<path d="M10.7311 109.63L10.7303 109.63C10.5667 109.019 10.6926 109.287 5.68616 103.641C4.66341 102.488 2.75576 102.996 2.44616 104.509C0.920779 111.965 0.914134 111.626 1.07256 112.218L1.0718 112.218C1.51847 113.885 4.04301 114.657 6.71024 113.942C9.37748 113.227 11.1777 111.297 10.7311 109.63ZM4.28381 104.887L8.45634 109.592L3.02301 111.048L4.28381 104.887ZM25.2192 105.747C25.0556 105.137 25.1815 105.405 20.175 99.7587C19.1523 98.6056 17.2446 99.1139 16.935 100.627C15.4097 108.083 15.403 107.744 15.5614 108.335L15.5607 108.335C16.0074 110.002 18.5319 110.775 21.1991 110.06C23.8664 109.345 25.6666 107.414 25.2199 105.747L25.2192 105.747ZM17.5119 107.166L18.7727 101.004L22.9452 105.71L17.5119 107.166ZM22.1264 111.106L15.4856 112.885L12.5057 101.764C13.2887 101.138 13.7404 100.16 13.6772 99.1344L18.5676 97.8241C18.9011 97.7347 19.0989 97.3921 19.0095 97.0586L18.686 95.8512C18.5966 95.5176 18.2541 95.3199 17.9205 95.4092L12.4736 96.8687C11.7274 96.2874 10.7333 96.041 9.74888 96.3047C8.76446 96.5685 8.02672 97.279 7.67117 98.1556L2.22425 99.6151C1.89071 99.7044 1.69294 100.047 1.78231 100.381L2.10584 101.588C2.19521 101.921 2.53776 102.119 2.8713 102.03L7.76168 100.719C8.21945 101.639 9.09937 102.26 10.0908 102.411L13.0708 113.532L6.43006 115.311C6.09652 115.401 5.89875 115.743 5.98812 116.077L6.31165 117.284C6.40102 117.618 6.74356 117.816 7.07711 117.726L22.7734 113.52C23.107 113.431 23.3047 113.088 23.2153 112.755L22.8918 111.547C22.8025 111.214 22.4599 111.016 22.1264 111.106Z" fill="black" fill-opacity="0.1"/>
</g>
<g clip-path="url(#clip11_1306_28246)">
<path d="M68.8917 97.2807L59.7433 99.732C59.9157 100.487 59.5118 101.088 58.8315 101.27L56.5374 101.885C55.8322 102.074 55.1149 101.56 54.9774 101.009L45.9509 103.428C45.6189 103.517 45.42 103.861 45.509 104.193L45.6708 104.797C46.0266 106.125 47.4045 106.92 48.7326 106.565L68.0511 101.388C69.3793 101.032 70.1748 99.6545 69.8189 98.3264L69.6571 97.7226C69.5682 97.3906 69.2237 97.1917 68.8917 97.2807ZM63.36 83.8808C63.0931 82.8847 62.0597 82.2881 61.0636 82.555L45.3673 86.7608C44.3712 87.0277 43.7746 88.0611 44.0415 89.0572L47.4385 101.735L66.757 96.5586L63.36 83.8808ZM63.6952 94.7908L49.2063 98.6731L46.6181 89.0138L61.107 85.1316L63.6952 94.7908Z" fill="black" fill-opacity="0.1"/>
</g>
<g clip-path="url(#clip12_1306_28246)">
<path d="M94.9917 81.7948L102.538 79.7728C102.955 79.661 103.202 79.2329 103.09 78.8159L102.888 78.0613C102.777 77.6444 102.348 77.3971 101.931 77.5089L94.3851 79.5309C93.9682 79.6426 93.721 80.0708 93.8327 80.4877L94.0349 81.2424C94.1466 81.6593 94.5748 81.9065 94.9917 81.7948ZM95.2481 85.7701C95.3598 86.1871 95.788 86.4343 96.2049 86.3226L103.751 84.3005C104.168 84.1888 104.415 83.7606 104.304 83.3437L104.101 82.5891C103.99 82.1721 103.562 81.9249 103.145 82.0366L95.5983 84.0587C95.1814 84.1704 94.9342 84.5986 95.0459 85.0155L95.2481 85.7701ZM101.307 90.2699C100.532 90.4774 99.6939 90.4463 98.9046 90.1457L87.1313 85.6632L89.8249 95.7158C90.16 96.9661 91.4451 97.7081 92.6954 97.373L112.316 92.1158C113.566 91.7808 114.308 90.4956 113.973 89.2453L111.279 79.1927L103.325 88.9613C102.791 89.6158 102.081 90.0624 101.307 90.2699ZM109.301 75.2789C108.796 75.0634 108.318 74.8614 107.616 74.5772L107.059 72.4954C106.724 71.2451 105.438 70.5031 104.188 70.8381L100.53 71.8182C100.359 71.7528 100.2 71.6914 100.021 71.623C99.0733 71.2568 97.1249 70.2866 96.0351 70.5963C94.9365 70.873 93.7348 72.6872 93.0965 73.4785C92.9761 73.627 92.8686 73.76 92.753 73.9021L89.0955 74.8822C87.8451 75.2172 87.1031 76.5023 87.4382 77.7527L87.996 79.8345C87.5305 80.4309 87.2174 80.8454 86.8877 81.2845C86.6743 81.5687 86.5283 81.8976 86.4607 82.2465C86.3931 82.5954 86.4058 82.9551 86.4977 83.2983L86.6323 83.8006L92.0365 85.8583L89.7021 77.1461L104.795 73.102L107.129 81.8142L110.78 77.3302L110.646 76.8279C110.46 76.1327 109.964 75.5613 109.301 75.2789Z" fill="black" fill-opacity="0.1"/>
</g>
<g clip-path="url(#clip13_1306_28246)">
<path d="M155.825 73.9869L146.677 76.4382C146.849 77.1932 146.445 77.7944 145.765 77.9767L143.471 78.5914C142.766 78.7803 142.048 78.266 141.911 77.7153L132.884 80.1339C132.552 80.2229 132.353 80.5673 132.442 80.8994L132.604 81.5031C132.96 82.8312 134.338 83.6267 135.666 83.2708L154.984 78.0945C156.313 77.7386 157.108 76.3607 156.752 75.0326L156.59 74.4289C156.502 74.0969 156.157 73.898 155.825 73.9869ZM150.293 60.587C150.026 59.5909 148.993 58.9943 147.997 59.2612L132.301 63.467C131.305 63.7339 130.708 64.7673 130.975 65.7634L134.372 78.4412L153.69 73.2648L150.293 60.587ZM150.629 71.4971L136.14 75.3793L133.551 65.7201L148.04 61.8378L150.629 71.4971Z" fill="black" fill-opacity="0.1"/>
</g>
<g clip-path="url(#clip14_1306_28246)">
<path d="M184.598 63.0421L184.597 63.0423C184.433 62.4318 184.559 62.6994 179.553 57.0535C178.53 55.9004 176.622 56.4088 176.313 57.9217C174.787 65.3776 174.781 65.0388 174.939 65.6301L174.938 65.6303C175.385 67.2973 177.91 68.0694 180.577 67.3547C183.244 66.64 185.044 64.7091 184.598 63.0421ZM178.15 58.2992L182.323 63.0046L176.89 64.4604L178.15 58.2992ZM199.086 59.16C198.922 58.5495 199.048 58.8171 194.042 53.1712C193.019 52.0181 191.111 52.5265 190.802 54.0394C189.276 61.4953 189.27 61.1566 189.428 61.7478L189.427 61.748C189.874 63.415 192.399 64.1871 195.066 63.4724C197.733 62.7577 199.533 60.8268 199.087 59.1598L199.086 59.16ZM191.379 60.5781L192.639 54.4169L196.812 59.1223L191.379 60.5781ZM195.993 64.5181L189.352 66.2975L186.372 55.1761C187.155 54.5502 187.607 53.5722 187.544 52.547L192.434 51.2366C192.768 51.1472 192.966 50.8047 192.876 50.4711L192.553 49.2637C192.463 48.9302 192.121 48.7324 191.787 48.8218L186.34 50.2813C185.594 49.6999 184.6 49.4535 183.615 49.7173C182.631 49.981 181.893 50.6915 181.538 51.5681L176.091 53.0276C175.757 53.117 175.56 53.4595 175.649 53.7931L175.972 55.0005C176.062 55.334 176.404 55.5318 176.738 55.4424L181.628 54.132C182.086 55.0511 182.966 55.6727 183.957 55.8231L186.937 66.9445L180.297 68.7239C179.963 68.8133 179.765 69.1558 179.855 69.4893L180.178 70.6968C180.268 71.0303 180.61 71.2281 180.944 71.1387L196.64 66.9329C196.974 66.8435 197.171 66.501 197.082 66.1674L196.758 64.96C196.669 64.6265 196.327 64.4287 195.993 64.5181Z" fill="black" fill-opacity="0.1"/>
</g>
<g clip-path="url(#clip15_1306_28246)">
<path d="M242.758 50.6932L233.61 53.1445C233.782 53.8995 233.378 54.5007 232.698 54.683L230.404 55.2977C229.699 55.4866 228.982 54.9723 228.844 54.4216L219.818 56.8402C219.486 56.9292 219.287 57.2736 219.376 57.6057L219.537 58.2094C219.893 59.5375 221.271 60.333 222.599 59.9771L241.918 54.8008C243.246 54.4449 244.041 53.067 243.686 51.7389L243.524 51.1352C243.435 50.8031 243.09 50.6043 242.758 50.6932ZM237.227 37.2933C236.96 36.2972 235.926 35.7006 234.93 35.9675L219.234 40.1733C218.238 40.4402 217.641 41.4736 217.908 42.4697L221.305 55.1475L240.624 49.9711L237.227 37.2933ZM237.562 48.2034L223.073 52.0856L220.485 42.4264L234.974 38.5441L237.562 48.2034Z" fill="black" fill-opacity="0.1"/>
</g>
<g clip-path="url(#clip16_1306_28246)">
<path d="M268.858 35.2073L276.405 33.1853C276.822 33.0736 277.069 32.6454 276.957 32.2285L276.755 31.4738C276.643 31.0569 276.215 30.8097 275.798 30.9214L268.252 32.9434C267.835 33.0551 267.588 33.4833 267.699 33.9003L267.902 34.6549C268.013 35.0718 268.441 35.319 268.858 35.2073ZM269.115 39.1827C269.226 39.5996 269.655 39.8468 270.072 39.7351L277.618 37.7131C278.035 37.6014 278.282 37.1732 278.17 36.7562L277.968 36.0016C277.856 35.5847 277.428 35.3375 277.011 35.4492L269.465 37.4712C269.048 37.5829 268.801 38.0111 268.913 38.428L269.115 39.1827ZM275.173 43.6825C274.399 43.89 273.56 43.8588 272.771 43.5582L260.998 39.0757L263.692 49.1283C264.027 50.3786 265.312 51.1206 266.562 50.7856L286.182 45.5283C287.433 45.1933 288.175 43.9081 287.84 42.6578L285.146 32.6052L277.191 42.3738C276.658 43.0283 275.948 43.475 275.173 43.6825ZM283.168 28.6914C282.663 28.4759 282.184 28.274 281.483 27.9898L280.925 25.908C280.59 24.6576 279.305 23.9156 278.055 24.2507L274.397 25.2307C274.226 25.1654 274.066 25.104 273.888 25.0356C272.94 24.6693 270.992 23.6991 269.902 24.0088C268.803 24.2855 267.601 26.0998 266.963 26.891C266.843 27.0396 266.735 27.1725 266.62 27.3147L262.962 28.2947C261.712 28.6297 260.97 29.9149 261.305 31.1652L261.863 33.247C261.397 33.8434 261.084 34.2579 260.754 34.6971C260.541 34.9812 260.395 35.3101 260.327 35.659C260.26 36.0079 260.272 36.3676 260.364 36.7109L260.499 37.2132L265.903 39.2708L263.569 30.5586L278.661 26.5146L280.996 35.2268L284.647 30.7427L284.512 30.2404C284.326 29.5452 283.83 28.9739 283.168 28.6914Z" fill="black" fill-opacity="0.1"/>
</g>
<g clip-path="url(#clip17_1306_28246)">
<path d="M19.7053 148.555L27.2516 146.533C27.6685 146.421 27.9157 145.993 27.804 145.576L27.6018 144.822C27.4901 144.405 27.0619 144.157 26.6449 144.269L19.0986 146.291C18.6817 146.403 18.4345 146.831 18.5462 147.248L18.7484 148.003C18.8601 148.42 19.2883 148.667 19.7053 148.555ZM19.9616 152.53C20.0734 152.947 20.5015 153.195 20.9185 153.083L28.4648 151.061C28.8817 150.949 29.1289 150.521 29.0172 150.104L28.815 149.349C28.7033 148.932 28.2751 148.685 27.8582 148.797L20.3119 150.819C19.8949 150.931 19.6477 151.359 19.7594 151.776L19.9616 152.53ZM26.0202 157.03C25.2458 157.238 24.4074 157.207 23.6181 156.906L11.8449 152.423L14.5385 162.476C14.8735 163.726 16.1586 164.468 17.409 164.133L37.0293 158.876C38.2797 158.541 39.0216 157.256 38.6866 156.006L35.993 145.953L28.0384 155.722C27.505 156.376 26.7947 156.823 26.0202 157.03ZM34.0147 142.039C33.5096 141.824 33.0314 141.622 32.3299 141.338L31.7721 139.256C31.437 138.005 30.1519 137.263 28.9016 137.598L25.244 138.578C25.0728 138.513 24.9133 138.452 24.7347 138.383C23.7868 138.017 21.8385 137.047 20.7487 137.357C19.65 137.633 18.4483 139.448 17.81 140.239C17.6896 140.387 17.5822 140.52 17.4666 140.662L13.809 141.642C12.5587 141.978 11.8167 143.263 12.1517 144.513L12.7095 146.595C12.244 147.191 11.931 147.606 11.6013 148.045C11.3878 148.329 11.2418 148.658 11.1742 149.007C11.1066 149.356 11.1193 149.715 11.2112 150.059L11.3458 150.561L16.75 152.619L14.4156 143.906L29.5082 139.862L31.8426 148.575L35.494 144.09L35.3594 143.588C35.1731 142.893 34.6773 142.322 34.0147 142.039Z" fill="black" fill-opacity="0.1"/>
</g>
<g clip-path="url(#clip18_1306_28246)">
<path d="M54.0549 130.05L59.7165 151.179L80.8462 145.518L75.1845 124.388L54.0549 130.05ZM73.0921 141.388L69.8504 146.74L64.3667 143.726L65.0835 134.232L60.947 130.963L69.6677 128.626L67.7247 133.525L73.0921 141.388Z" fill="black" fill-opacity="0.1"/>
</g>
<g clip-path="url(#clip19_1306_28246)">
<path d="M120.431 115.303L108.238 114.017C107.862 113.98 107.485 114.081 107.178 114.301L97.2615 121.511C97.1322 121.604 97.0341 121.733 96.9805 121.883C96.9268 122.033 96.9201 122.195 96.9613 122.349L97.4277 124.09C97.5394 124.507 97.9676 124.754 98.3846 124.642L121.023 118.576C121.44 118.464 121.688 118.036 121.576 117.619L121.109 115.878C121.025 115.564 120.754 115.335 120.431 115.303ZM101.053 125.545L103.075 133.091L102.32 133.293C101.903 133.405 101.656 133.833 101.768 134.25L102.374 136.514L123.504 130.852L122.897 128.589C122.786 128.172 122.358 127.924 121.941 128.036L121.186 128.238L119.164 120.692L116.145 121.501L118.167 129.047L113.64 130.26L111.618 122.714L108.599 123.523L110.621 131.069L106.093 132.282L104.071 124.736L101.053 125.545ZM124.663 132.159L102.024 138.226C101.607 138.337 101.36 138.765 101.472 139.182L101.876 140.692C101.988 141.109 102.416 141.356 102.833 141.244L125.472 135.178C125.889 135.066 126.136 134.638 126.024 134.221L125.62 132.712C125.508 132.295 125.08 132.048 124.663 132.159Z" fill="black" fill-opacity="0.1"/>
</g>
<g clip-path="url(#clip20_1306_28246)">
<path d="M167.472 117.454L158.323 119.905C158.496 120.66 158.092 121.261 157.412 121.443L155.118 122.058C154.412 122.247 153.695 121.733 153.558 121.182L144.531 123.601C144.199 123.689 144 124.034 144.089 124.366L144.251 124.97C144.607 126.298 145.985 127.093 147.313 126.737L166.631 121.561C167.959 121.205 168.755 119.827 168.399 118.499L168.237 117.896C168.148 117.563 167.804 117.365 167.472 117.454ZM161.94 104.054C161.673 103.058 160.64 102.461 159.644 102.728L143.948 106.934C142.951 107.201 142.355 108.234 142.622 109.23L146.019 121.908L165.337 116.731L161.94 104.054ZM162.275 114.964L147.786 118.846L145.198 109.187L159.687 105.304L162.275 114.964Z" fill="black" fill-opacity="0.1"/>
</g>
<g clip-path="url(#clip21_1306_28246)">
<path d="M184.455 95.1092L190.117 116.239L211.246 110.577L205.585 89.4475L184.455 95.1092ZM203.492 106.447L200.25 111.8L194.767 108.785L195.484 99.2918L191.347 96.0225L200.068 93.6858L198.125 98.5841L203.492 106.447Z" fill="black" fill-opacity="0.1"/>
</g>
<g clip-path="url(#clip22_1306_28246)">
<path d="M250.831 80.3625L238.638 79.0764C238.262 79.0397 237.885 79.1406 237.578 79.3604L227.662 86.5706C227.532 86.6631 227.434 86.7929 227.38 86.9425C227.327 87.0922 227.32 87.2547 227.361 87.4083L227.828 89.1491C227.939 89.5661 228.368 89.8133 228.785 89.7016L251.423 83.6355C251.84 83.5238 252.088 83.0956 251.976 82.6787L251.509 80.9378C251.425 80.6232 251.154 80.394 250.831 80.3625ZM231.453 90.6042L233.475 98.1505L232.72 98.3527C232.303 98.4644 232.056 98.8926 232.168 99.3096L232.774 101.573L253.904 95.9118L253.297 93.6479C253.186 93.231 252.758 92.9837 252.341 93.0955L251.586 93.2977L249.564 85.7514L246.545 86.5602L248.567 94.1065L244.04 95.3197L242.018 87.7734L238.999 88.5822L241.021 96.1285L236.493 97.3417L234.471 89.7954L231.453 90.6042ZM255.063 97.2188L232.424 103.285C232.007 103.397 231.76 103.825 231.872 104.242L232.276 105.751C232.388 106.168 232.816 106.415 233.233 106.303L255.872 100.237C256.289 100.126 256.536 99.6975 256.424 99.2805L256.02 97.7713C255.908 97.3543 255.48 97.1071 255.063 97.2188Z" fill="black" fill-opacity="0.1"/>
</g>
<g clip-path="url(#clip23_1306_28246)">
<path d="M283.178 83.215L283.177 83.2152C283.014 82.6047 283.139 82.8723 278.133 77.2264C277.11 76.0733 275.203 76.5817 274.893 78.0946C273.368 85.5505 273.361 85.2117 273.519 85.803L273.519 85.8032C273.965 87.4702 276.49 88.2423 279.157 87.5276C281.824 86.8129 283.625 84.882 283.178 83.215ZM276.731 78.4721L280.903 83.1775L275.47 84.6333L276.731 78.4721ZM297.666 79.3329C297.502 78.7224 297.628 78.99 292.622 73.3442C291.599 72.1911 289.691 72.6994 289.382 74.2123C287.856 81.6682 287.85 81.3295 288.008 81.9207L288.007 81.9209C288.454 83.5879 290.979 84.36 293.646 83.6453C296.313 82.9307 298.113 80.9997 297.667 79.3327L297.666 79.3329ZM289.959 80.751L291.219 74.5898L295.392 79.2952L289.959 80.751ZM294.573 84.691L287.932 86.4704L284.952 75.349C285.735 74.7231 286.187 73.7451 286.124 72.7199L291.014 71.4095C291.348 71.3201 291.546 70.9776 291.456 70.644L291.133 69.4366C291.043 69.1031 290.701 68.9053 290.367 68.9947L284.92 70.4542C284.174 69.8728 283.18 69.6264 282.196 69.8902C281.211 70.154 280.473 70.8644 280.118 71.741L274.671 73.2005C274.337 73.2899 274.14 73.6324 274.229 73.966L274.553 75.1734C274.642 75.5069 274.985 75.7047 275.318 75.6153L280.208 74.3049C280.666 75.224 281.546 75.8456 282.538 75.9961L285.518 87.1174L278.877 88.8968C278.543 88.9862 278.346 89.3287 278.435 89.6623L278.758 90.8697C278.848 91.2032 279.19 91.401 279.524 91.3116L295.22 87.1058C295.554 87.0164 295.751 86.6739 295.662 86.3403L295.339 85.1329C295.249 84.7994 294.907 84.6016 294.573 84.691Z" fill="black" fill-opacity="0.1"/>
</g>
<g clip-path="url(#clip24_1306_28246)">
<path d="M118.285 168.728L125.832 166.706C126.249 166.594 126.496 166.166 126.384 165.749L126.182 164.995C126.07 164.578 125.642 164.33 125.225 164.442L117.679 166.464C117.262 166.576 117.015 167.004 117.126 167.421L117.329 168.176C117.44 168.593 117.868 168.84 118.285 168.728ZM118.542 172.703C118.654 173.12 119.082 173.368 119.499 173.256L127.045 171.234C127.462 171.122 127.709 170.694 127.597 170.277L127.395 169.522C127.283 169.105 126.855 168.858 126.438 168.97L118.892 170.992C118.475 171.104 118.228 171.532 118.34 171.949L118.542 172.703ZM124.6 177.203C123.826 177.411 122.988 177.38 122.198 177.079L110.425 172.596L113.119 182.649C113.454 183.899 114.739 184.641 115.989 184.306L135.61 179.049C136.86 178.714 137.602 177.429 137.267 176.179L134.573 166.126L126.619 175.895C126.085 176.549 125.375 176.996 124.6 177.203ZM132.595 162.212C132.09 161.997 131.612 161.795 130.91 161.511L130.352 159.429C130.017 158.178 128.732 157.436 127.482 157.771L123.824 158.751C123.653 158.686 123.493 158.625 123.315 158.556C122.367 158.19 120.419 157.22 119.329 157.53C118.23 157.806 117.028 159.621 116.39 160.412C116.27 160.56 116.162 160.693 116.047 160.835L112.389 161.815C111.139 162.15 110.397 163.436 110.732 164.686L111.29 166.768C110.824 167.364 110.511 167.779 110.181 168.218C109.968 168.502 109.822 168.831 109.754 169.18C109.687 169.529 109.699 169.888 109.791 170.232L109.926 170.734L115.33 172.792L112.996 164.079L128.088 160.035L130.423 168.748L134.074 164.263L133.94 163.761C133.753 163.066 133.257 162.495 132.595 162.212Z" fill="black" fill-opacity="0.1"/>
</g>
<g clip-path="url(#clip25_1306_28246)">
<path d="M179.119 160.92L169.97 163.372C170.143 164.127 169.739 164.728 169.059 164.91L166.764 165.525C166.059 165.714 165.342 165.199 165.204 164.649L156.178 167.067C155.846 167.156 155.647 167.501 155.736 167.833L155.898 168.436C156.254 169.765 157.632 170.56 158.96 170.204L178.278 165.028C179.606 164.672 180.402 163.294 180.046 161.966L179.884 161.362C179.795 161.03 179.451 160.831 179.119 160.92ZM173.587 147.52C173.32 146.524 172.287 145.928 171.291 146.195L155.594 150.4C154.598 150.667 154.002 151.701 154.269 152.697L157.666 165.375L176.984 160.198L173.587 147.52ZM173.922 158.43L159.433 162.313L156.845 152.653L171.334 148.771L173.922 158.43Z" fill="black" fill-opacity="0.1"/>
</g>
<g clip-path="url(#clip26_1306_28246)">
<path d="M207.891 149.975L207.891 149.976C207.727 149.365 207.853 149.633 202.846 143.987C201.824 142.834 199.916 143.342 199.606 144.855C198.081 152.311 198.074 151.972 198.233 152.563L198.232 152.564C198.679 154.231 201.203 155.003 203.871 154.288C206.538 153.573 208.338 151.642 207.891 149.975ZM201.444 145.233L205.617 149.938L200.183 151.394L201.444 145.233ZM222.38 146.093C222.216 145.483 222.342 145.75 217.335 140.105C216.313 138.951 214.405 139.46 214.095 140.973C212.57 148.429 212.563 148.09 212.722 148.681L212.721 148.681C213.168 150.348 215.692 151.12 218.359 150.406C221.027 149.691 222.827 147.76 222.38 146.093L222.38 146.093ZM214.672 147.511L215.933 141.35L220.106 146.056L214.672 147.511ZM219.287 151.451L212.646 153.231L209.666 142.109C210.449 141.484 210.901 140.506 210.838 139.48L215.728 138.17C216.061 138.081 216.259 137.738 216.17 137.404L215.846 136.197C215.757 135.864 215.414 135.666 215.081 135.755L209.634 137.215C208.888 136.633 207.894 136.387 206.909 136.651C205.925 136.914 205.187 137.625 204.831 138.501L199.385 139.961C199.051 140.05 198.853 140.393 198.943 140.726L199.266 141.934C199.356 142.267 199.698 142.465 200.032 142.376L204.922 141.065C205.38 141.984 206.26 142.606 207.251 142.756L210.231 153.878L203.59 155.657C203.257 155.747 203.059 156.089 203.148 156.423L203.472 157.63C203.561 157.964 203.904 158.161 204.237 158.072L219.934 153.866C220.267 153.777 220.465 153.434 220.376 153.101L220.052 151.893C219.963 151.56 219.62 151.362 219.287 151.451Z" fill="black" fill-opacity="0.1"/>
</g>
<g clip-path="url(#clip27_1306_28246)">
<path d="M266.052 137.627L256.904 140.078C257.076 140.833 256.672 141.434 255.992 141.616L253.698 142.231C252.993 142.42 252.275 141.906 252.138 141.355L243.111 143.774C242.779 143.863 242.58 144.207 242.669 144.539L242.831 145.143C243.187 146.471 244.565 147.266 245.893 146.91L265.211 141.734C266.54 141.378 267.335 140 266.979 138.672L266.818 138.069C266.729 137.736 266.384 137.538 266.052 137.627ZM260.52 124.227C260.253 123.231 259.22 122.634 258.224 122.901L242.528 127.107C241.532 127.374 240.935 128.407 241.202 129.403L244.599 142.081L263.917 136.904L260.52 124.227ZM260.856 135.137L246.367 139.019L243.778 129.36L258.267 125.477L260.856 135.137Z" fill="black" fill-opacity="0.1"/>
</g>
<g clip-path="url(#clip28_1306_28246)">
<path d="M292.152 122.141L299.698 120.119C300.115 120.007 300.363 119.579 300.251 119.162L300.049 118.407C299.937 117.99 299.509 117.743 299.092 117.855L291.545 119.877C291.129 119.988 290.881 120.417 290.993 120.834L291.195 121.588C291.307 122.005 291.735 122.252 292.152 122.141ZM292.408 126.116C292.52 126.533 292.948 126.78 293.365 126.668L300.912 124.646C301.329 124.535 301.576 124.107 301.464 123.69L301.262 122.935C301.15 122.518 300.722 122.271 300.305 122.383L292.759 124.405C292.342 124.516 292.095 124.944 292.206 125.361L292.408 126.116ZM298.467 130.616C297.693 130.823 296.854 130.792 296.065 130.492L284.292 126.009L286.985 136.062C287.32 137.312 288.605 138.054 289.856 137.719L309.476 132.462C310.726 132.127 311.468 130.841 311.133 129.591L308.44 119.539L300.485 129.307C299.952 129.962 299.241 130.408 298.467 130.616ZM306.462 115.625C305.956 115.409 305.478 115.207 304.777 114.923L304.219 112.841C303.884 111.591 302.599 110.849 301.348 111.184L297.691 112.164C297.52 112.099 297.36 112.037 297.182 111.969C296.234 111.603 294.285 110.632 293.195 110.942C292.097 111.219 290.895 113.033 290.257 113.824C290.136 113.973 290.029 114.106 289.913 114.248L286.256 115.228C285.005 115.563 284.263 116.848 284.599 118.099L285.156 120.18C284.691 120.777 284.378 121.191 284.048 121.63C283.835 121.915 283.689 122.243 283.621 122.592C283.553 122.941 283.566 123.301 283.658 123.644L283.793 124.147L289.197 126.204L286.862 117.492L301.955 113.448L304.289 122.16L307.941 117.676L307.806 117.174C307.62 116.479 307.124 115.907 306.462 115.625Z" fill="black" fill-opacity="0.1"/>
</g>
<defs>
<clipPath id="clip0_1306_28246">
<rect width="25" height="25" fill="white" transform="translate(-26.266 10.1918) rotate(-15)"/>
</clipPath>
<clipPath id="clip1_1306_28246">
<rect width="25" height="25" fill="white" transform="translate(17.2006 -1.45502) rotate(-15)"/>
</clipPath>
<clipPath id="clip2_1306_28246">
<rect width="25" height="25" fill="white" transform="translate(60.6673 -13.1019) rotate(-15)"/>
</clipPath>
<clipPath id="clip3_1306_28246">
<rect width="25" height="25" fill="white" transform="translate(-14.6191 53.6585) rotate(-15)"/>
</clipPath>
<clipPath id="clip4_1306_28246">
<rect width="25" height="25" fill="white" transform="translate(28.8475 42.0117) rotate(-15)"/>
</clipPath>
<clipPath id="clip5_1306_28246">
<rect width="25" height="25" fill="white" transform="translate(72.3141 30.3648) rotate(-15)"/>
</clipPath>
<clipPath id="clip6_1306_28246">
<rect width="25" height="25" fill="white" transform="translate(115.781 18.7179) rotate(-15)"/>
</clipPath>
<clipPath id="clip7_1306_28246">
<rect width="25" height="25" fill="white" transform="translate(159.247 7.07104) rotate(-15)"/>
</clipPath>
<clipPath id="clip8_1306_28246">
<rect width="25" height="25" fill="white" transform="translate(202.714 -4.57581) rotate(-15)"/>
</clipPath>
<clipPath id="clip9_1306_28246">
<rect width="25" height="25" fill="white" transform="translate(246.181 -16.2227) rotate(-15)"/>
</clipPath>
<clipPath id="clip10_1306_28246">
<rect width="25" height="25" fill="white" transform="translate(-2.97223 97.1252) rotate(-15)"/>
</clipPath>
<clipPath id="clip11_1306_28246">
<rect width="25" height="25" fill="white" transform="translate(40.4944 85.4783) rotate(-15)"/>
</clipPath>
<clipPath id="clip12_1306_28246">
<rect width="25" height="25" fill="white" transform="translate(83.9611 73.8315) rotate(-15)"/>
</clipPath>
<clipPath id="clip13_1306_28246">
<rect width="25" height="25" fill="white" transform="translate(127.428 62.1846) rotate(-15)"/>
</clipPath>
<clipPath id="clip14_1306_28246">
<rect width="25" height="25" fill="white" transform="translate(170.894 50.5377) rotate(-15)"/>
</clipPath>
<clipPath id="clip15_1306_28246">
<rect width="25" height="25" fill="white" transform="translate(214.361 38.8909) rotate(-15)"/>
</clipPath>
<clipPath id="clip16_1306_28246">
<rect width="25" height="25" fill="white" transform="translate(257.828 27.244) rotate(-15)"/>
</clipPath>
<clipPath id="clip17_1306_28246">
<rect width="25" height="25" fill="white" transform="translate(8.67462 140.592) rotate(-15)"/>
</clipPath>
<clipPath id="clip18_1306_28246">
<rect width="25" height="25" fill="white" transform="translate(52.1412 128.945) rotate(-15)"/>
</clipPath>
<clipPath id="clip19_1306_28246">
<rect width="25" height="25" fill="white" transform="translate(95.6079 117.298) rotate(-15)"/>
</clipPath>
<clipPath id="clip20_1306_28246">
<rect width="25" height="25" fill="white" transform="translate(139.075 105.651) rotate(-15)"/>
</clipPath>
<clipPath id="clip21_1306_28246">
<rect width="25" height="25" fill="white" transform="translate(182.541 94.0043) rotate(-15)"/>
</clipPath>
<clipPath id="clip22_1306_28246">
<rect width="25" height="25" fill="white" transform="translate(226.008 82.3575) rotate(-15)"/>
</clipPath>
<clipPath id="clip23_1306_28246">
<rect width="25" height="25" fill="white" transform="translate(269.475 70.7106) rotate(-15)"/>
</clipPath>
<clipPath id="clip24_1306_28246">
<rect width="25" height="25" fill="white" transform="translate(107.255 160.765) rotate(-15)"/>
</clipPath>
<clipPath id="clip25_1306_28246">
<rect width="25" height="25" fill="white" transform="translate(150.721 149.118) rotate(-15)"/>
</clipPath>
<clipPath id="clip26_1306_28246">
<rect width="25" height="25" fill="white" transform="translate(194.188 137.471) rotate(-15)"/>
</clipPath>
<clipPath id="clip27_1306_28246">
<rect width="25" height="25" fill="white" transform="translate(237.655 125.824) rotate(-15)"/>
</clipPath>
<clipPath id="clip28_1306_28246">
<rect width="25" height="25" fill="white" transform="translate(281.121 114.177) rotate(-15)"/>
</clipPath>
</defs>
</svg>
