<svg width="294" height="161" viewBox="0 0 294 161" fill="none" xmlns="http://www.w3.org/2000/svg">
<g clip-path="url(#clip0_1306_24631)">
<path d="M-10.6093 1.12515L4.48333 -2.91889L0.0348763 -19.5207L-1.47438 -19.1163L-2.08099 -21.3802C-2.41601 -22.6306 -3.70116 -23.3725 -4.95149 -23.0375L-12.4978 -21.0155C-13.7481 -20.6805 -14.4901 -19.3953 -14.1551 -18.145L-13.5485 -15.8811L-15.0577 -15.4767L-10.6093 1.12515ZM-10.9343 -18.1992L-4.89731 -19.8168L-4.4929 -18.3075L-10.5299 -16.6899L-10.9343 -18.1992ZM5.16926 -18.4701L8.4045 -6.396C8.73952 -5.14567 7.99754 -3.86053 6.74722 -3.5255L5.99259 -3.3233L1.54414 -19.9251L2.29876 -20.1274C3.54909 -20.4624 4.83424 -19.7204 5.16926 -18.4701ZM-12.1185 1.52956L-12.8732 1.73176C-14.1235 2.06678 -15.4086 1.32481 -15.7436 0.0744788L-18.9789 -11.9996C-19.3139 -13.2499 -18.5719 -14.5351 -17.3216 -14.8701L-16.567 -15.0723L-12.1185 1.52956ZM-1.16382 -11.9203L-0.759416 -10.411C-0.647737 -9.99422 -0.895052 -9.56586 -1.31184 -9.45418L-3.57573 -8.84757L-2.96912 -6.58368C-2.85745 -6.16689 -3.10476 -5.73853 -3.52155 -5.62685L-5.03081 -5.22245C-5.4476 -5.11077 -5.87596 -5.35808 -5.98764 -5.77487L-6.59425 -8.03876L-8.85814 -7.43215C-9.27493 -7.32048 -9.70329 -7.56779 -9.81497 -7.98458L-10.2194 -9.49384C-10.3311 -9.91063 -10.0837 -10.339 -9.66695 -10.4507L-7.40306 -11.0573L-8.00967 -13.3212C-8.12135 -13.738 -7.87403 -14.1663 -7.45724 -14.278L-5.94798 -14.6824C-5.53119 -14.7941 -5.10283 -14.5468 -4.99115 -14.13L-4.38454 -11.8661L-2.12065 -12.4727C-1.70386 -12.5844 -1.2755 -12.3371 -1.16382 -11.9203Z" fill="black" fill-opacity="0.1"/>
</g>
<g clip-path="url(#clip1_1306_24631)">
<path d="M1.03759 44.5918L16.1302 40.5478L11.6817 23.9459L10.1725 24.3503L9.56586 22.0864C9.23084 20.8361 7.94569 20.0941 6.69536 20.4292L-0.850931 22.4512C-2.10126 22.7862 -2.84324 24.0714 -2.50821 25.3217L-1.9016 27.5856L-3.41086 27.99L1.03759 44.5918ZM0.712509 25.2675L6.74954 23.6499L7.15395 25.1591L1.11691 26.7768L0.712509 25.2675ZM16.8161 24.9966L20.0513 37.0707C20.3864 38.321 19.6444 39.6061 18.3941 39.9412L17.6394 40.1434L13.191 23.5415L13.9456 23.3393C15.1959 23.0043 16.4811 23.7463 16.8161 24.9966ZM-0.471671 44.9962L-1.2263 45.1984C-2.47663 45.5335 -3.76177 44.7915 -4.0968 43.5412L-7.33203 31.4671C-7.66706 30.2168 -6.92508 28.9316 -5.67475 28.5966L-4.92012 28.3944L-0.471671 44.9962ZM10.483 31.5464L10.8874 33.0557C10.9991 33.4725 10.7518 33.9008 10.335 34.0125L8.07112 34.6191L8.67773 36.883C8.78941 37.2998 8.54209 37.7281 8.1253 37.8398L6.61604 38.2442C6.19925 38.3559 5.77089 38.1086 5.65921 37.6918L5.0526 35.4279L2.78871 36.0345C2.37192 36.1462 1.94356 35.8989 1.83188 35.4821L1.42748 33.9728C1.3158 33.556 1.56311 33.1277 1.9799 33.016L4.24379 32.4094L3.63718 30.1455C3.52551 29.7287 3.77282 29.3004 4.18961 29.1887L5.69887 28.7843C6.11566 28.6726 6.54402 28.9199 6.6557 29.3367L7.26231 31.6006L9.5262 30.994C9.94299 30.8823 10.3714 31.1296 10.483 31.5464Z" fill="black" fill-opacity="0.1"/>
</g>
<g clip-path="url(#clip2_1306_24631)">
<path d="M58.1549 10.7745L52.7886 12.2124L52.0697 9.52928C51.8709 8.78723 51.1107 8.34836 50.3687 8.54719L42.3193 10.704C41.5772 10.9028 41.1384 11.663 41.3372 12.405L42.0561 15.0882L36.6899 16.5261C35.9478 16.7249 35.5089 17.485 35.7078 18.2271L39.8417 33.6551C39.9406 34.024 40.3233 34.245 40.6922 34.1461L63.4988 28.0351C63.8677 27.9363 64.0887 27.5535 63.9898 27.1846L59.8559 11.7566C59.6571 11.0146 58.8969 10.5757 58.1549 10.7745ZM45.8755 29.3423C45.9496 29.619 45.7839 29.906 45.5072 29.9802L43.8303 30.4295C43.5536 30.5037 43.2665 30.3379 43.1924 30.0612L42.743 28.3843C42.6689 28.1076 42.8346 27.8205 43.1113 27.7464L44.7883 27.2971C45.065 27.2229 45.352 27.3886 45.4262 27.6653L45.8755 29.3423ZM44.4376 23.976C44.5118 24.2527 44.346 24.5398 44.0693 24.6139L42.3924 25.0633C42.1157 25.1374 41.8286 24.9717 41.7545 24.695L41.3052 23.018C41.231 22.7413 41.3967 22.4543 41.6734 22.3801L43.3504 21.9308C43.6271 21.8567 43.9141 22.0224 43.9883 22.2991L44.4376 23.976ZM52.5833 27.5449C52.6575 27.8216 52.4917 28.1087 52.215 28.1828L50.5381 28.6322C50.2614 28.7063 49.9743 28.5406 49.9002 28.2639L49.4509 26.5869C49.3767 26.3102 49.5424 26.0232 49.8191 25.949L51.4961 25.4997C51.7728 25.4256 52.0598 25.5913 52.134 25.868L52.5833 27.5449ZM51.1454 22.1787C51.2196 22.4554 51.0539 22.7424 50.7772 22.8166L49.1002 23.2659C48.8235 23.34 48.5365 23.1743 48.4623 22.8976L48.013 21.2207C47.9388 20.944 48.1046 20.6569 48.3813 20.5828L50.0582 20.1334C50.3349 20.0593 50.622 20.225 50.6961 20.5017L51.1454 22.1787ZM49.9065 14.8719C49.9436 15.0102 49.8607 15.1538 49.7224 15.1908L48.6324 15.4829L48.9244 16.5729C48.9615 16.7113 48.8786 16.8548 48.7403 16.8919L47.9018 17.1165C47.7635 17.1536 47.6199 17.0707 47.5829 16.9324L47.2908 15.8424L46.2008 16.1344C46.0624 16.1715 45.9189 16.0887 45.8818 15.9503L45.6572 15.1118C45.6201 14.9735 45.703 14.83 45.8413 14.7929L46.9313 14.5008L46.6393 13.4108C46.6022 13.2724 46.6851 13.1289 46.8234 13.0918L47.6619 12.8672C47.8002 12.8301 47.9438 12.913 47.9808 13.0513L48.2729 14.1413L49.3629 13.8493C49.5013 13.8122 49.6448 13.8951 49.6819 14.0334L49.9065 14.8719ZM59.2911 25.7476C59.3653 26.0243 59.1996 26.3113 58.9229 26.3855L57.2459 26.8348C56.9692 26.9089 56.6822 26.7432 56.608 26.4665L56.1587 24.7896C56.0845 24.5129 56.2503 24.2258 56.527 24.1517L58.2039 23.7023C58.4806 23.6282 58.7677 23.7939 58.8418 24.0706L59.2911 25.7476ZM57.8533 20.3813C57.9274 20.658 57.7617 20.9451 57.485 21.0192L55.808 21.4686C55.5313 21.5427 55.2443 21.377 55.1701 21.1003L54.7208 19.4233C54.6467 19.1466 54.8124 18.8596 55.0891 18.7854L56.766 18.3361C57.0427 18.2619 57.3298 18.4277 57.4039 18.7044L57.8533 20.3813Z" fill="black" fill-opacity="0.1"/>
</g>
<g clip-path="url(#clip3_1306_24631)">
<path d="M99.8796 -0.495485C98.2729 -0.0396956 97.3001 1.63131 97.6993 3.25318C97.9828 4.40559 98.8652 5.2459 99.9264 5.5277L101.349 10.8384C102.074 13.5409 100.296 16.3779 97.3813 17.1589C94.5514 17.9172 91.6736 16.459 90.85 13.8944C94.094 12.2669 95.8716 8.52499 94.896 4.88391L92.9321 -2.44543C92.788 -2.98311 92.2809 -3.34767 91.7248 -3.30989L88.599 -3.10925C87.953 -3.06759 87.4649 -2.51217 87.5065 -1.86618L87.554 -1.08526C87.5957 -0.439264 88.1511 0.0488509 88.7971 0.00718874L90.3221 -0.0930843L91.8563 5.63267C92.5249 8.12766 91.088 10.7268 88.5994 11.4189C86.0871 12.1173 83.4895 10.6296 82.8159 8.11569L81.2678 2.33806L82.6387 1.66238C83.219 1.37547 83.4559 0.675038 83.169 0.0947595L82.8244 -0.606544C82.5374 -1.18682 81.837 -1.42377 81.2567 -1.13685L78.4515 0.24163C77.9524 0.49165 77.6942 1.05623 77.8395 1.59862L79.8034 8.92796C80.7803 12.5738 84.1967 14.929 87.8267 14.7044C89.0918 18.9352 93.6859 21.3843 98.1854 20.1787C102.76 18.9528 105.533 14.3983 104.363 10.0309L102.94 4.72016C103.701 3.95526 104.049 2.82064 103.749 1.70285C103.298 0.0190822 101.557 -0.970232 99.8796 -0.495485ZM100.933 3.26629C100.518 3.3775 100.087 3.12891 99.9762 2.71386C99.865 2.29882 100.114 1.86824 100.529 1.75703C100.944 1.64582 101.374 1.89441 101.485 2.30946C101.597 2.7245 101.348 3.15508 100.933 3.26629Z" fill="black" fill-opacity="0.1"/>
</g>
<g clip-path="url(#clip4_1306_24631)">
<path d="M139.027 -4.32239L137.939 0.993836C137.809 1.64035 136.983 1.84138 136.568 1.33077L132.288 -3.90701L131.78 -0.146197L127.341 1.04301L138.306 7.53279C138.733 7.78736 139.275 7.64203 139.518 7.208L145.773 -3.89579L140.628 -2.51702L139.027 -4.32239ZM144.119 -14.2755L143.975 -14.3631C140.881 -16.1931 136.905 -15.1277 135.136 -11.9948L134.181 -10.2933L132.505 -11.2849C129.41 -13.1196 125.43 -12.053 123.667 -8.91659L123.584 -8.77306C121.916 -5.80882 122.82 -2.04215 125.541 -0.0921782L130.371 -1.38627L130.974 -5.90553C131.066 -6.58219 131.921 -6.82635 132.356 -6.29594L136.735 -0.933105L137.809 -6.16974C137.938 -6.80084 138.73 -7.01315 139.158 -6.53118L141.157 -4.2765L146.765 -5.77912C148.147 -8.82857 147.046 -12.5422 144.119 -14.2755Z" fill="black" fill-opacity="0.1"/>
</g>
<g clip-path="url(#clip5_1306_24631)">
<path d="M12.6844 88.0584L27.777 84.0144L23.3286 67.4125L21.8193 67.8169L21.2127 65.5531C20.8777 64.3027 19.5925 63.5608 18.3422 63.8958L10.7959 65.9178C9.54559 66.2528 8.80361 67.538 9.13864 68.7883L9.74525 71.0522L8.23599 71.4566L12.6844 88.0584ZM12.3594 68.7341L18.3964 67.1165L18.8008 68.6258L12.7638 70.2434L12.3594 68.7341ZM28.463 68.4632L31.6982 80.5373C32.0332 81.7876 31.2912 83.0728 30.0409 83.4078L29.2863 83.61L24.8378 67.0081L25.5925 66.8059C26.8428 66.4709 28.1279 67.2129 28.463 68.4632ZM11.1752 88.4628L10.4206 88.665C9.17022 89.0001 7.88508 88.2581 7.55005 87.0078L4.31482 74.9337C3.97979 73.6834 4.72177 72.3982 5.9721 72.0632L6.72673 71.861L11.1752 88.4628ZM22.1299 75.013L22.5343 76.5223C22.646 76.9391 22.3986 77.3674 21.9819 77.4791L19.718 78.0857L20.3246 80.3496C20.4363 80.7664 20.1889 81.1948 19.7721 81.3064L18.2629 81.7108C17.8461 81.8225 17.4177 81.5752 17.3061 81.1584L16.6995 78.8945L14.4356 79.5011C14.0188 79.6128 13.5904 79.3655 13.4787 78.9487L13.0743 77.4394C12.9626 77.0227 13.21 76.5943 13.6268 76.4826L15.8906 75.876L15.284 73.6121C15.1724 73.1953 15.4197 72.767 15.8365 72.6553L17.3457 72.2509C17.7625 72.1392 18.1909 72.3865 18.3026 72.8033L18.9092 75.0672L21.173 74.4606C21.5898 74.3489 22.0182 74.5962 22.1299 75.013Z" fill="black" fill-opacity="0.1"/>
</g>
<g clip-path="url(#clip6_1306_24631)">
<path d="M62.3686 57.3562L60.6499 50.9418L51.217 53.4694C50.5897 53.6374 50.2203 54.2773 50.3884 54.9046L53.3203 65.8467L50.6791 66.5545C50.4716 66.6101 50.3473 66.8253 50.4029 67.0329L50.6051 67.7875C50.6607 67.995 50.876 68.1193 51.0835 68.0637L57.7289 66.2831C57.8704 66.2452 58.024 66.2899 58.1241 66.3996L59.5657 68.0253L60.8077 61.9448C60.8699 61.6299 61.2708 61.5225 61.4822 61.7641L63.9971 64.6035L67.308 63.7164C67.7231 63.6052 68.1536 63.8537 68.2649 64.2688C68.3761 64.6838 68.1275 65.1144 67.7124 65.2256L63.4724 66.3617L61.8714 64.5564L60.6294 70.6368C60.5672 70.9517 60.1663 71.0591 59.955 70.8175L57.4353 67.9794L54.1291 68.8653L56.2522 76.7889C56.4203 77.4162 57.0602 77.7856 57.6875 77.6175L73.5347 73.3713C74.162 73.2032 74.5314 72.5633 74.3633 71.936L70.2182 56.4661L63.8038 58.1848C63.1813 58.3516 62.5354 57.9788 62.3686 57.3562ZM69.193 53.9605L63.3371 50.5757C63.068 50.4203 62.7487 50.3795 62.4468 50.4603L62.1591 50.5374L63.7767 56.5745L69.8138 54.9569L69.7367 54.6691C69.6571 54.372 69.4621 54.1159 69.193 53.9605Z" fill="black" fill-opacity="0.1"/>
</g>
<g clip-path="url(#clip7_1306_24631)">
<path d="M116.192 54.1766L111.986 38.4803C111.784 37.7257 111.21 37.3942 110.455 37.5964L95.0609 41.7214C92.4951 42.4088 91.0588 44.8966 91.7463 47.4623L95.7903 62.5549C96.4778 65.1207 98.9656 66.557 101.531 65.8695L116.926 61.7446C117.529 61.5828 118.012 60.9683 117.81 60.2136L117.607 59.459C117.527 59.1572 117.295 58.8957 116.912 58.6748C116.559 57.9606 115.993 55.8476 115.982 55.2035C116.243 54.9717 116.313 54.6294 116.192 54.1766ZM99.4479 49.0384C99.4211 48.9383 99.4351 48.8317 99.4869 48.7419C99.5387 48.6522 99.624 48.5868 99.7241 48.5599L102.365 47.8522L101.658 45.211C101.631 45.111 101.645 45.0043 101.697 44.9146C101.748 44.8249 101.834 44.7594 101.934 44.7326L104.198 44.126C104.298 44.0992 104.404 44.1132 104.494 44.165C104.584 44.2168 104.649 44.3022 104.676 44.4022L105.384 47.0434L108.025 46.3357C108.125 46.3089 108.232 46.3229 108.321 46.3747C108.411 46.4265 108.477 46.5119 108.503 46.6119L109.11 48.8758C109.137 48.9759 109.123 49.0825 109.071 49.1722C109.019 49.262 108.934 49.3274 108.834 49.3542L106.193 50.0619L106.9 52.7031C106.927 52.8032 106.913 52.9098 106.861 52.9996C106.81 53.0893 106.724 53.1547 106.624 53.1816L104.36 53.7882C104.26 53.815 104.154 53.8009 104.064 53.7491C103.974 53.6973 103.909 53.612 103.882 53.512L103.174 50.8708L100.533 51.5785C100.433 51.6053 100.326 51.5912 100.236 51.5394C100.147 51.4876 100.081 51.4023 100.054 51.3022L99.4479 49.0384ZM114.155 59.2518L100.723 62.851C99.817 63.0936 99.0515 62.6517 98.8089 61.7461C98.5662 60.8406 99.1591 60.0347 99.9137 59.8325L113.346 56.2333L114.155 59.2518Z" fill="black" fill-opacity="0.1"/>
</g>
<g clip-path="url(#clip8_1306_24631)">
<path d="M156.735 30.9474L151.369 32.3853L150.65 29.7021C150.451 28.9601 149.691 28.5212 148.949 28.72L140.899 30.8769C140.157 31.0757 139.718 31.8358 139.917 32.5779L140.636 35.261L135.27 36.6989C134.528 36.8977 134.089 37.6579 134.288 38.3999L138.422 53.8279C138.521 54.1969 138.903 54.4178 139.272 54.319L162.079 48.208C162.448 48.1091 162.669 47.7264 162.57 47.3575L158.436 31.9295C158.237 31.1874 157.477 30.7485 156.735 30.9474ZM144.456 49.5151C144.53 49.7918 144.364 50.0789 144.087 50.153L142.41 50.6024C142.134 50.6765 141.847 50.5108 141.772 50.2341L141.323 48.5571C141.249 48.2804 141.415 47.9934 141.691 47.9192L143.368 47.4699C143.645 47.3958 143.932 47.5615 144.006 47.8382L144.456 49.5151ZM143.018 44.1489C143.092 44.4256 142.926 44.7126 142.649 44.7868L140.972 45.2361C140.696 45.3103 140.409 45.1445 140.335 44.8678L139.885 43.1909C139.811 42.9142 139.977 42.6271 140.254 42.553L141.93 42.1036C142.207 42.0295 142.494 42.1952 142.568 42.4719L143.018 44.1489ZM151.163 47.7178C151.238 47.9945 151.072 48.2815 150.795 48.3557L149.118 48.805C148.841 48.8792 148.554 48.7134 148.48 48.4367L148.031 46.7598C147.957 46.4831 148.123 46.196 148.399 46.1219L150.076 45.6725C150.353 45.5984 150.64 45.7641 150.714 46.0408L151.163 47.7178ZM149.726 42.3515C149.8 42.6282 149.634 42.9153 149.357 42.9894L147.68 43.4388C147.404 43.5129 147.117 43.3472 147.042 43.0705L146.593 41.3935C146.519 41.1168 146.685 40.8298 146.961 40.7556L148.638 40.3063C148.915 40.2322 149.202 40.3979 149.276 40.6746L149.726 42.3515ZM148.487 35.0447C148.524 35.1831 148.441 35.3266 148.302 35.3637L147.212 35.6558L147.505 36.7458C147.542 36.8841 147.459 37.0276 147.32 37.0647L146.482 37.2894C146.344 37.3265 146.2 37.2436 146.163 37.1052L145.871 36.0152L144.781 36.3073C144.643 36.3444 144.499 36.2615 144.462 36.1232L144.237 35.2847C144.2 35.1463 144.283 35.0028 144.421 34.9657L145.511 34.6737L145.219 33.5836C145.182 33.4453 145.265 33.3018 145.403 33.2647L146.242 33.04C146.38 33.003 146.524 33.0858 146.561 33.2242L146.853 34.3142L147.943 34.0221C148.081 33.985 148.225 34.0679 148.262 34.2063L148.487 35.0447ZM157.871 45.9204C157.945 46.1971 157.78 46.4842 157.503 46.5583L155.826 47.0077C155.549 47.0818 155.262 46.9161 155.188 46.6394L154.739 44.9624C154.665 44.6857 154.83 44.3987 155.107 44.3245L156.784 43.8752C157.061 43.8011 157.348 43.9668 157.422 44.2435L157.871 45.9204ZM156.433 40.5542C156.507 40.8309 156.342 41.1179 156.065 41.1921L154.388 41.6414C154.111 41.7155 153.824 41.5498 153.75 41.2731L153.301 39.5962C153.227 39.3195 153.392 39.0324 153.669 38.9583L155.346 38.5089C155.623 38.4348 155.91 38.6005 155.984 38.8772L156.433 40.5542Z" fill="black" fill-opacity="0.1"/>
</g>
<g clip-path="url(#clip9_1306_24631)">
<path d="M199.459 20.2185L195.686 21.2295L195.079 18.9656C194.744 17.7157 193.459 16.9734 192.209 17.3083L184.662 19.3303C183.413 19.6652 182.67 20.951 183.005 22.2008L183.612 24.4647L179.839 25.4757C178.589 25.8106 177.846 27.0964 178.181 28.3462L181.821 41.9296C182.156 43.1794 183.442 43.9217 184.692 43.5868L204.312 38.3296C205.562 37.9947 206.304 36.7089 205.969 35.4591L202.33 21.8758C201.995 20.6259 200.709 19.8836 199.459 20.2185ZM186.226 22.1467L192.263 20.529L192.667 22.0383L186.63 23.6559L186.226 22.1467ZM196.906 31.8214C196.962 32.0289 196.838 32.2442 196.63 32.2998L193.989 33.0075L194.697 35.6487C194.752 35.8562 194.628 36.0715 194.42 36.1271L192.157 36.7337C191.949 36.7893 191.734 36.665 191.678 36.4575L190.97 33.8163L188.329 34.524C188.122 34.5796 187.906 34.4553 187.851 34.2478L187.244 31.9839C187.189 31.7764 187.313 31.5611 187.52 31.5055L190.162 30.7978L189.454 28.1566C189.398 27.9491 189.523 27.7338 189.73 27.6782L191.994 27.0716C192.202 27.016 192.417 27.1403 192.472 27.3478L193.18 29.989L195.821 29.2813C196.029 29.2257 196.244 29.35 196.3 29.5575L196.906 31.8214Z" fill="black" fill-opacity="0.1"/>
</g>
<g clip-path="url(#clip10_1306_24631)">
<path d="M242.926 8.57162L239.153 9.58264L238.546 7.31875C238.211 6.06889 236.925 5.32657 235.675 5.66146L228.129 7.68349C226.879 8.01839 226.137 9.30413 226.472 10.554L227.078 12.8179L223.305 13.8289C222.055 14.1638 221.313 15.4495 221.648 16.6994L225.288 30.2827C225.623 31.5326 226.908 32.2749 228.158 31.94L247.779 26.6827C249.028 26.3478 249.771 25.0621 249.436 23.8122L245.796 10.2289C245.461 8.97905 244.176 8.23673 242.926 8.57162ZM229.693 10.4998L235.73 8.88219L236.134 10.3914L230.097 12.0091L229.693 10.4998ZM240.373 20.1745C240.429 20.3821 240.304 20.5973 240.097 20.653L237.456 21.3607L238.163 24.0019C238.219 24.2094 238.095 24.4247 237.887 24.4803L235.623 25.0869C235.416 25.1425 235.2 25.0182 235.145 24.8107L234.437 22.1695L231.796 22.8772C231.588 22.9328 231.373 22.8085 231.317 22.601L230.711 20.3371C230.655 20.1296 230.78 19.9143 230.987 19.8587L233.628 19.151L232.921 16.5098C232.865 16.3022 232.989 16.0869 233.197 16.0313L235.461 15.4247C235.668 15.3691 235.884 15.4934 235.939 15.7009L236.647 18.3421L239.288 17.6344C239.496 17.5788 239.711 17.7031 239.766 17.9106L240.373 20.1745Z" fill="black" fill-opacity="0.1"/>
</g>
<g clip-path="url(#clip11_1306_24631)">
<path d="M285.393 -3.61627C283.786 -3.16048 282.814 -1.48948 283.213 0.132386C283.496 1.2848 284.379 2.12511 285.44 2.40692L286.863 7.71762C287.587 10.4201 285.81 13.2571 282.895 14.0381C280.065 14.7964 277.187 13.3382 276.364 10.7736C279.608 9.14609 281.385 5.40421 280.41 1.76312L278.446 -5.56622C278.302 -6.10389 277.794 -6.46846 277.238 -6.43068L274.113 -6.23004C273.467 -6.18838 272.978 -5.63296 273.02 -4.98697L273.068 -4.20605C273.109 -3.56005 273.665 -3.07194 274.311 -3.1136L275.836 -3.21387L277.37 2.51188C278.038 5.00687 276.602 7.60598 274.113 8.29809C271.601 8.99652 269.003 7.50876 268.329 4.9949L266.781 -0.782728L268.152 -1.45841C268.733 -1.74532 268.969 -2.44575 268.683 -3.02603L268.338 -3.72733C268.051 -4.30761 267.351 -4.54456 266.77 -4.25764L263.965 -2.87916C263.466 -2.62914 263.208 -2.06456 263.353 -1.52217L265.317 5.80717C266.294 9.45297 269.71 11.8082 273.34 11.5837C274.605 15.8145 279.199 18.2635 283.699 17.0579C288.274 15.8321 291.047 11.2775 289.877 6.91007L288.454 1.59937C289.214 0.834467 289.562 -0.300144 289.263 -1.41794C288.812 -3.10171 287.071 -4.09102 285.393 -3.61627ZM286.447 0.1455C286.032 0.256712 285.601 0.0081194 285.49 -0.406927C285.379 -0.821973 285.627 -1.25255 286.042 -1.36376C286.457 -1.47497 286.888 -1.22638 286.999 -0.811332C287.11 -0.396285 286.862 0.034289 286.447 0.1455Z" fill="black" fill-opacity="0.1"/>
</g>
<g clip-path="url(#clip12_1306_24631)">
<path d="M24.3313 131.525L39.4239 127.481L34.9754 110.879L33.4662 111.284L32.8596 109.02C32.5245 107.769 31.2394 107.027 29.9891 107.363L22.4428 109.385C21.1924 109.72 20.4505 111.005 20.7855 112.255L21.3921 114.519L19.8828 114.923L24.3313 131.525ZM24.0062 112.201L30.0432 110.583L30.4477 112.092L24.4106 113.71L24.0062 112.201ZM40.1098 111.93L43.3451 124.004C43.6801 125.254 42.9381 126.539 41.6878 126.875L40.9331 127.077L36.4847 110.475L37.2393 110.273C38.4896 109.938 39.7748 110.68 40.1098 111.93ZM22.822 131.93L22.0674 132.132C20.8171 132.467 19.5319 131.725 19.1969 130.475L15.9617 118.4C15.6266 117.15 16.3686 115.865 17.6189 115.53L18.3736 115.328L22.822 131.93ZM33.7767 118.48L34.1811 119.989C34.2928 120.406 34.0455 120.834 33.6287 120.946L31.3648 121.552L31.9714 123.816C32.0831 124.233 31.8358 124.661 31.419 124.773L29.9097 125.178C29.493 125.289 29.0646 125.042 28.9529 124.625L28.3463 122.361L26.0824 122.968C25.6656 123.08 25.2373 122.832 25.1256 122.415L24.7212 120.906C24.6095 120.489 24.8568 120.061 25.2736 119.949L27.5375 119.343L26.9309 117.079C26.8192 116.662 27.0665 116.234 27.4833 116.122L28.9926 115.718C29.4094 115.606 29.8377 115.853 29.9494 116.27L30.556 118.534L32.8199 117.927C33.2367 117.816 33.6651 118.063 33.7767 118.48Z" fill="black" fill-opacity="0.1"/>
</g>
<g clip-path="url(#clip13_1306_24631)">
<path d="M81.4486 97.7079L76.0823 99.1458L75.3634 96.4626C75.1646 95.7206 74.4044 95.2817 73.6624 95.4805L65.613 97.6374C64.8709 97.8362 64.4321 98.5963 64.6309 99.3384L65.3498 102.022L59.9836 103.459C59.2415 103.658 58.8026 104.418 59.0015 105.16L63.1354 120.588C63.2343 120.957 63.617 121.178 63.9859 121.079L86.7925 114.968C87.1614 114.87 87.3824 114.487 87.2835 114.118L83.1496 98.69C82.9508 97.9479 82.1906 97.509 81.4486 97.7079ZM69.1692 116.276C69.2433 116.552 69.0776 116.839 68.8009 116.914L67.124 117.363C66.8473 117.437 66.5602 117.271 66.4861 116.995L66.0367 115.318C65.9626 115.041 66.1283 114.754 66.405 114.68L68.082 114.23C68.3587 114.156 68.6457 114.322 68.7199 114.599L69.1692 116.276ZM67.7313 110.909C67.8055 111.186 67.6397 111.473 67.363 111.547L65.6861 111.997C65.4094 112.071 65.1223 111.905 65.0482 111.628L64.5989 109.951C64.5247 109.675 64.6904 109.388 64.9671 109.313L66.6441 108.864C66.9208 108.79 67.2078 108.956 67.282 109.232L67.7313 110.909ZM75.877 114.478C75.9512 114.755 75.7854 115.042 75.5087 115.116L73.8318 115.566C73.5551 115.64 73.268 115.474 73.1939 115.197L72.7446 113.52C72.6704 113.244 72.8361 112.957 73.1128 112.882L74.7898 112.433C75.0665 112.359 75.3535 112.525 75.4277 112.801L75.877 114.478ZM74.4391 109.112C74.5133 109.389 74.3476 109.676 74.0709 109.75L72.3939 110.199C72.1172 110.273 71.8302 110.108 71.756 109.831L71.3067 108.154C71.2325 107.877 71.3983 107.59 71.675 107.516L73.3519 107.067C73.6286 106.993 73.9157 107.158 73.9898 107.435L74.4391 109.112ZM73.2002 101.805C73.2373 101.944 73.1544 102.087 73.0161 102.124L71.9261 102.416L72.2181 103.506C72.2552 103.645 72.1723 103.788 72.034 103.825L71.1955 104.05C71.0572 104.087 70.9136 104.004 70.8766 103.866L70.5845 102.776L69.4945 103.068C69.3561 103.105 69.2126 103.022 69.1755 102.884L68.9509 102.045C68.9138 101.907 68.9967 101.763 69.135 101.726L70.225 101.434L69.933 100.344C69.8959 100.206 69.9788 100.062 70.1171 100.025L70.9556 99.8005C71.0939 99.7635 71.2375 99.8463 71.2745 99.9847L71.5666 101.075L72.6566 100.783C72.795 100.746 72.9385 100.828 72.9756 100.967L73.2002 101.805ZM82.5848 112.681C82.659 112.958 82.4933 113.245 82.2166 113.319L80.5396 113.768C80.2629 113.842 79.9759 113.677 79.9017 113.4L79.4524 111.723C79.3782 111.446 79.544 111.159 79.8207 111.085L81.4976 110.636C81.7743 110.562 82.0614 110.727 82.1355 111.004L82.5848 112.681ZM81.147 107.315C81.2211 107.591 81.0554 107.878 80.7787 107.953L79.1017 108.402C78.825 108.476 78.538 108.31 78.4638 108.034L78.0145 106.357C77.9404 106.08 78.1061 105.793 78.3828 105.719L80.0597 105.269C80.3364 105.195 80.6235 105.361 80.6976 105.638L81.147 107.315Z" fill="black" fill-opacity="0.1"/>
</g>
<g clip-path="url(#clip14_1306_24631)">
<path d="M123.173 86.4379C121.567 86.8937 120.594 88.5647 120.993 90.1865C121.277 91.3389 122.159 92.1792 123.22 92.4611L124.643 97.7718C125.367 100.474 123.59 103.311 120.675 104.092C117.845 104.851 114.967 103.392 114.144 100.828C117.388 99.2002 119.165 95.4583 118.19 91.8173L116.226 84.4879C116.082 83.9502 115.575 83.5857 115.019 83.6235L111.893 83.8241C111.247 83.8658 110.759 84.4212 110.8 85.0672L110.848 85.8481C110.889 86.4941 111.445 86.9822 112.091 86.9405L113.616 86.8403L115.15 92.566C115.819 95.061 114.382 97.6601 111.893 98.3522C109.381 99.0507 106.783 97.5629 106.11 95.049L104.562 89.2714L105.932 88.5957C106.513 88.3088 106.75 87.6084 106.463 87.0281L106.118 86.3268C105.831 85.7465 105.131 85.5096 104.55 85.7965L101.745 87.175C101.246 87.425 100.988 87.9896 101.133 88.532L103.097 95.8613C104.074 99.5071 107.49 101.862 111.12 101.638C112.386 105.869 116.98 108.318 121.479 107.112C126.054 105.886 128.827 101.332 127.657 96.9642L126.234 91.6535C126.994 90.8886 127.343 89.754 127.043 88.6362C126.592 86.9524 124.851 85.9631 123.173 86.4379ZM124.227 90.1996C123.812 90.3108 123.381 90.0623 123.27 89.6472C123.159 89.2322 123.407 88.8016 123.822 88.6904C124.237 88.5792 124.668 88.8278 124.779 89.2428C124.89 89.6579 124.642 90.0884 124.227 90.1996Z" fill="black" fill-opacity="0.1"/>
</g>
<g clip-path="url(#clip15_1306_24631)">
<path d="M162.32 82.611L161.233 87.9272C161.102 88.5737 160.277 88.7747 159.862 88.2641L155.582 83.0263L155.073 86.7872L150.635 87.9764L161.6 94.4661C162.027 94.7207 162.569 94.5754 162.812 94.1413L169.067 83.0376L163.921 84.4163L162.32 82.611ZM167.413 72.6579L167.268 72.5703C164.175 70.7403 160.199 71.8056 158.43 74.9386L157.475 76.6401L155.799 75.6485C152.704 73.8137 148.723 74.8804 146.961 78.0168L146.878 78.1603C145.21 81.1245 146.113 84.8912 148.835 86.8412L153.664 85.5471L154.268 81.0278C154.36 80.3512 155.214 80.107 155.65 80.6374L160.029 86.0002L161.103 80.7636C161.232 80.1325 162.024 79.9202 162.451 80.4022L164.451 82.6568L170.059 81.1542C171.44 78.1048 170.339 74.3912 167.413 72.6579Z" fill="black" fill-opacity="0.1"/>
</g>
<g clip-path="url(#clip16_1306_24631)">
<path d="M202.319 72.2629C202.696 72.4945 203.174 72.3665 203.388 71.9765L206.671 65.9654C207.623 64.2186 206.929 61.933 205.102 61.0478C203.51 60.2744 201.64 60.9913 200.79 62.549L200.452 63.1653L199.856 62.8037C198.341 61.8753 196.362 62.1897 195.371 63.6551C194.235 65.3345 194.773 67.6616 196.471 68.6985L202.319 72.2629ZM215.349 72.2585C214.734 71.9425 213.97 72.1785 213.563 72.7371L210.519 76.8732C210.148 77.3816 209.612 77.7455 209 77.9095L204.04 79.2384C203.671 79.3372 203.288 79.1163 203.189 78.7473C203.091 78.3784 203.312 77.9957 203.68 77.8968L206.963 77.0172C207.63 76.8386 208.128 76.2154 208.06 75.528C207.974 74.6524 207.133 74.096 206.315 74.315L199.608 76.1124C198.476 76.4157 197.486 77.0988 196.796 78.0474L195.271 80.1503L192.948 80.7726C192.579 80.8714 192.358 81.2542 192.457 81.6231L193.535 85.6478C193.634 86.0167 194.017 86.2377 194.386 86.1388L209.344 82.1307C209.952 81.9679 210.488 81.604 210.864 81.0945L215.844 74.3232C216.345 73.6452 216.135 72.659 215.349 72.2585Z" fill="black" fill-opacity="0.1"/>
</g>
<g clip-path="url(#clip17_1306_24631)">
<path d="M258.239 62.7028L254.033 47.0065C253.831 46.2519 253.257 45.9204 252.502 46.1226L237.108 50.2475C234.542 50.935 233.106 53.4228 233.793 55.9885L237.837 71.0811C238.525 73.6469 241.012 75.0832 243.578 74.3957L258.973 70.2708C259.576 70.109 260.059 69.4945 259.857 68.7398L259.654 67.9852C259.573 67.6833 259.342 67.4219 258.959 67.201C258.606 66.4868 258.04 64.3738 258.029 63.7297C258.29 63.4979 258.36 63.1556 258.239 62.7028ZM241.495 57.5645C241.468 57.4645 241.482 57.3578 241.534 57.2681C241.586 57.1784 241.671 57.1129 241.771 57.0861L244.412 56.3784L243.704 53.7372C243.678 53.6371 243.692 53.5305 243.743 53.4408C243.795 53.3511 243.881 53.2856 243.981 53.2588L246.245 52.6522C246.345 52.6254 246.451 52.6394 246.541 52.6912C246.631 52.743 246.696 52.8283 246.723 52.9284L247.431 55.5696L250.072 54.8619C250.172 54.8351 250.279 54.8491 250.368 54.9009C250.458 54.9527 250.523 55.038 250.55 55.1381L251.157 57.402C251.184 57.5021 251.17 57.6087 251.118 57.6984C251.066 57.7881 250.981 57.8536 250.881 57.8804L248.239 58.5881L248.947 61.2293C248.974 61.3294 248.96 61.436 248.908 61.5257C248.856 61.6155 248.771 61.6809 248.671 61.7077L246.407 62.3144C246.307 62.3412 246.2 62.3271 246.111 62.2753C246.021 62.2235 245.955 62.1382 245.929 62.0381L245.221 59.3969L242.58 60.1046C242.48 60.1315 242.373 60.1174 242.283 60.0656C242.194 60.0138 242.128 59.9285 242.101 59.8284L241.495 57.5645ZM256.202 67.778L242.769 71.3772C241.864 71.6198 241.098 71.1779 240.856 70.2723C240.613 69.3668 241.206 68.5609 241.961 68.3586L255.393 64.7594L256.202 67.778Z" fill="black" fill-opacity="0.1"/>
</g>
<g clip-path="url(#clip18_1306_24631)">
<path d="M298.039 40.3915L294.266 41.4025L293.659 39.1386C293.325 37.8888 292.039 37.1465 290.789 37.4814L283.243 39.5034C281.993 39.8383 281.251 41.124 281.585 42.3739L282.192 44.6378L278.419 45.6488C277.169 45.9837 276.427 47.2694 276.762 48.5193L280.401 62.1026C280.736 63.3525 282.022 64.0948 283.272 63.7599L302.892 58.5026C304.142 58.1677 304.884 56.882 304.549 55.6321L300.91 42.0488C300.575 40.7989 299.289 40.0566 298.039 40.3915ZM284.806 42.3197L290.843 40.7021L291.248 42.2113L285.211 43.8289L284.806 42.3197ZM295.487 51.9944C295.542 52.2019 295.418 52.4172 295.21 52.4728L292.569 53.1805L293.277 55.8218C293.332 56.0293 293.208 56.2446 293.001 56.3002L290.737 56.9068C290.529 56.9624 290.314 56.8381 290.258 56.6306L289.551 53.9894L286.909 54.6971C286.702 54.7527 286.487 54.6284 286.431 54.4209L285.824 52.157C285.769 51.9494 285.893 51.7342 286.101 51.6785L288.742 50.9708L288.034 48.3296C287.979 48.1221 288.103 47.9068 288.31 47.8512L290.574 47.2446C290.782 47.189 290.997 47.3133 291.053 47.5208L291.76 50.162L294.402 49.4543C294.609 49.3987 294.824 49.523 294.88 49.7305L295.487 51.9944Z" fill="black" fill-opacity="0.1"/>
</g>
<g clip-path="url(#clip19_1306_24631)">
<path d="M0.10069 172.665L-0.987196 177.981C-1.11727 178.628 -1.94298 178.829 -2.35783 178.318L-6.63761 173.08L-7.14643 176.841L-11.5846 178.03L-0.620176 184.52C-0.193055 184.775 0.349334 184.629 0.591946 184.195L6.84723 173.092L1.7016 174.47L0.10069 172.665ZM5.19328 162.712L5.04849 162.624C1.95479 160.794 -2.02117 161.86 -3.79011 164.993L-4.74456 166.694L-6.42061 165.702C-9.51558 163.868 -13.4963 164.934 -15.2592 168.071L-15.3421 168.214C-17.0096 171.179 -16.1065 174.945 -13.3851 176.895L-8.55543 175.601L-7.9516 171.082C-7.85993 170.405 -7.00533 170.161 -6.57002 170.691L-2.19101 176.054L-1.11718 170.818C-0.988034 170.187 -0.195674 169.974 0.23172 170.456L2.23106 172.711L7.83889 171.208C9.22075 168.159 8.11954 164.445 5.19328 162.712Z" fill="black" fill-opacity="0.1"/>
</g>
<g clip-path="url(#clip20_1306_24631)">
<path d="M35.9781 174.992L51.0707 170.948L46.6223 154.346L45.113 154.75L44.5064 152.486C44.1714 151.236 42.8862 150.494 41.6359 150.829L34.0896 152.851C32.8393 153.186 32.0973 154.471 32.4323 155.722L33.0389 157.985L31.5297 158.39L35.9781 174.992ZM35.6531 155.667L41.6901 154.05L42.0945 155.559L36.0575 157.177L35.6531 155.667ZM51.7567 155.397L54.9919 167.471C55.3269 168.721 54.5849 170.006 53.3346 170.341L52.58 170.543L48.1315 153.941L48.8862 153.739C50.1365 153.404 51.4216 154.146 51.7567 155.397ZM34.4689 175.396L33.7143 175.598C32.4639 175.933 31.1788 175.191 30.8438 173.941L27.6085 161.867C27.2735 160.617 28.0155 159.332 29.2658 158.996L30.0204 158.794L34.4689 175.396ZM45.4236 161.946L45.828 163.456C45.9397 163.872 45.6924 164.301 45.2756 164.412L43.0117 165.019L43.6183 167.283C43.73 167.7 43.4826 168.128 43.0659 168.24L41.5566 168.644C41.1398 168.756 40.7114 168.508 40.5998 168.092L39.9932 165.828L37.7293 166.434C37.3125 166.546 36.8841 166.299 36.7724 165.882L36.368 164.373C36.2563 163.956 36.5037 163.528 36.9205 163.416L39.1843 162.809L38.5777 160.545C38.4661 160.129 38.7134 159.7 39.1302 159.589L40.6394 159.184C41.0562 159.072 41.4846 159.32 41.5963 159.737L42.2029 162L44.4667 161.394C44.8835 161.282 45.3119 161.53 45.4236 161.946Z" fill="black" fill-opacity="0.1"/>
</g>
<g clip-path="url(#clip21_1306_24631)">
<path d="M85.6623 144.289L83.9436 137.875L74.5107 140.403C73.8834 140.571 73.514 141.211 73.6821 141.838L76.614 152.78L73.9728 153.488C73.7653 153.543 73.641 153.759 73.6966 153.966L73.8988 154.721C73.9544 154.928 74.1697 155.053 74.3772 154.997L81.0226 153.216C81.1641 153.178 81.3177 153.223 81.4178 153.333L82.8594 154.959L84.1014 148.878C84.1636 148.563 84.5645 148.456 84.7759 148.697L87.2908 151.537L90.6017 150.65C91.0168 150.538 91.4473 150.787 91.5586 151.202C91.6698 151.617 91.4212 152.048 91.0061 152.159L86.7661 153.295L85.1651 151.49L83.9231 157.57C83.8609 157.885 83.46 157.992 83.2487 157.751L80.729 154.913L77.4228 155.799L79.5459 163.722C79.714 164.349 80.3539 164.719 80.9812 164.551L96.8284 160.305C97.4557 160.136 97.8251 159.497 97.657 158.869L93.5119 143.399L87.0975 145.118C86.475 145.285 85.8291 144.912 85.6623 144.289ZM92.4867 140.894L86.6308 137.509C86.3617 137.354 86.0424 137.313 85.7405 137.394L85.4528 137.471L87.0704 143.508L93.1075 141.89L93.0304 141.602C92.9508 141.305 92.7558 141.049 92.4867 140.894Z" fill="black" fill-opacity="0.1"/>
</g>
<g clip-path="url(#clip22_1306_24631)">
<path d="M139.486 141.11L135.28 125.414C135.078 124.659 134.504 124.328 133.749 124.53L118.355 128.655C115.789 129.342 114.353 131.83 115.04 134.396L119.084 149.488C119.772 152.054 122.259 153.49 124.825 152.803L140.219 148.678C140.823 148.516 141.306 147.902 141.103 147.147L140.901 146.392C140.82 146.091 140.588 145.829 140.206 145.608C139.853 144.894 139.286 142.781 139.276 142.137C139.537 141.905 139.607 141.563 139.486 141.11ZM122.742 135.972C122.715 135.872 122.729 135.765 122.781 135.675C122.832 135.586 122.918 135.52 123.018 135.493L125.659 134.786L124.951 132.144C124.924 132.044 124.939 131.938 124.99 131.848C125.042 131.758 125.127 131.693 125.227 131.666L127.491 131.059C127.591 131.033 127.698 131.047 127.788 131.098C127.878 131.15 127.943 131.236 127.97 131.336L128.678 133.977L131.319 133.269C131.419 133.242 131.525 133.256 131.615 133.308C131.705 133.36 131.77 133.445 131.797 133.545L132.404 135.809C132.431 135.909 132.417 136.016 132.365 136.106C132.313 136.195 132.228 136.261 132.128 136.288L129.486 136.995L130.194 139.636C130.221 139.737 130.207 139.843 130.155 139.933C130.103 140.023 130.018 140.088 129.918 140.115L127.654 140.722C127.554 140.748 127.447 140.734 127.358 140.682C127.268 140.631 127.202 140.545 127.176 140.445L126.468 137.804L123.827 138.512C123.727 138.539 123.62 138.525 123.53 138.473C123.44 138.421 123.375 138.336 123.348 138.236L122.742 135.972ZM137.449 146.185L124.016 149.784C123.111 150.027 122.345 149.585 122.103 148.679C121.86 147.774 122.453 146.968 123.207 146.766L136.64 143.167L137.449 146.185Z" fill="black" fill-opacity="0.1"/>
</g>
<g clip-path="url(#clip23_1306_24631)">
<path d="M180.029 117.881L174.662 119.319L173.944 116.635C173.745 115.893 172.985 115.454 172.243 115.653L164.193 117.81C163.451 118.009 163.012 118.769 163.211 119.511L163.93 122.194L158.564 123.632C157.822 123.831 157.383 124.591 157.582 125.333L161.716 140.761C161.814 141.13 162.197 141.351 162.566 141.252L185.373 135.141C185.742 135.042 185.963 134.66 185.864 134.291L181.73 118.863C181.531 118.121 180.771 117.682 180.029 117.881ZM167.749 136.448C167.823 136.725 167.658 137.012 167.381 137.086L165.704 137.536C165.427 137.61 165.14 137.444 165.066 137.167L164.617 135.49C164.543 135.214 164.708 134.927 164.985 134.853L166.662 134.403C166.939 134.329 167.226 134.495 167.3 134.771L167.749 136.448ZM166.311 131.082C166.386 131.359 166.22 131.646 165.943 131.72L164.266 132.169C163.99 132.244 163.702 132.078 163.628 131.801L163.179 130.124C163.105 129.847 163.271 129.56 163.547 129.486L165.224 129.037C165.501 128.963 165.788 129.129 165.862 129.405L166.311 131.082ZM174.457 134.651C174.531 134.928 174.366 135.215 174.089 135.289L172.412 135.738C172.135 135.812 171.848 135.647 171.774 135.37L171.325 133.693C171.251 133.416 171.416 133.129 171.693 133.055L173.37 132.606C173.647 132.532 173.934 132.697 174.008 132.974L174.457 134.651ZM173.019 129.285C173.093 129.562 172.928 129.849 172.651 129.923L170.974 130.372C170.697 130.446 170.41 130.28 170.336 130.004L169.887 128.327C169.813 128.05 169.978 127.763 170.255 127.689L171.932 127.24C172.209 127.165 172.496 127.331 172.57 127.608L173.019 129.285ZM171.78 121.978C171.817 122.116 171.735 122.26 171.596 122.297L170.506 122.589L170.798 123.679C170.835 123.817 170.752 123.961 170.614 123.998L169.776 124.223C169.637 124.26 169.494 124.177 169.457 124.039L169.165 122.949L168.075 123.241C167.936 123.278 167.793 123.195 167.756 123.056L167.531 122.218C167.494 122.08 167.577 121.936 167.715 121.899L168.805 121.607L168.513 120.517C168.476 120.379 168.559 120.235 168.697 120.198L169.536 119.973C169.674 119.936 169.818 120.019 169.855 120.157L170.147 121.247L171.237 120.955C171.375 120.918 171.519 121.001 171.556 121.14L171.78 121.978ZM181.165 132.854C181.239 133.13 181.073 133.417 180.797 133.492L179.12 133.941C178.843 134.015 178.556 133.849 178.482 133.573L178.033 131.896C177.958 131.619 178.124 131.332 178.401 131.258L180.078 130.808C180.354 130.734 180.642 130.9 180.716 131.177L181.165 132.854ZM179.727 127.487C179.801 127.764 179.636 128.051 179.359 128.125L177.682 128.575C177.405 128.649 177.118 128.483 177.044 128.206L176.595 126.529C176.52 126.253 176.686 125.966 176.963 125.892L178.64 125.442C178.917 125.368 179.204 125.534 179.278 125.811L179.727 127.487Z" fill="black" fill-opacity="0.1"/>
</g>
<g clip-path="url(#clip24_1306_24631)">
<path d="M222.753 107.152L218.98 108.163L218.373 105.899C218.038 104.649 216.752 103.907 215.502 104.242L207.956 106.264C206.706 106.599 205.964 107.884 206.299 109.134L206.906 111.398L203.132 112.409C201.883 112.744 201.14 114.03 201.475 115.28L205.115 128.863C205.45 130.113 206.735 130.855 207.985 130.52L227.606 125.263C228.855 124.928 229.598 123.642 229.263 122.392L225.623 108.809C225.288 107.559 224.003 106.817 222.753 107.152ZM209.52 109.08L215.557 107.462L215.961 108.972L209.924 110.589L209.52 109.08ZM220.2 118.755C220.256 118.962 220.131 119.177 219.924 119.233L217.283 119.941L217.99 122.582C218.046 122.79 217.922 123.005 217.714 123.06L215.45 123.667C215.243 123.723 215.027 123.598 214.972 123.391L214.264 120.75L211.623 121.457C211.415 121.513 211.2 121.389 211.145 121.181L210.538 118.917C210.482 118.71 210.607 118.494 210.814 118.439L213.455 117.731L212.748 115.09C212.692 114.882 212.816 114.667 213.024 114.611L215.288 114.005C215.495 113.949 215.711 114.074 215.766 114.281L216.474 116.922L219.115 116.215C219.323 116.159 219.538 116.283 219.593 116.491L220.2 118.755Z" fill="black" fill-opacity="0.1"/>
</g>
<g clip-path="url(#clip25_1306_24631)">
<path d="M266.219 95.5049L262.446 96.5159L261.84 94.252C261.505 93.0022 260.219 92.2599 258.969 92.5948L251.423 94.6168C250.173 94.9517 249.431 96.2374 249.766 97.4873L250.372 99.7512L246.599 100.762C245.349 101.097 244.607 102.383 244.942 103.633L248.581 117.216C248.916 118.466 250.202 119.208 251.452 118.873L271.072 113.616C272.322 113.281 273.064 111.995 272.73 110.746L269.09 97.1622C268.755 95.9123 267.469 95.17 266.219 95.5049ZM252.986 97.4331L259.023 95.8155L259.428 97.3247L253.391 98.9424L252.986 97.4331ZM263.667 107.108C263.722 107.315 263.598 107.531 263.391 107.586L260.749 108.294L261.457 110.935C261.513 111.143 261.388 111.358 261.181 111.414L258.917 112.02C258.709 112.076 258.494 111.951 258.439 111.744L257.731 109.103L255.09 109.81C254.882 109.866 254.667 109.742 254.611 109.534L254.005 107.27C253.949 107.063 254.073 106.848 254.281 106.792L256.922 106.084L256.214 103.443C256.159 103.236 256.283 103.02 256.491 102.965L258.754 102.358C258.962 102.302 259.177 102.427 259.233 102.634L259.941 105.275L262.582 104.568C262.789 104.512 263.005 104.636 263.06 104.844L263.667 107.108Z" fill="black" fill-opacity="0.1"/>
</g>
<g clip-path="url(#clip26_1306_24631)">
<path d="M308.687 83.317C307.08 83.7728 306.107 85.4438 306.507 87.0657C306.79 88.2181 307.672 89.0584 308.734 89.3402L310.157 94.6509C310.881 97.3534 309.103 100.19 306.189 100.971C303.359 101.73 300.481 100.272 299.657 97.7069C302.901 96.0794 304.679 92.3375 303.703 88.6964L301.739 81.3671C301.595 80.8294 301.088 80.4648 300.532 80.5026L297.406 80.7032C296.76 80.7449 296.272 81.3003 296.314 81.9463L296.361 82.7272C296.403 83.3732 296.958 83.8614 297.604 83.8197L299.129 83.7194L300.664 89.4452C301.332 91.9402 299.895 94.5393 297.407 95.2314C294.894 95.9298 292.297 94.4421 291.623 91.9282L290.075 86.1506L291.446 85.4749C292.026 85.188 292.263 84.4875 291.976 83.9073L291.632 83.206C291.345 82.6257 290.644 82.3887 290.064 82.6756L287.259 84.0541C286.76 84.3041 286.501 84.8687 286.647 85.4111L288.611 92.7405C289.588 96.3863 293.004 98.7415 296.634 98.5169C297.899 102.748 302.493 105.197 306.993 103.991C311.568 102.765 314.341 98.2108 313.17 93.8434L311.747 88.5327C312.508 87.7678 312.856 86.6331 312.557 85.5153C312.105 83.8316 310.364 82.8423 308.687 83.317ZM309.74 87.0788C309.325 87.19 308.895 86.9414 308.783 86.5264C308.672 86.1113 308.921 85.6807 309.336 85.5695C309.751 85.4583 310.181 85.7069 310.293 86.122C310.404 86.537 310.155 86.9676 309.74 87.0788Z" fill="black" fill-opacity="0.1"/>
</g>
<g clip-path="url(#clip27_1306_24631)">
<path d="M185.614 169.544L184.526 174.86C184.396 175.507 183.571 175.708 183.156 175.197L178.876 169.96L178.367 173.72L173.929 174.91L184.893 181.399C185.32 181.654 185.863 181.509 186.105 181.075L192.361 169.971L187.215 171.35L185.614 169.544ZM190.707 159.591L190.562 159.504C187.468 157.674 183.492 158.739 181.723 161.872L180.769 163.573L179.093 162.582C175.998 160.747 172.017 161.814 170.254 164.95L170.171 165.094C168.504 168.058 169.407 171.824 172.128 173.774L176.958 172.48L177.562 167.961C177.654 167.284 178.508 167.04 178.943 167.571L183.322 172.934L184.396 167.697C184.525 167.066 185.318 166.853 185.745 167.335L187.745 169.59L193.352 168.088C194.734 165.038 193.633 161.324 190.707 159.591Z" fill="black" fill-opacity="0.1"/>
</g>
<g clip-path="url(#clip28_1306_24631)">
<path d="M225.613 159.196C225.989 159.428 226.467 159.3 226.682 158.91L229.965 152.899C230.916 151.152 230.223 148.866 228.395 147.981C226.804 147.208 224.934 147.925 224.084 149.482L223.746 150.099L223.15 149.737C221.634 148.809 219.656 149.123 218.665 150.588C217.529 152.268 218.067 154.595 219.764 155.632L225.613 159.196ZM238.642 159.192C238.028 158.876 237.264 159.112 236.857 159.67L233.813 163.807C233.441 164.315 232.905 164.679 232.293 164.843L227.334 166.172C226.965 166.271 226.582 166.05 226.483 165.681C226.384 165.312 226.605 164.929 226.974 164.83L230.257 163.951C230.923 163.772 231.421 163.149 231.354 162.461C231.268 161.586 230.427 161.029 229.609 161.248L222.901 163.046C221.769 163.349 220.78 164.032 220.09 164.981L218.564 167.084L216.242 167.706C215.873 167.805 215.652 168.188 215.751 168.556L216.829 172.581C216.928 172.95 217.311 173.171 217.68 173.072L232.638 169.064C233.246 168.901 233.782 168.537 234.158 168.028L239.137 161.257C239.639 160.579 239.428 159.592 238.642 159.192Z" fill="black" fill-opacity="0.1"/>
</g>
<g clip-path="url(#clip29_1306_24631)">
<path d="M281.533 149.636L277.327 133.94C277.125 133.185 276.551 132.854 275.796 133.056L260.401 137.181C257.836 137.868 256.399 140.356 257.087 142.922L261.131 158.014C261.818 160.58 264.306 162.016 266.872 161.329L282.266 157.204C282.87 157.042 283.352 156.428 283.15 155.673L282.948 154.918C282.867 154.617 282.635 154.355 282.253 154.134C281.899 153.42 281.333 151.307 281.322 150.663C281.584 150.431 281.654 150.089 281.533 149.636ZM264.788 144.498C264.762 144.398 264.776 144.291 264.827 144.201C264.879 144.112 264.965 144.046 265.065 144.019L267.706 143.312L266.998 140.671C266.971 140.57 266.985 140.464 267.037 140.374C267.089 140.284 267.174 140.219 267.274 140.192L269.538 139.585C269.638 139.559 269.745 139.573 269.835 139.625C269.924 139.676 269.99 139.762 270.017 139.862L270.724 142.503L273.366 141.795C273.466 141.768 273.572 141.782 273.662 141.834C273.752 141.886 273.817 141.971 273.844 142.071L274.451 144.335C274.477 144.435 274.463 144.542 274.412 144.632C274.36 144.721 274.274 144.787 274.174 144.814L271.533 145.521L272.241 148.163C272.268 148.263 272.254 148.369 272.202 148.459C272.15 148.549 272.065 148.614 271.965 148.641L269.701 149.248C269.601 149.274 269.494 149.26 269.404 149.209C269.315 149.157 269.249 149.071 269.222 148.971L268.515 146.33L265.873 147.038C265.773 147.065 265.667 147.051 265.577 146.999C265.487 146.947 265.422 146.862 265.395 146.762L264.788 144.498ZM279.496 154.711L266.063 158.31C265.158 158.553 264.392 158.111 264.149 157.206C263.907 156.3 264.5 155.494 265.254 155.292L278.687 151.693L279.496 154.711Z" fill="black" fill-opacity="0.1"/>
</g>
<defs>
<clipPath id="clip0_1306_24631">
<rect width="25" height="25" fill="white" transform="translate(-21.2031 -20.3005) rotate(-15)"/>
</clipPath>
<clipPath id="clip1_1306_24631">
<rect width="25" height="25" fill="white" transform="translate(-9.55627 23.1661) rotate(-15)"/>
</clipPath>
<clipPath id="clip2_1306_24631">
<rect width="25" height="25" fill="white" transform="translate(33.9104 11.5193) rotate(-15)"/>
</clipPath>
<clipPath id="clip3_1306_24631">
<rect width="25" height="25" fill="white" transform="translate(77.377 -0.127625) rotate(-15)"/>
</clipPath>
<clipPath id="clip4_1306_24631">
<rect width="25" height="25" fill="white" transform="translate(120.844 -11.7745) rotate(-15)"/>
</clipPath>
<clipPath id="clip5_1306_24631">
<rect width="25" height="25" fill="white" transform="translate(2.09058 66.6328) rotate(-15)"/>
</clipPath>
<clipPath id="clip6_1306_24631">
<rect width="25" height="25" fill="white" transform="translate(45.5573 54.9859) rotate(-15)"/>
</clipPath>
<clipPath id="clip7_1306_24631">
<rect width="25" height="25" fill="white" transform="translate(89.0238 43.339) rotate(-15)"/>
</clipPath>
<clipPath id="clip8_1306_24631">
<rect width="25" height="25" fill="white" transform="translate(132.49 31.6921) rotate(-15)"/>
</clipPath>
<clipPath id="clip9_1306_24631">
<rect width="25" height="25" fill="white" transform="translate(175.957 20.0453) rotate(-15)"/>
</clipPath>
<clipPath id="clip10_1306_24631">
<rect width="25" height="25" fill="white" transform="translate(219.424 8.39844) rotate(-15)"/>
</clipPath>
<clipPath id="clip11_1306_24631">
<rect width="25" height="25" fill="white" transform="translate(262.891 -3.24841) rotate(-15)"/>
</clipPath>
<clipPath id="clip12_1306_24631">
<rect width="25" height="25" fill="white" transform="translate(13.7374 110.099) rotate(-15)"/>
</clipPath>
<clipPath id="clip13_1306_24631">
<rect width="25" height="25" fill="white" transform="translate(57.2041 98.4526) rotate(-15)"/>
</clipPath>
<clipPath id="clip14_1306_24631">
<rect width="25" height="25" fill="white" transform="translate(100.671 86.8057) rotate(-15)"/>
</clipPath>
<clipPath id="clip15_1306_24631">
<rect width="25" height="25" fill="white" transform="translate(144.137 75.1589) rotate(-15)"/>
</clipPath>
<clipPath id="clip16_1306_24631">
<rect width="25" height="25" fill="white" transform="translate(187.604 63.512) rotate(-15)"/>
</clipPath>
<clipPath id="clip17_1306_24631">
<rect width="25" height="25" fill="white" transform="translate(231.071 51.8652) rotate(-15)"/>
</clipPath>
<clipPath id="clip18_1306_24631">
<rect width="25" height="25" fill="white" transform="translate(274.537 40.2183) rotate(-15)"/>
</clipPath>
<clipPath id="clip19_1306_24631">
<rect width="25" height="25" fill="white" transform="translate(-18.0824 165.213) rotate(-15)"/>
</clipPath>
<clipPath id="clip20_1306_24631">
<rect width="25" height="25" fill="white" transform="translate(25.3843 153.566) rotate(-15)"/>
</clipPath>
<clipPath id="clip21_1306_24631">
<rect width="25" height="25" fill="white" transform="translate(68.851 141.919) rotate(-15)"/>
</clipPath>
<clipPath id="clip22_1306_24631">
<rect width="25" height="25" fill="white" transform="translate(112.318 130.272) rotate(-15)"/>
</clipPath>
<clipPath id="clip23_1306_24631">
<rect width="25" height="25" fill="white" transform="translate(155.784 118.625) rotate(-15)"/>
</clipPath>
<clipPath id="clip24_1306_24631">
<rect width="25" height="25" fill="white" transform="translate(199.251 106.979) rotate(-15)"/>
</clipPath>
<clipPath id="clip25_1306_24631">
<rect width="25" height="25" fill="white" transform="translate(242.718 95.3317) rotate(-15)"/>
</clipPath>
<clipPath id="clip26_1306_24631">
<rect width="25" height="25" fill="white" transform="translate(286.184 83.6849) rotate(-15)"/>
</clipPath>
<clipPath id="clip27_1306_24631">
<rect width="25" height="25" fill="white" transform="translate(167.431 162.092) rotate(-15)"/>
</clipPath>
<clipPath id="clip28_1306_24631">
<rect width="25" height="25" fill="white" transform="translate(210.898 150.445) rotate(-15)"/>
</clipPath>
<clipPath id="clip29_1306_24631">
<rect width="25" height="25" fill="white" transform="translate(254.364 138.798) rotate(-15)"/>
</clipPath>
</defs>
</svg>
