<svg width="294" height="161" viewBox="0 0 294 161" fill="none" xmlns="http://www.w3.org/2000/svg">
<g clip-path="url(#clip0_1306_27153)">
<path d="M-13.8656 22.8414C-20.47 24.611 -24.2949 30.8093 -22.548 37.3288C-21.6343 40.7388 -19.4435 43.3102 -16.6172 44.7346C-16.1284 44.9833 -16.1546 45.2102 -15.5016 47.3793C-15.4553 47.531 -15.3725 47.6692 -15.2606 47.7816C-15.1486 47.8941 -15.0108 47.9774 -14.8592 48.0244C-14.7077 48.0714 -14.5469 48.0806 -14.3909 48.0511C-14.235 48.0217 -14.0886 47.9546 -13.9646 47.8556C-11.7636 46.088 -11.7548 45.9926 -11.3009 45.9944C-3.53787 46.047 3.05873 39.3204 0.845498 31.0605C-0.901404 24.541 -7.26067 21.0716 -13.8656 22.8414Z" fill="black" fill-opacity="0.1"/>
</g>
<g clip-path="url(#clip1_1306_27153)">
<path d="M32.7093 22.8983C36.0438 22.0048 38.0222 18.5781 37.1287 15.2436C36.2352 11.9091 32.8086 9.93071 29.4741 10.8242C26.1395 11.7177 24.1612 15.1443 25.0546 18.4789C25.9481 21.8134 29.3748 23.7918 32.7093 22.8983ZM37.6396 23.2251L37.804 32.8565L34.576 26.8465L35.3776 23.8009L30.8498 25.0141L33.0668 27.2509L33.2762 34.0697L28.6029 25.6465C25.2831 26.7079 23.3362 30.1767 24.2474 33.5772L24.7731 35.5393C25.108 36.7891 26.3938 37.5315 27.6436 37.1966L44.2455 32.7481C45.4953 32.4132 46.2376 31.1275 45.9027 29.8776L45.377 27.9156C44.4658 24.515 41.0454 22.4844 37.6396 23.2251Z" fill="black" fill-opacity="0.1"/>
</g>
<g clip-path="url(#clip2_1306_27153)">
<path d="M86.5928 10.8867C88.0448 16.3059 84.8304 21.8734 79.4112 23.3255C73.992 24.7775 68.4245 21.5631 66.9724 16.1439C65.6581 11.2388 68.1674 6.20902 72.6763 4.22743L72.2403 2.60026L70.9197 2.95412C70.6084 3.03752 70.2855 2.85108 70.2021 2.5398L69.6966 0.653221C69.6131 0.341936 69.7996 0.0190057 70.1109 -0.0644028L75.7706 -1.58092C76.0819 -1.66433 76.4048 -1.47788 76.4882 -1.1666L76.9937 0.719974C77.0771 1.03126 76.8907 1.35419 76.5794 1.4376L75.2588 1.79145L75.6948 3.41862C77.5368 3.21826 79.3495 3.53125 80.9607 4.26218L81.9102 2.61762C82.0725 2.33655 82.4309 2.24051 82.712 2.40278L84.4044 3.37989C84.6855 3.54216 84.7815 3.90061 84.6192 4.18168L83.6042 5.93986L83.5834 5.97574C84.9928 7.23595 86.0645 8.9152 86.5928 10.8867ZM78.7468 14.8088L76.8322 7.66341C76.7488 7.35213 76.4259 7.16568 76.1146 7.24909L74.228 7.7546C73.9167 7.83801 73.7303 8.16094 73.8137 8.47222L75.7283 15.6176C75.8117 15.9289 76.1346 16.1153 76.4459 16.0319L78.3325 15.5264C78.6438 15.443 78.8302 15.1201 78.7468 14.8088Z" fill="black" fill-opacity="0.1"/>
</g>
<g clip-path="url(#clip3_1306_27153)">
<path d="M125.14 -11.5742C125.765 -11.7417 126.136 -12.3843 125.968 -13.0094L125.766 -13.7641C125.599 -14.3892 124.956 -14.7602 124.331 -14.5927L108.484 -10.3465C107.859 -10.1789 107.488 -9.53637 107.655 -8.91121L107.857 -8.15658C108.025 -7.53141 108.667 -7.16043 109.293 -7.32794C110.442 -3.03763 113.818 -0.0615949 117.418 0.200459C114.432 2.22738 112.996 6.49287 114.145 10.7832C113.52 10.9507 113.149 11.5933 113.317 12.2184L113.519 12.973C113.686 13.5982 114.329 13.9692 114.954 13.8017L130.801 9.55544C131.427 9.38793 131.798 8.74536 131.63 8.12019L131.428 7.36556C131.26 6.7404 130.618 6.36941 129.993 6.53692C128.843 2.24662 125.467 -0.729421 121.867 -0.991474C124.853 -3.0184 126.289 -7.28388 125.14 -11.5742ZM119.036 -2.6594C116.311 -1.9291 113.29 -4.48236 112.311 -8.13675L122.121 -10.7654C123.106 -7.08915 121.747 -3.38593 119.036 -2.6594Z" fill="black" fill-opacity="0.1"/>
</g>
<g clip-path="url(#clip4_1306_27153)">
<path d="M162.515 -12.1303C162.892 -11.8987 163.37 -12.0267 163.584 -12.4167L166.867 -18.4278C167.819 -20.1746 167.125 -22.4602 165.298 -23.3454C163.706 -24.1188 161.836 -23.4019 160.986 -21.8442L160.648 -21.2279L160.052 -21.5895C158.537 -22.5179 156.558 -22.2035 155.567 -20.7381C154.431 -19.0587 154.969 -16.7315 156.667 -15.6947L162.515 -12.1303ZM175.545 -12.1347C174.93 -12.4507 174.166 -12.2147 173.759 -11.6561L170.715 -7.51999C170.344 -7.01155 169.808 -6.64773 169.195 -6.48372L164.236 -5.1548C163.867 -5.05595 163.484 -5.27692 163.385 -5.64585C163.287 -6.01478 163.507 -6.39751 163.876 -6.49636L167.159 -7.37594C167.826 -7.55456 168.324 -8.17778 168.256 -8.86519C168.17 -9.74074 167.329 -10.2972 166.511 -10.0782L159.804 -8.28081C158.672 -7.97751 157.682 -7.29443 156.992 -6.34582L155.466 -4.24293L153.144 -3.6206C152.775 -3.52174 152.554 -3.13901 152.653 -2.77008L153.731 1.25461C153.83 1.62354 154.213 1.84451 154.582 1.74566L169.54 -2.26244C170.148 -2.42533 170.684 -2.78915 171.06 -3.29871L176.04 -10.07C176.541 -10.748 176.331 -11.7341 175.545 -12.1347Z" fill="black" fill-opacity="0.1"/>
</g>
<g clip-path="url(#clip5_1306_27153)">
<path d="M12.5911 76.8579L4.9909 70.4783C3.69877 69.3956 2.01951 69.0817 0.510248 69.4861C-0.437232 69.74 -1.32202 70.2781 -2.00323 71.0897C-2.67411 71.8896 -3.04761 72.8434 -3.13871 73.8114C-3.92644 71.3579 -6.48996 69.9239 -9.00539 70.5979C-11.6005 71.2933 -13.1381 73.9565 -12.4427 76.5516L-9.92642 85.9425C-9.23107 88.5376 -6.56789 90.0752 -3.9728 89.3798C-1.37771 88.6845 0.159873 86.0213 -0.535478 83.4262L-2.21039 77.1754C-1.97543 77.4988 -1.71225 77.8102 -1.39292 78.0797L6.21151 84.4582C7.49945 85.542 9.17871 85.8559 10.6922 85.4504C11.6438 85.1954 12.5244 84.6583 13.2056 83.8467C14.9665 81.7483 14.6896 78.6187 12.5911 76.8579ZM-4.47675 79.4497L-8.50144 80.5281L-9.75959 75.8326C-10.0573 74.7216 -9.39743 73.5787 -8.28645 73.2811C-7.17547 72.9834 -6.03259 73.6432 -5.7349 74.7542L-4.47675 79.4497ZM4.1944 79.1438L0.391617 75.9524C-0.0547642 75.5778 -0.331065 75.0497 -0.37873 74.4693C-0.430586 73.8901 -0.250657 73.3206 0.124008 72.8743C0.412959 72.5272 0.797374 72.2849 1.22919 72.1692C1.92093 71.9839 2.65643 72.1463 3.20217 72.6067L7.00495 75.798L4.1944 79.1438Z" fill="black" fill-opacity="0.1"/>
</g>
<g clip-path="url(#clip6_1306_27153)">
<path d="M54.7729 66.0002C56.225 71.4194 53.0106 76.9869 47.5914 78.439C42.1722 79.8911 36.6046 76.6766 35.1526 71.2575C33.8383 66.3524 36.3475 61.3225 40.8565 59.341L40.4205 57.7138L39.0999 58.0676C38.7886 58.151 38.4656 57.9646 38.3822 57.6533L37.8767 55.7667C37.7933 55.4555 37.9798 55.1325 38.2911 55.0491L43.9508 53.5326C44.2621 53.4492 44.585 53.6356 44.6684 53.9469L45.1739 55.8335C45.2573 56.1448 45.0709 56.4677 44.7596 56.5511L43.439 56.905L43.875 58.5321C45.7169 58.3318 47.5296 58.6448 49.1409 59.3757L50.0904 57.7311C50.2527 57.4501 50.6111 57.354 50.8922 57.5163L52.5846 58.4934C52.8656 58.6557 52.9617 59.0141 52.7994 59.2952L51.7843 61.0534L51.7636 61.0893C53.173 62.3495 54.2447 64.0287 54.7729 66.0002ZM46.927 69.9223L45.0124 62.7769C44.929 62.4657 44.606 62.2792 44.2947 62.3626L42.4082 62.8681C42.0969 62.9515 41.9104 63.2745 41.9939 63.5857L43.9085 70.7311C43.9919 71.0424 44.3148 71.2289 44.6261 71.1455L46.5127 70.64C46.8239 70.5566 47.0104 70.2336 46.927 69.9223Z" fill="black" fill-opacity="0.1"/>
</g>
<g clip-path="url(#clip7_1306_27153)">
<path d="M87.2286 54.6302C87.6052 54.8618 88.0831 54.7337 88.2977 54.3437L91.5803 48.3327C92.5322 46.5858 91.8389 44.3002 90.011 43.415C88.4198 42.6417 86.5494 43.3585 85.6997 44.9162L85.3616 45.5326L84.7659 45.1709C83.25 44.2426 81.2718 44.557 80.2805 46.0223C79.1443 47.7017 79.6825 50.0289 81.3802 51.0658L87.2286 54.6302ZM100.258 54.6258C99.6433 54.3097 98.8798 54.5458 98.4723 55.1043L95.4287 59.2404C95.0572 59.7489 94.5211 60.1127 93.909 60.2767L88.9494 61.6056C88.5805 61.7045 88.1977 61.4835 88.0989 61.1146C88 60.7457 88.221 60.3629 88.5899 60.2641L91.8726 59.3845C92.5392 59.2059 93.0372 58.5827 92.9698 57.8952C92.8835 57.0197 92.0424 56.4632 91.2249 56.6823L84.5171 58.4796C83.3851 58.7829 82.3954 59.466 81.706 60.4146L80.18 62.5175L77.8574 63.1398C77.4885 63.2387 77.2675 63.6214 77.3664 63.9904L78.4448 68.015C78.5436 68.384 78.9264 68.6049 79.2953 68.5061L94.2537 64.498C94.8616 64.3351 95.3977 63.9713 95.7734 63.4617L100.753 56.6904C101.254 56.0124 101.044 55.0263 100.258 54.6258Z" fill="black" fill-opacity="0.1"/>
</g>
<g clip-path="url(#clip8_1306_27153)">
<path d="M128.181 31.3675C121.577 33.1371 117.752 39.3353 119.499 45.8549C120.412 49.2649 122.603 51.8362 125.43 53.2607C125.918 53.5094 125.892 53.7363 126.545 55.9053C126.592 56.0571 126.674 56.1952 126.786 56.3077C126.898 56.4201 127.036 56.5035 127.188 56.5505C127.339 56.5974 127.5 56.6066 127.656 56.5772C127.812 56.5478 127.958 56.4806 128.082 56.3817C130.283 54.6141 130.292 54.5187 130.746 54.5204C138.509 54.5731 145.106 47.8465 142.892 39.5866C141.145 33.0671 134.786 29.5977 128.181 31.3675Z" fill="black" fill-opacity="0.1"/>
</g>
<g clip-path="url(#clip9_1306_27153)">
<path d="M174.756 31.4243C178.091 30.5308 180.069 27.1042 179.176 23.7697C178.282 20.4352 174.855 18.4568 171.521 19.3503C168.186 20.2437 166.208 23.6704 167.102 27.0049C167.995 30.3394 171.422 32.3178 174.756 31.4243ZM179.686 31.7512L179.851 41.3825L176.623 35.3726L177.424 32.327L172.897 33.5402L175.114 35.777L175.323 42.5958L170.65 34.1726C167.33 35.234 165.383 38.7028 166.294 42.1033L166.82 44.0653C167.155 45.3152 168.441 46.0575 169.69 45.7226L186.292 41.2742C187.542 40.9393 188.285 39.6535 187.95 38.4037L187.424 36.4416C186.513 33.0411 183.092 31.0105 179.686 31.7512Z" fill="black" fill-opacity="0.1"/>
</g>
<g clip-path="url(#clip10_1306_27153)">
<path d="M229.924 18.6236L222.324 12.244C221.032 11.1613 219.353 10.8474 217.843 11.2518C216.896 11.5057 216.011 12.0438 215.33 12.8554C214.659 13.6553 214.286 14.6091 214.195 15.5771C213.407 13.1236 210.843 11.6896 208.328 12.3636C205.733 13.059 204.195 15.7222 204.891 18.3172L207.407 27.7082C208.102 30.3033 210.765 31.8409 213.36 31.1455C215.956 30.4502 217.493 27.787 216.798 25.1919L215.123 18.941C215.358 19.2645 215.621 19.5759 215.94 19.8453L223.545 26.2239C224.833 27.3076 226.512 27.6216 228.025 27.216C228.977 26.961 229.858 26.424 230.539 25.6124C232.3 23.514 232.023 20.3844 229.924 18.6236ZM212.856 21.2154L208.832 22.2938L207.574 17.5983C207.276 16.4873 207.936 15.3444 209.047 15.0467C210.158 14.7491 211.301 15.4089 211.598 16.5199L212.856 21.2154ZM221.528 20.9095L217.725 17.7181C217.278 17.3434 217.002 16.8154 216.955 16.235C216.903 15.6558 217.083 15.0863 217.457 14.6399C217.746 14.2929 218.131 14.0506 218.562 13.9349C219.254 13.7496 219.99 13.912 220.535 14.3723L224.338 17.5637L221.528 20.9095Z" fill="black" fill-opacity="0.1"/>
</g>
<g clip-path="url(#clip11_1306_27153)">
<path d="M272.014 1.05043C272.45 0.9336 272.659 0.437372 272.441 0.0420248L270.356 -3.71306C270.201 -3.9905 269.876 -4.12823 269.57 -4.04622L265.424 -2.93523L267.935 2.14344L272.014 1.05043ZM258.502 -1.08059L254.289 0.0483752L254.654 5.70221L259.94 4.28567L258.502 -1.08059ZM264.057 -2.56902L259.844 -1.44006L261.282 3.9262L266.568 2.50966L264.057 -2.56902ZM249.208 7.16143L253.287 6.06842L252.922 0.414586L248.776 1.52558C248.47 1.60758 248.258 1.88909 248.262 2.20697L248.334 6.50127C248.343 6.95278 248.772 7.27826 249.208 7.16143ZM272.733 3.73355L271.895 3.95822L271.703 2.57173L250.238 8.32326L250.765 9.61989L249.927 9.84456C249.558 9.94341 249.337 10.3261 249.436 10.6951L249.795 12.0366C249.894 12.4056 250.277 12.6265 250.646 12.5277L251.819 12.2131L254.455 18.6963L254.635 19.3671C254.734 19.736 255.117 19.957 255.486 19.8581L256.827 19.4987C257.196 19.3998 257.417 19.0171 257.318 18.6481L257.138 17.9774L270.554 14.3826L270.734 15.0534C270.833 15.4224 271.215 15.6433 271.584 15.5445L272.926 15.185C273.295 15.0862 273.516 14.7034 273.417 14.3345L273.237 13.6637L272.278 6.73122L273.452 6.41668C273.821 6.31783 274.042 5.93509 273.943 5.56616L273.584 4.2246C273.485 3.85567 273.102 3.6347 272.733 3.73355Z" fill="black" fill-opacity="0.1"/>
</g>
<g clip-path="url(#clip12_1306_27153)">
<path d="M302.048 -15.2199C295.443 -13.4503 291.619 -7.25206 293.365 -0.732531C294.279 2.67745 296.47 5.24882 299.296 6.67327C299.785 6.92195 299.759 7.14885 300.412 9.31792C300.458 9.4697 300.541 9.60783 300.653 9.72029C300.765 9.83274 300.903 9.91609 301.054 9.96306C301.206 10.01 301.367 10.0192 301.523 9.98979C301.678 9.96037 301.825 9.89324 301.949 9.79426C304.15 8.02667 304.159 7.9313 304.613 7.93302C312.376 7.98566 318.972 1.25909 316.759 -7.0008C315.012 -13.5203 308.653 -16.9897 302.048 -15.2199Z" fill="black" fill-opacity="0.1"/>
</g>
<g clip-path="url(#clip13_1306_27153)">
<path d="M9.42814 109.775C2.82372 111.544 -1.00122 117.743 0.745683 124.262C1.65939 127.672 3.85024 130.244 6.67655 131.668C7.16528 131.917 7.13913 132.144 7.79211 134.313C7.83843 134.464 7.92118 134.603 8.03315 134.715C8.14512 134.827 8.2829 134.911 8.43447 134.958C8.58605 135.005 8.74682 135.014 8.90275 134.984C9.05869 134.955 9.20506 134.888 9.3291 134.789C11.5301 133.021 11.5389 132.926 11.9928 132.928C19.7558 132.98 26.3524 126.254 24.1392 117.994C22.3923 111.474 16.033 108.005 9.42814 109.775Z" fill="black" fill-opacity="0.1"/>
</g>
<g clip-path="url(#clip14_1306_27153)">
<path d="M56.003 109.832C59.3375 108.938 61.3159 105.511 60.4224 102.177C59.5289 98.8424 56.1023 96.8641 52.7678 97.7575C49.4332 98.651 47.4549 102.078 48.3483 105.412C49.2418 108.747 52.6685 110.725 56.003 109.832ZM60.9333 110.158L61.0977 119.79L57.8697 113.78L58.6713 110.734L54.1435 111.947L56.3605 114.184L56.5699 121.003L51.8966 112.58C48.5768 113.641 46.6299 117.11 47.5411 120.511L48.0668 122.473C48.4017 123.722 49.6875 124.465 50.9373 124.13L67.5392 119.681C68.789 119.347 69.5313 118.061 69.1964 116.811L68.6707 114.849C67.7595 111.448 64.3391 109.418 60.9333 110.158Z" fill="black" fill-opacity="0.1"/>
</g>
<g clip-path="url(#clip15_1306_27153)">
<path d="M109.886 97.82C111.339 103.239 108.124 108.807 102.705 110.259C97.2857 111.711 91.7182 108.496 90.2661 103.077C88.9518 98.1722 91.4611 93.1424 95.97 91.1608L95.534 89.5336L94.2134 89.8875C93.9021 89.9709 93.5792 89.7844 93.4958 89.4731L92.9903 87.5866C92.9068 87.2753 93.0933 86.9524 93.4046 86.8689L99.0643 85.3524C99.3756 85.269 99.6985 85.4555 99.7819 85.7667L100.287 87.6533C100.371 87.9646 100.184 88.2875 99.8731 88.3709L98.5525 88.7248L98.9885 90.352C100.83 90.1516 102.643 90.4646 104.254 91.1955L105.204 89.551C105.366 89.2699 105.725 89.1739 106.006 89.3361L107.698 90.3132C107.979 90.4755 108.075 90.834 107.913 91.115L106.898 92.8732L106.877 92.9091C108.286 94.1693 109.358 95.8485 109.886 97.82ZM102.04 101.742L100.126 94.5968C100.042 94.2855 99.7196 94.099 99.4083 94.1824L97.5217 94.6879C97.2104 94.7714 97.024 95.0943 97.1074 95.4056L99.022 102.551C99.1054 102.862 99.4283 103.049 99.7396 102.965L101.626 102.46C101.937 102.376 102.124 102.053 102.04 101.742Z" fill="black" fill-opacity="0.1"/>
</g>
<g clip-path="url(#clip16_1306_27153)">
<path d="M148.433 75.3592C149.059 75.1917 149.43 74.5491 149.262 73.9239L149.06 73.1693C148.892 72.5441 148.25 72.1731 147.625 72.3406L131.777 76.5869C131.152 76.7544 130.781 77.397 130.949 78.0221L131.151 78.7768C131.319 79.4019 131.961 79.7729 132.586 79.6054C133.736 83.8957 137.112 86.8718 140.712 87.1338C137.725 89.1607 136.29 93.4262 137.439 97.7165C136.814 97.884 136.443 98.5266 136.61 99.1518L136.813 99.9064C136.98 100.532 137.623 100.903 138.248 100.735L154.095 96.4888C154.72 96.3213 155.091 95.6787 154.924 95.0535L154.722 94.2989C154.554 93.6737 153.912 93.3028 153.286 93.4703C152.137 89.18 148.76 86.2039 145.16 85.9419C148.147 83.9149 149.583 79.6495 148.433 75.3592ZM142.33 84.274C139.604 85.0042 136.584 82.451 135.605 78.7966L145.415 76.168C146.4 79.8442 145.041 83.5474 142.33 84.274Z" fill="black" fill-opacity="0.1"/>
</g>
<g clip-path="url(#clip17_1306_27153)">
<path d="M185.809 74.8031C186.185 75.0347 186.663 74.9066 186.878 74.5166L190.161 68.5056C191.112 66.7587 190.419 64.4732 188.591 63.5879C187 62.8146 185.13 63.5314 184.28 65.0892L183.942 65.7055L183.346 65.3439C181.83 64.4155 179.852 64.7299 178.861 66.1952C177.725 67.8746 178.263 70.2018 179.96 71.2387L185.809 74.8031ZM198.838 74.7987C198.224 74.4826 197.46 74.7187 197.052 75.2772L194.009 79.4134C193.637 79.9218 193.101 80.2856 192.489 80.4496L187.53 81.7785C187.161 81.8774 186.778 81.6564 186.679 81.2875C186.58 80.9186 186.801 80.5358 187.17 80.437L190.453 79.5574C191.119 79.3788 191.617 78.7556 191.55 78.0682C191.464 77.1926 190.623 76.6361 189.805 76.8552L183.097 78.6525C181.965 78.9558 180.976 79.6389 180.286 80.5875L178.76 82.6904L176.438 83.3128C176.069 83.4116 175.848 83.7943 175.947 84.1633L177.025 88.188C177.124 88.5569 177.507 88.7779 177.875 88.679L192.834 84.6709C193.442 84.508 193.978 84.1442 194.354 83.6346L199.333 76.8633C199.835 76.1853 199.624 75.1992 198.838 74.7987Z" fill="black" fill-opacity="0.1"/>
</g>
<g clip-path="url(#clip18_1306_27153)">
<path d="M240.194 56.164C240.63 56.0471 240.839 55.5509 240.621 55.1556L238.536 51.4005C238.381 51.123 238.056 50.9853 237.75 51.0673L233.604 52.1783L236.115 57.257L240.194 56.164ZM226.683 54.0329L222.469 55.1619L222.834 60.8157L228.12 59.3992L226.683 54.0329ZM232.237 52.5445L228.024 53.6735L229.462 59.0397L234.749 57.6232L232.237 52.5445ZM217.388 62.275L221.467 61.1819L221.102 55.5281L216.956 56.6391C216.65 56.7211 216.438 57.0026 216.442 57.3205L216.515 61.6148C216.523 62.0663 216.952 62.3918 217.388 62.275ZM240.913 58.8471L240.075 59.0717L239.883 57.6853L218.418 63.4368L218.945 64.7334L218.107 64.9581C217.738 65.0569 217.517 65.4397 217.616 65.8086L217.975 67.1502C218.074 67.5191 218.457 67.7401 218.826 67.6412L220 67.3267L222.635 73.8098L222.815 74.4806C222.914 74.8495 223.297 75.0705 223.666 74.9717L225.007 74.6122C225.376 74.5133 225.597 74.1306 225.498 73.7617L225.319 73.0909L238.734 69.4962L238.914 70.167C239.013 70.5359 239.396 70.7569 239.764 70.658L241.106 70.2985C241.475 70.1997 241.696 69.8169 241.597 69.448L241.417 68.7772L240.458 61.8447L241.632 61.5302C242.001 61.4314 242.222 61.0486 242.123 60.6797L241.764 59.3381C241.665 58.9692 241.282 58.7482 240.913 58.8471Z" fill="black" fill-opacity="0.1"/>
</g>
<g clip-path="url(#clip19_1306_27153)">
<path d="M278.833 40.4186C279.459 40.2511 279.83 39.6085 279.662 38.9834L279.46 38.2287C279.292 37.6036 278.65 37.2326 278.025 37.4001L262.177 41.6463C261.552 41.8139 261.181 42.4564 261.349 43.0816L261.551 43.8362C261.718 44.4614 262.361 44.8324 262.986 44.6649C264.136 48.9552 267.512 51.9312 271.112 52.1933C268.125 54.2202 266.689 58.4857 267.839 62.776C267.214 62.9435 266.843 63.5861 267.01 64.2112L267.213 64.9658C267.38 65.591 268.023 65.962 268.648 65.7945L284.495 61.5482C285.12 61.3807 285.491 60.7382 285.324 60.113L285.122 59.3584C284.954 58.7332 284.311 58.3622 283.686 58.5297C282.537 54.2394 279.16 51.2634 275.56 51.0013C278.547 48.9744 279.983 44.7089 278.833 40.4186ZM272.73 49.3334C270.004 50.0637 266.984 47.5104 266.005 43.8561L275.815 41.2274C276.8 44.9036 275.441 48.6069 272.73 49.3334Z" fill="black" fill-opacity="0.1"/>
</g>
<g clip-path="url(#clip20_1306_27153)">
<path d="M35.8848 163.791L28.2846 157.412C26.9925 156.329 25.3132 156.015 23.8039 156.419C22.8565 156.673 21.9717 157.211 21.2905 158.023C20.6196 158.823 20.2461 159.777 20.155 160.745C19.3673 158.291 16.8037 156.857 14.2883 157.531C11.6932 158.227 10.1556 160.89 10.851 163.485L13.3673 172.876C14.0626 175.471 16.7258 177.009 19.3209 176.313C21.916 175.618 23.4536 172.955 22.7582 170.36L21.0833 164.109C21.3183 164.432 21.5815 164.744 21.9008 165.013L29.5052 171.392C30.7931 172.475 32.4724 172.789 33.9859 172.384C34.9375 172.129 35.8181 171.592 36.4993 170.78C38.2602 168.682 37.9833 165.552 35.8848 163.791ZM18.8169 166.383L14.7923 167.461L13.5341 162.766C13.2364 161.655 13.8963 160.512 15.0072 160.214C16.1182 159.917 17.2611 160.577 17.5588 161.688L18.8169 166.383ZM27.4881 166.077L23.6853 162.886C23.2389 162.511 22.9626 161.983 22.915 161.403C22.8631 160.823 23.043 160.254 23.4177 159.808C23.7067 159.461 24.0911 159.218 24.5229 159.103C25.2146 158.917 25.9501 159.08 26.4959 159.54L30.2986 162.731L27.4881 166.077Z" fill="black" fill-opacity="0.1"/>
</g>
<g clip-path="url(#clip21_1306_27153)">
<path d="M78.0666 152.934C79.5187 158.353 76.3043 163.92 70.8851 165.372C65.4659 166.824 59.8983 163.61 58.4463 158.191C57.132 153.286 59.6412 148.256 64.1502 146.274L63.7142 144.647L62.3936 145.001C62.0823 145.084 61.7593 144.898 61.6759 144.587L61.1704 142.7C61.087 142.389 61.2735 142.066 61.5848 141.983L67.2445 140.466C67.5558 140.383 67.8787 140.569 67.9621 140.88L68.4676 142.767C68.551 143.078 68.3646 143.401 68.0533 143.485L66.7327 143.838L67.1687 145.466C69.0106 145.265 70.8233 145.578 72.4346 146.309L73.3841 144.665C73.5464 144.383 73.9048 144.287 74.1859 144.45L75.8783 145.427C76.1594 145.589 76.2554 145.948 76.0931 146.229L75.078 147.987L75.0573 148.023C76.4667 149.283 77.5384 150.962 78.0666 152.934ZM70.2207 156.856L68.3061 149.71C68.2227 149.399 67.8997 149.213 67.5884 149.296L65.7019 149.802C65.3906 149.885 65.2041 150.208 65.2876 150.519L67.2022 157.665C67.2856 157.976 67.6085 158.162 67.9198 158.079L69.8064 157.573C70.1176 157.49 70.3041 157.167 70.2207 156.856Z" fill="black" fill-opacity="0.1"/>
</g>
<g clip-path="url(#clip22_1306_27153)">
<path d="M110.522 141.564C110.899 141.795 111.377 141.667 111.591 141.277L114.874 135.266C115.826 133.519 115.133 131.234 113.305 130.348C111.714 129.575 109.843 130.292 108.993 131.85L108.655 132.466L108.06 132.104C106.544 131.176 104.565 131.49 103.574 132.956C102.438 134.635 102.976 136.962 104.674 137.999L110.522 141.564ZM123.552 141.559C122.937 141.243 122.174 141.479 121.766 142.038L118.722 146.174C118.351 146.682 117.815 147.046 117.203 147.21L112.243 148.539C111.874 148.638 111.491 148.417 111.393 148.048C111.294 147.679 111.515 147.296 111.884 147.197L115.166 146.318C115.833 146.139 116.331 145.516 116.264 144.829C116.177 143.953 115.336 143.397 114.519 143.616L107.811 145.413C106.679 145.716 105.689 146.399 105 147.348L103.474 149.451L101.151 150.073C100.782 150.172 100.561 150.555 100.66 150.924L101.738 154.948C101.837 155.317 102.22 155.538 102.589 155.44L117.547 151.431C118.155 151.269 118.691 150.905 119.067 150.395L124.047 143.624C124.548 142.946 124.338 141.96 123.552 141.559Z" fill="black" fill-opacity="0.1"/>
</g>
<g clip-path="url(#clip23_1306_27153)">
<path d="M151.475 118.301C144.871 120.07 141.046 126.269 142.792 132.788C143.706 136.198 145.897 138.77 148.723 140.194C149.212 140.443 149.186 140.67 149.839 142.839C149.885 142.99 149.968 143.129 150.08 143.241C150.192 143.353 150.33 143.437 150.481 143.484C150.633 143.531 150.794 143.54 150.95 143.511C151.106 143.481 151.252 143.414 151.376 143.315C153.577 141.547 153.586 141.452 154.04 141.454C161.803 141.506 168.399 134.78 166.186 126.52C164.439 120 158.08 116.531 151.475 118.301Z" fill="black" fill-opacity="0.1"/>
</g>
<g clip-path="url(#clip24_1306_27153)">
<path d="M198.05 118.358C201.384 117.464 203.363 114.038 202.469 110.703C201.576 107.369 198.149 105.39 194.815 106.284C191.48 107.177 189.502 110.604 190.395 113.938C191.289 117.273 194.715 119.251 198.05 118.358ZM202.98 118.685L203.145 128.316L199.917 122.306L200.718 119.26L196.19 120.474L198.407 122.71L198.617 129.529L193.944 121.106C190.624 122.167 188.677 125.636 189.588 129.037L190.114 130.999C190.449 132.249 191.734 132.991 192.984 132.656L209.586 128.208C210.836 127.873 211.578 126.587 211.243 125.337L210.718 123.375C209.806 119.974 206.386 117.944 202.98 118.685Z" fill="black" fill-opacity="0.1"/>
</g>
<g clip-path="url(#clip25_1306_27153)">
<path d="M253.218 105.557L245.618 99.1773C244.326 98.0947 242.646 97.7807 241.137 98.1851C240.19 98.439 239.305 98.9772 238.624 99.7888C237.953 100.589 237.579 101.542 237.488 102.51C236.701 100.057 234.137 98.623 231.622 99.297C229.026 99.9923 227.489 102.655 228.184 105.251L230.701 114.642C231.396 117.237 234.059 118.774 236.654 118.079C239.249 117.384 240.787 114.72 240.091 112.125L238.417 105.874C238.652 106.198 238.915 106.509 239.234 106.779L246.838 113.157C248.126 114.241 249.806 114.555 251.319 114.149C252.271 113.894 253.151 113.357 253.833 112.546C255.593 110.447 255.317 107.318 253.218 105.557ZM236.15 108.149L232.126 109.227L230.867 104.532C230.57 103.421 231.23 102.278 232.341 101.98C233.451 101.682 234.594 102.342 234.892 103.453L236.15 108.149ZM244.821 107.843L241.019 104.651C240.572 104.277 240.296 103.749 240.248 103.168C240.196 102.589 240.376 102.02 240.751 101.573C241.04 101.226 241.424 100.984 241.856 100.868C242.548 100.683 243.283 100.845 243.829 101.306L247.632 104.497L244.821 107.843Z" fill="black" fill-opacity="0.1"/>
</g>
<g clip-path="url(#clip26_1306_27153)">
<path d="M295.308 87.9838C295.744 87.8669 295.953 87.3707 295.734 86.9754L293.65 83.2203C293.494 82.9428 293.17 82.8051 292.864 82.8871L288.718 83.9981L291.229 89.0768L295.308 87.9838ZM281.796 85.8528L277.583 86.9817L277.947 92.6356L283.234 91.219L281.796 85.8528ZM287.351 84.3643L283.138 85.4933L284.575 90.8595L289.862 89.443L287.351 84.3643ZM272.501 94.0948L276.581 93.0018L276.216 87.3479L272.07 88.4589C271.764 88.5409 271.552 88.8224 271.556 89.1403L271.628 93.4346C271.637 93.8861 272.065 94.2116 272.501 94.0948ZM296.027 90.6669L295.188 90.8916L294.997 89.5051L273.532 95.2566L274.059 96.5532L273.22 96.7779C272.851 96.8768 272.63 97.2595 272.729 97.6284L273.089 98.97C273.188 99.3389 273.57 99.5599 273.939 99.461L275.113 99.1465L277.749 105.63L277.929 106.3C278.028 106.669 278.41 106.89 278.779 106.791L280.121 106.432C280.49 106.333 280.711 105.95 280.612 105.581L280.432 104.911L293.848 101.316L294.028 101.987C294.126 102.356 294.509 102.577 294.878 102.478L296.22 102.118C296.589 102.02 296.809 101.637 296.711 101.268L296.531 100.597L295.572 93.6646L296.746 93.35C297.115 93.2512 297.336 92.8684 297.237 92.4995L296.877 91.158C296.779 90.789 296.396 90.568 296.027 90.6669Z" fill="black" fill-opacity="0.1"/>
</g>
<g clip-path="url(#clip27_1306_27153)">
<path d="M171.727 162.293C172.352 162.125 172.723 161.482 172.556 160.857L172.354 160.103C172.186 159.478 171.544 159.107 170.918 159.274L155.071 163.52C154.446 163.688 154.075 164.33 154.243 164.956L154.445 165.71C154.612 166.335 155.255 166.706 155.88 166.539C157.03 170.829 160.406 173.805 164.006 174.067C161.019 176.094 159.583 180.36 160.733 184.65C160.108 184.817 159.737 185.46 159.904 186.085L160.106 186.84C160.274 187.465 160.916 187.836 161.542 187.668L177.389 183.422C178.014 183.255 178.385 182.612 178.217 181.987L178.015 181.232C177.848 180.607 177.205 180.236 176.58 180.404C175.43 176.113 172.054 173.137 168.454 172.875C171.441 170.848 172.877 166.583 171.727 162.293ZM165.623 171.207C162.898 171.938 159.878 169.384 158.898 165.73L168.709 163.101C169.694 166.778 168.335 170.481 165.623 171.207Z" fill="black" fill-opacity="0.1"/>
</g>
<g clip-path="url(#clip28_1306_27153)">
<path d="M209.103 161.737C209.479 161.968 209.957 161.84 210.172 161.45L213.454 155.439C214.406 153.692 213.713 151.407 211.885 150.521C210.294 149.748 208.423 150.465 207.574 152.023L207.235 152.639L206.64 152.277C205.124 151.349 203.146 151.663 202.154 153.129C201.018 154.808 201.556 157.135 203.254 158.172L209.103 161.737ZM222.132 161.732C221.517 161.416 220.754 161.652 220.346 162.211L217.303 166.347C216.931 166.855 216.395 167.219 215.783 167.383L210.823 168.712C210.454 168.811 210.072 168.59 209.973 168.221C209.874 167.852 210.095 167.469 210.464 167.37L213.746 166.491C214.413 166.312 214.911 165.689 214.844 165.002C214.757 164.126 213.916 163.57 213.099 163.789L206.391 165.586C205.259 165.889 204.269 166.572 203.58 167.521L202.054 169.624L199.731 170.246C199.362 170.345 199.141 170.728 199.24 171.097L200.319 175.121C200.418 175.49 200.8 175.711 201.169 175.612L216.128 171.604C216.736 171.441 217.272 171.078 217.647 170.568L222.627 163.797C223.128 163.119 222.918 162.133 222.132 161.732Z" fill="black" fill-opacity="0.1"/>
</g>
<g clip-path="url(#clip29_1306_27153)">
<path d="M263.488 143.097C263.924 142.981 264.133 142.484 263.914 142.089L261.83 138.334C261.675 138.056 261.35 137.919 261.044 138.001L256.898 139.112L259.409 144.19L263.488 143.097ZM249.976 140.966L245.763 142.095L246.128 147.749L251.414 146.333L249.976 140.966ZM255.531 139.478L251.318 140.607L252.756 145.973L258.042 144.557L255.531 139.478ZM240.682 149.208L244.761 148.115L244.396 142.462L240.25 143.573C239.944 143.655 239.732 143.936 239.736 144.254L239.808 148.548C239.817 149 240.246 149.325 240.682 149.208ZM264.207 145.78L263.369 146.005L263.177 144.619L241.712 150.37L242.239 151.667L241.401 151.891C241.032 151.99 240.811 152.373 240.909 152.742L241.269 154.084C241.368 154.453 241.751 154.673 242.119 154.575L243.293 154.26L245.929 160.743L246.109 161.414C246.208 161.783 246.591 162.004 246.959 161.905L248.301 161.546C248.67 161.447 248.891 161.064 248.792 160.695L248.612 160.024L262.028 156.43L262.208 157.1C262.307 157.469 262.689 157.69 263.058 157.591L264.4 157.232C264.769 157.133 264.99 156.75 264.891 156.381L264.711 155.711L263.752 148.778L264.926 148.464C265.295 148.365 265.516 147.982 265.417 147.613L265.058 146.272C264.959 145.903 264.576 145.682 264.207 145.78Z" fill="black" fill-opacity="0.1"/>
</g>
<g clip-path="url(#clip30_1306_27153)">
<path d="M302.127 127.352C302.752 127.185 303.123 126.542 302.956 125.917L302.754 125.162C302.586 124.537 301.944 124.166 301.318 124.334L285.471 128.58C284.846 128.747 284.475 129.39 284.642 130.015L284.845 130.77C285.012 131.395 285.655 131.766 286.28 131.598C287.43 135.889 290.806 138.865 294.406 139.127C291.419 141.154 289.983 145.419 291.133 149.709C290.508 149.877 290.137 150.519 290.304 151.145L290.506 151.899C290.674 152.524 291.316 152.895 291.942 152.728L307.789 148.482C308.414 148.314 308.785 147.672 308.617 147.046L308.415 146.292C308.248 145.667 307.605 145.296 306.98 145.463C305.83 141.173 302.454 138.197 298.854 137.935C301.841 135.908 303.277 131.642 302.127 127.352ZM296.023 136.267C293.298 136.997 290.278 134.444 289.298 130.789L299.109 128.161C300.094 131.837 298.735 135.54 296.023 136.267Z" fill="black" fill-opacity="0.1"/>
</g>
<defs>
<clipPath id="clip0_1306_27153">
<rect width="25" height="25" fill="white" transform="translate(-26.0667 25.7063) rotate(-15)"/>
</clipPath>
<clipPath id="clip1_1306_27153">
<rect width="25" height="25" fill="white" transform="translate(17.4 14.0594) rotate(-15)"/>
</clipPath>
<clipPath id="clip2_1306_27153">
<rect width="25" height="25" fill="white" transform="translate(60.8666 2.4126) rotate(-15)"/>
</clipPath>
<clipPath id="clip3_1306_27153">
<rect width="25" height="25" fill="white" transform="translate(104.333 -9.23431) rotate(-15)"/>
</clipPath>
<clipPath id="clip4_1306_27153">
<rect width="25" height="25" fill="white" transform="translate(147.8 -20.8812) rotate(-15)"/>
</clipPath>
<clipPath id="clip5_1306_27153">
<rect width="25" height="25" fill="white" transform="translate(-14.4198 69.173) rotate(-15)"/>
</clipPath>
<clipPath id="clip6_1306_27153">
<rect width="25" height="25" fill="white" transform="translate(29.0468 57.5261) rotate(-15)"/>
</clipPath>
<clipPath id="clip7_1306_27153">
<rect width="25" height="25" fill="white" transform="translate(72.5135 45.8793) rotate(-15)"/>
</clipPath>
<clipPath id="clip8_1306_27153">
<rect width="25" height="25" fill="white" transform="translate(115.98 34.2324) rotate(-15)"/>
</clipPath>
<clipPath id="clip9_1306_27153">
<rect width="25" height="25" fill="white" transform="translate(159.447 22.5855) rotate(-15)"/>
</clipPath>
<clipPath id="clip10_1306_27153">
<rect width="25" height="25" fill="white" transform="translate(202.913 10.9387) rotate(-15)"/>
</clipPath>
<clipPath id="clip11_1306_27153">
<rect width="25" height="25" fill="white" transform="translate(246.38 -0.708191) rotate(-15)"/>
</clipPath>
<clipPath id="clip12_1306_27153">
<rect width="25" height="25" fill="white" transform="translate(289.847 -12.355) rotate(-15)"/>
</clipPath>
<clipPath id="clip13_1306_27153">
<rect width="25" height="25" fill="white" transform="translate(-2.77295 112.64) rotate(-15)"/>
</clipPath>
<clipPath id="clip14_1306_27153">
<rect width="25" height="25" fill="white" transform="translate(40.6937 100.993) rotate(-15)"/>
</clipPath>
<clipPath id="clip15_1306_27153">
<rect width="25" height="25" fill="white" transform="translate(84.1603 89.3459) rotate(-15)"/>
</clipPath>
<clipPath id="clip16_1306_27153">
<rect width="25" height="25" fill="white" transform="translate(127.627 77.699) rotate(-15)"/>
</clipPath>
<clipPath id="clip17_1306_27153">
<rect width="25" height="25" fill="white" transform="translate(171.094 66.0522) rotate(-15)"/>
</clipPath>
<clipPath id="clip18_1306_27153">
<rect width="25" height="25" fill="white" transform="translate(214.56 54.4053) rotate(-15)"/>
</clipPath>
<clipPath id="clip19_1306_27153">
<rect width="25" height="25" fill="white" transform="translate(258.027 42.7585) rotate(-15)"/>
</clipPath>
<clipPath id="clip20_1306_27153">
<rect width="25" height="25" fill="white" transform="translate(8.8739 156.106) rotate(-15)"/>
</clipPath>
<clipPath id="clip21_1306_27153">
<rect width="25" height="25" fill="white" transform="translate(52.3405 144.459) rotate(-15)"/>
</clipPath>
<clipPath id="clip22_1306_27153">
<rect width="25" height="25" fill="white" transform="translate(95.8072 132.813) rotate(-15)"/>
</clipPath>
<clipPath id="clip23_1306_27153">
<rect width="25" height="25" fill="white" transform="translate(139.274 121.166) rotate(-15)"/>
</clipPath>
<clipPath id="clip24_1306_27153">
<rect width="25" height="25" fill="white" transform="translate(182.741 109.519) rotate(-15)"/>
</clipPath>
<clipPath id="clip25_1306_27153">
<rect width="25" height="25" fill="white" transform="translate(226.207 97.872) rotate(-15)"/>
</clipPath>
<clipPath id="clip26_1306_27153">
<rect width="25" height="25" fill="white" transform="translate(269.674 86.2252) rotate(-15)"/>
</clipPath>
<clipPath id="clip27_1306_27153">
<rect width="25" height="25" fill="white" transform="translate(150.921 164.632) rotate(-15)"/>
</clipPath>
<clipPath id="clip28_1306_27153">
<rect width="25" height="25" fill="white" transform="translate(194.387 152.986) rotate(-15)"/>
</clipPath>
<clipPath id="clip29_1306_27153">
<rect width="25" height="25" fill="white" transform="translate(237.854 141.339) rotate(-15)"/>
</clipPath>
<clipPath id="clip30_1306_27153">
<rect width="25" height="25" fill="white" transform="translate(281.321 129.692) rotate(-15)"/>
</clipPath>
</defs>
</svg>
