<svg width="133.708344" height="50.001099" viewBox="0 0 133.708 50.0011" fill="none" xmlns="http://www.w3.org/2000/svg" xmlns:xlink="http://www.w3.org/1999/xlink">
	<desc>
			Created with Pixso.
	</desc>
	<defs/>
	<circle id="Ellipse 16" cx="24.252274" cy="24.253540" r="21.765909" fill="#B9CCF5" fill-opacity="1.000000"/>
	<circle id="Ellipse 17" cx="24.253448" cy="24.253418" r="20.253441" stroke="#2E66E2" stroke-opacity="1.000000" stroke-width="8.000000"/>
	<path id="Intersect" d="M21.7656 2.62866C32.6151 3.86304 41.0439 13.0742 41.0439 24.2539C41.0439 35.4337 32.6151 44.6448 21.7656 45.8793C10.9162 44.6448 2.4874 35.4337 2.4874 24.2539C2.4874 13.0742 10.9162 3.86304 21.7656 2.62866Z" clip-rule="evenodd" fill="#5C88E8" fill-opacity="1.000000" fill-rule="evenodd"/>
	<path id="Intersect" d="M46.01 24.32C46.01 28.39 44.89 32.21 42.94 35.47C42.44 34.53 42 33.32 41.6 32.2C40.57 29.37 39.73 27.04 38.4 30.63C37.23 35.61 34.48 38.63 32.65 39.52C31.51 40.08 31.19 38.68 31.3 37.42C31.75 32.18 28.02 27.28 27.05 26.59C26.06 25.89 27.24 24.03 28.05 22.77L28.05 22.77L28.05 22.76C28.14 22.63 28.22 22.51 28.29 22.39C28.7 21.73 29.64 22.08 31.1 22.62C32.4 23.1 34.1 23.73 36.22 23.95C40.73 24.41 42.59 22.24 40.88 21.15C39.31 20.15 38.79 18.89 39.08 16.65C39.13 16.24 39.1 15.78 38.77 15.52C38.09 14.98 37 15.17 35.69 15.39C33.5 15.76 30.71 16.22 28.29 13.53C25.43 10.35 32 8 37.25 6.86C42.57 10.83 46.01 17.17 46.01 24.32ZM2.48 24.32C2.48 20.07 3.7 16.1 5.81 12.75C7.76 16.12 11.32 16.92 13.78 17.48C14.4 17.61 14.95 17.74 15.39 17.88C16.52 18.26 15.63 18.6 14.27 19.12C12.91 19.65 11.08 20.35 10.35 21.45C10.29 21.55 10.3 21.67 10.36 21.78C11.24 23.27 11.21 27.24 7.77 27.83C4.58 29.66 7.22 31.44 10.69 33.77C14.76 36.5 19.98 40 18.31 45.27C9.17 42.68 2.48 34.28 2.48 24.32Z" fill="#F7AD30" fill-opacity="1.000000" fill-rule="evenodd"/>
	<path id="Intersect" d="M31.34 10C33.38 9.06 36.15 8.33 38.5 7.87C37.67 7.15 36.79 6.49 35.85 5.9C33.94 6.37 31.94 6.98 30.3 7.74C28.94 8.36 27.61 9.18 26.89 10.27C26.51 10.86 26.28 11.55 26.37 12.32C26.45 13.08 26.83 13.76 27.37 14.36C29.68 16.93 32.33 17.07 34.44 16.83C34.95 16.77 35.44 16.69 35.88 16.62C36.33 16.54 36.7 16.48 37.04 16.44C37.47 16.4 37.71 16.41 37.85 16.44C37.85 16.46 37.84 16.48 37.84 16.5C37.69 17.72 37.73 18.84 38.13 19.83C38.53 20.82 39.23 21.55 40.13 22.14C39.66 22.5 38.44 22.93 36.35 22.71C34.39 22.51 32.82 21.93 31.52 21.45L31.52 21.45C31.44 21.42 31.36 21.39 31.28 21.36C30.66 21.13 29.97 20.88 29.37 20.81C29.05 20.77 28.66 20.77 28.26 20.91C27.83 21.06 27.48 21.35 27.24 21.73C27.17 21.83 27.11 21.94 27.03 22.06L27.03 22.06L27.03 22.06C26.67 22.63 26.16 23.42 25.83 24.17C25.63 24.62 25.44 25.18 25.43 25.76C25.42 26.4 25.64 27.12 26.32 27.6C26.32 27.6 26.33 27.61 26.35 27.62C26.36 27.63 26.38 27.65 26.41 27.68C26.46 27.73 26.53 27.8 26.61 27.88C26.77 28.06 26.97 28.29 27.19 28.59C27.63 29.17 28.13 29.95 28.6 30.86C29.54 32.71 30.26 35 30.06 37.31C30 38.02 30.03 38.95 30.38 39.69C30.57 40.08 30.9 40.54 31.5 40.77C32.1 41 32.71 40.88 33.19 40.64C35.44 39.55 38.35 36.18 39.59 31C39.63 30.89 39.66 30.8 39.7 30.72C39.86 31.09 40.03 31.54 40.22 32.05C40.29 32.23 40.35 32.41 40.42 32.61C40.82 33.72 41.3 35.02 41.85 36.05C41.95 36.25 42.07 36.45 42.19 36.64C42.74 35.84 43.24 35.01 43.68 34.14C43.37 33.43 43.07 32.62 42.77 31.8L42.77 31.79L42.77 31.78C42.7 31.59 42.63 31.39 42.56 31.2C42.32 30.56 42.08 29.92 41.82 29.39C41.6 28.91 41.26 28.29 40.74 27.92C40.44 27.7 40.02 27.51 39.51 27.57C39.01 27.62 38.64 27.88 38.38 28.13C37.91 28.6 37.55 29.34 37.23 30.2L37.2 30.27L37.18 30.35C36.18 34.62 33.98 37.2 32.53 38.16C32.52 37.97 32.52 37.75 32.54 37.53C32.79 34.59 31.87 31.82 30.82 29.74C30.28 28.69 29.7 27.78 29.18 27.09C28.75 26.52 28.3 26.01 27.93 25.7C27.95 25.59 28 25.41 28.11 25.17C28.35 24.62 28.72 24.04 29.08 23.47C29.11 23.42 29.15 23.36 29.19 23.3C29.44 23.35 29.82 23.47 30.43 23.7C30.51 23.73 30.59 23.76 30.68 23.79C31.98 24.27 33.81 24.95 36.09 25.18C38.51 25.43 40.47 25.01 41.64 24.12C42.22 23.68 42.74 23 42.75 22.13C42.77 21.22 42.22 20.52 41.55 20.1C40.92 19.7 40.61 19.32 40.44 18.9C40.26 18.45 40.18 17.82 40.31 16.81C40.37 16.35 40.43 15.25 39.54 14.55C38.67 13.85 37.57 13.89 36.78 13.97C36.36 14.01 35.92 14.09 35.5 14.16L35.47 14.16C35.02 14.24 34.59 14.31 34.15 14.36C32.44 14.56 30.77 14.42 29.21 12.7C28.91 12.36 28.85 12.15 28.84 12.05C28.83 11.96 28.84 11.84 28.97 11.64C29.28 11.17 30.06 10.59 31.34 10ZM19.87 43.11C19.89 43.91 19.78 44.73 19.52 45.57C18.7 45.39 17.9 45.16 17.12 44.89C17.32 44.27 17.4 43.7 17.38 43.17C17.36 42.25 17.07 41.39 16.56 40.55C15.51 38.81 13.61 37.29 11.55 35.85C11.04 35.5 10.53 35.16 10.03 34.82L9.99 34.8C9.51 34.47 9.03 34.15 8.58 33.84C7.68 33.21 6.81 32.56 6.18 31.89C5.59 31.26 4.96 30.35 5.11 29.24C5.27 28.12 6.14 27.33 7.15 26.76L7.34 26.65L7.55 26.61C8.71 26.41 9.25 25.7 9.48 24.83C9.74 23.85 9.54 22.83 9.29 22.41C9.06 22.01 8.92 21.36 9.31 20.77C9.85 19.95 10.72 19.38 11.49 18.97C11.84 18.79 12.2 18.62 12.55 18.47C11.72 18.27 10.77 18.01 9.81 17.62C8.12 16.93 6.38 15.84 5.1 13.96C5.55 13.13 6.05 12.33 6.6 11.58C7.55 13.57 9.09 14.64 10.74 15.31C11.63 15.67 12.54 15.91 13.41 16.12C13.6 16.16 13.8 16.21 14 16.25L14 16.25C14.64 16.39 15.28 16.54 15.78 16.7C15.96 16.77 16.16 16.84 16.34 16.94C16.5 17.04 16.77 17.22 16.96 17.54C17.19 17.94 17.2 18.41 17.03 18.81C16.89 19.13 16.66 19.33 16.53 19.43C16.27 19.64 15.93 19.8 15.67 19.91C15.39 20.03 15.06 20.16 14.73 20.28L14.71 20.29C14.02 20.55 13.29 20.83 12.65 21.17C12.25 21.38 11.95 21.58 11.73 21.77C12.12 22.82 12.22 24.2 11.89 25.46C11.48 27.03 10.35 28.55 8.22 29.01C7.71 29.33 7.6 29.53 7.58 29.58C7.59 29.62 7.63 29.81 7.99 30.19C8.43 30.65 9.11 31.17 10 31.8C10.44 32.1 10.9 32.41 11.39 32.74L11.39 32.74L11.39 32.74L11.42 32.76C11.91 33.09 12.44 33.44 12.96 33.81C15.04 35.25 17.34 37.03 18.69 39.26C19.38 40.4 19.84 41.68 19.87 43.11ZM40.29 21.99C40.29 21.99 40.28 21.99 40.28 21.99L40.28 21.99L40.29 21.99L40.29 21.99ZM40.31 22.27C40.31 22.27 40.31 22.27 40.31 22.27L40.31 22.27Z" fill="#2E66E2" fill-opacity="1.000000" fill-rule="evenodd"/>
	<path id="Union" d="M10.7346 49.9125L10.4147 49.3792C10.7346 49.9125 10.735 49.9122 10.735 49.9122L10.7354 49.912L10.7367 49.9111L10.7404 49.9089L10.7526 49.9015C10.7628 49.8953 10.7772 49.8864 10.7955 49.8749C10.8321 49.8519 10.8843 49.8187 10.9499 49.7756C11.081 49.6895 11.266 49.5636 11.4869 49.4016C11.9277 49.0784 12.5171 48.6071 13.1087 48.0154C14.2701 46.8541 15.5452 45.1237 15.5452 43.067C15.5452 40.2334 13.2482 37.9364 10.4147 37.9364C7.58112 37.9364 5.28407 40.2334 5.28407 43.067C5.28407 45.1129 6.49055 46.8407 7.63049 48.0098C8.20941 48.6036 8.79483 49.078 9.25322 49.4059C9.48227 49.5698 9.68427 49.7004 9.84253 49.7928C9.92072 49.8385 9.99518 49.8789 10.061 49.91C10.0932 49.9253 10.1322 49.9425 10.1737 49.9573L10.1758 49.958C10.2001 49.9668 10.2961 50.0011 10.4147 50.0011L10.5869 50.0011L10.7346 49.9125Z" clip-rule="evenodd" fill="#F7AD30" fill-opacity="1.000000" fill-rule="evenodd"/>
	<path id="Union" d="M10.7346 49.9125L10.4147 49.3792C10.7339 49.9113 10.7348 49.9124 10.735 49.9122L10.7354 49.912L10.7367 49.9111L10.7404 49.9089L10.7526 49.9015C10.7628 49.8953 10.7772 49.8864 10.7955 49.8749C10.8321 49.8519 10.8843 49.8187 10.9499 49.7756C11.081 49.6895 11.266 49.5636 11.4869 49.4016C11.9277 49.0784 12.5171 48.6071 13.1087 48.0154C14.2701 46.8541 15.5452 45.1237 15.5452 43.067C15.5452 40.2334 13.2482 37.9364 10.4147 37.9364C7.58112 37.9364 5.28407 40.2334 5.28407 43.067C5.28407 45.1129 6.49055 46.8407 7.63049 48.0098C8.20941 48.6036 8.79483 49.078 9.25322 49.4059C9.48227 49.5698 9.68427 49.7004 9.84253 49.7928C9.92072 49.8385 9.99518 49.8789 10.061 49.91C10.0932 49.9253 10.1322 49.9425 10.1737 49.9573L10.1758 49.958C10.2001 49.9668 10.2961 50.0011 10.4147 50.0011L10.5869 50.0011L10.7346 49.9125ZM7.4296 43.067C7.4296 41.4183 8.76605 40.0819 10.4147 40.0819C12.0633 40.0819 13.3997 41.4183 13.3997 43.067C13.3997 44.2502 12.6349 45.4551 11.5916 46.4983C11.1588 46.9312 10.7216 47.2922 10.3656 47.5616C10.0154 47.3009 9.58783 46.944 9.16669 46.5121C8.16827 45.488 7.4296 44.2766 7.4296 43.067Z" clip-rule="evenodd" fill="#2E66E2" fill-opacity="1.000000" fill-rule="evenodd"/>
	<circle id="Ellipse 16" cx="10.259750" cy="43.220825" r="1.243778" fill="#2E66E2" fill-opacity="1.000000"/>
	<path id="Union" d="M8.12967 13.8579C8.88292 12.6838 9.76003 11.5968 10.7425 10.6154C13.2534 8.10706 16.9046 10.3956 16.9046 13.9447C16.9046 15.1229 16.3664 16.2189 15.6218 17.1321C14.6327 18.3452 13.2516 19.2787 11.6863 19.2787C8.68297 19.2787 6.50787 16.3856 8.12967 13.8579ZM6.02206 20.8323C5.33514 20.8323 4.77829 21.389 4.77829 22.076C4.77829 22.7629 5.33514 23.3198 6.02206 23.3198C6.70898 23.3198 7.26585 22.7629 7.26585 22.076C7.26585 21.389 6.70898 20.8323 6.02206 20.8323ZM24.46 43.5327C24.4373 43.5327 24.3645 43.5327 24.3154 43.5327L24.2751 43.5327L24.46 43.5327Z" clip-rule="evenodd" fill="#FFFFFF" fill-opacity="1.000000" fill-rule="evenodd"/>
	<path id="Vector" d="M131.53 32.02C132.98 32.26 133.7 33.04 133.7 34.38C133.7 35.21 133.41 35.84 132.81 36.26C132.22 36.69 131.34 36.9 130.14 36.9L126.22 36.9L126.22 27.42L130.05 27.42C131.09 27.42 131.89 27.63 132.48 28.04C133.06 28.46 133.36 29.05 133.36 29.83C133.36 30.41 133.19 30.88 132.86 31.26C132.55 31.62 132.1 31.88 131.53 32.02ZM126.82 31.84L130.05 31.84C130.92 31.84 131.58 31.68 132.04 31.35C132.52 31.02 132.75 30.53 132.75 29.89C132.75 29.24 132.52 28.76 132.04 28.43C131.58 28.1 130.92 27.93 130.05 27.93L126.82 27.93L126.82 31.84ZM130.16 36.39C131.13 36.39 131.87 36.23 132.35 35.9C132.85 35.57 133.1 35.06 133.1 34.36C133.1 33.67 132.88 33.16 132.42 32.83C131.99 32.5 131.29 32.34 130.34 32.34L126.82 32.34L126.82 36.39L130.16 36.39Z" fill="#000000" fill-opacity="1.000000" fill-rule="evenodd"/>
	<path id="Vector" d="M122.4 27.42L123 27.42L123 36.9L122.4 36.9L122.4 27.42ZM122.69 24.94C122.54 24.94 122.4 24.88 122.27 24.77C122.15 24.65 122.09 24.51 122.09 24.35C122.09 24.18 122.15 24.04 122.26 23.93C122.38 23.81 122.52 23.75 122.69 23.75C122.85 23.75 122.99 23.81 123.11 23.93C123.24 24.04 123.3 24.18 123.3 24.33C123.3 24.49 123.24 24.63 123.11 24.75C122.99 24.88 122.85 24.94 122.69 24.94Z" fill="#000000" fill-opacity="1.000000" fill-rule="evenodd"/>
	<path id="Vector" d="M111.15 27.42L111.75 27.42L111.75 31.86L118.58 31.86L118.58 27.42L119.18 27.42L119.18 36.9L118.58 36.9L118.58 32.39L111.75 32.39L111.75 36.9L111.15 36.9L111.15 27.42Z" fill="#000000" fill-opacity="1.000000" fill-rule="evenodd"/>
	<path id="Vector" d="M104.24 36.95C103.37 36.95 102.57 36.75 101.85 36.35C101.14 35.93 100.59 35.36 100.19 34.63C99.79 33.9 99.58 33.07 99.58 32.15C99.58 31.22 99.79 30.4 100.19 29.66C100.59 28.93 101.14 28.37 101.85 27.97C102.57 27.55 103.37 27.35 104.24 27.35C105.13 27.35 105.93 27.55 106.63 27.97C107.34 28.37 107.89 28.93 108.3 29.66C108.7 30.4 108.9 31.22 108.9 32.15C108.9 33.07 108.7 33.9 108.3 34.63C107.89 35.36 107.34 35.93 106.63 36.35C105.93 36.75 105.13 36.95 104.24 36.95ZM104.24 36.4C105.01 36.4 105.7 36.23 106.31 35.87C106.93 35.51 107.41 35 107.77 34.36C108.12 33.71 108.3 32.98 108.3 32.15C108.3 31.32 108.12 30.59 107.77 29.96C107.41 29.31 106.93 28.81 106.31 28.46C105.7 28.09 105.01 27.91 104.24 27.91C103.48 27.91 102.78 28.09 102.16 28.46C101.55 28.81 101.07 29.31 100.72 29.96C100.36 30.59 100.19 31.32 100.19 32.15C100.19 32.98 100.36 33.71 100.72 34.36C101.07 35 101.55 35.51 102.16 35.87C102.78 36.23 103.48 36.4 104.24 36.4Z" fill="#000000" fill-opacity="1.000000" fill-rule="evenodd"/>
	<path id="Vector" d="M97.37 27.42L97.37 35.98C97.37 37.52 97 38.65 96.26 39.38C95.52 40.12 94.4 40.49 92.9 40.49C92.02 40.49 91.21 40.36 90.45 40.09C89.7 39.82 89.09 39.45 88.64 38.96L88.99 38.5C89.48 38.97 90.05 39.32 90.71 39.56C91.38 39.82 92.1 39.95 92.88 39.95C94.21 39.95 95.19 39.63 95.82 39C96.45 38.38 96.77 37.4 96.77 36.06L96.77 34.05C96.42 34.83 95.88 35.44 95.15 35.89C94.42 36.34 93.58 36.57 92.64 36.57C91.75 36.57 90.95 36.37 90.23 35.98C89.53 35.58 88.97 35.03 88.55 34.34C88.15 33.63 87.95 32.84 87.95 31.95C87.95 31.06 88.15 30.27 88.55 29.57C88.97 28.87 89.53 28.32 90.23 27.93C90.95 27.54 91.75 27.35 92.64 27.35C93.58 27.35 94.42 27.57 95.15 28.02C95.89 28.47 96.44 29.09 96.79 29.88L96.79 27.42L97.37 27.42ZM92.66 36.02C93.44 36.02 94.14 35.85 94.76 35.51C95.4 35.16 95.89 34.67 96.24 34.05C96.61 33.43 96.79 32.73 96.79 31.95C96.79 31.17 96.61 30.47 96.24 29.87C95.89 29.24 95.4 28.76 94.76 28.42C94.14 28.08 93.44 27.91 92.66 27.91C91.88 27.91 91.18 28.08 90.54 28.42C89.92 28.76 89.44 29.24 89.08 29.87C88.73 30.47 88.55 31.17 88.55 31.95C88.55 32.74 88.73 33.44 89.08 34.07C89.44 34.67 89.92 35.16 90.54 35.51C91.18 35.85 91.88 36.02 92.66 36.02Z" fill="#000000" fill-opacity="1.000000" fill-rule="evenodd"/>
	<path id="Vector" d="M82.09 27.35C82.98 27.35 83.78 27.55 84.49 27.97C85.2 28.38 85.76 28.95 86.15 29.68C86.55 30.41 86.75 31.24 86.75 32.17C86.75 33.08 86.55 33.9 86.15 34.63C85.76 35.36 85.21 35.93 84.5 36.35C83.81 36.75 83.02 36.95 82.13 36.95C81.2 36.95 80.39 36.73 79.68 36.29C78.99 35.84 78.46 35.21 78.11 34.39L78.11 40.44L77.49 40.44L77.49 32.17C77.49 31.24 77.69 30.41 78.08 29.68C78.48 28.95 79.02 28.38 79.72 27.97C80.41 27.55 81.2 27.35 82.09 27.35ZM82.09 36.4C82.87 36.4 83.57 36.23 84.17 35.87C84.8 35.51 85.28 35 85.62 34.36C85.97 33.71 86.15 32.98 86.15 32.17C86.15 31.35 85.97 30.62 85.62 29.98C85.28 29.33 84.8 28.82 84.17 28.46C83.57 28.09 82.87 27.91 82.09 27.91C81.31 27.91 80.62 28.09 80.01 28.46C79.41 28.81 78.95 29.31 78.6 29.96C78.26 30.59 78.09 31.32 78.09 32.15C78.09 32.98 78.26 33.71 78.6 34.36C78.95 35 79.41 35.51 80.01 35.87C80.62 36.23 81.31 36.4 82.09 36.4Z" fill="#000000" fill-opacity="1.000000" fill-rule="evenodd"/>
	<path id="Vector" d="M71.06 36.95C70.19 36.95 69.39 36.75 68.67 36.35C67.96 35.93 67.41 35.36 67.01 34.63C66.61 33.9 66.41 33.07 66.41 32.15C66.41 31.22 66.61 30.4 67.01 29.66C67.41 28.93 67.96 28.37 68.67 27.97C69.39 27.55 70.19 27.35 71.06 27.35C71.95 27.35 72.75 27.55 73.45 27.97C74.16 28.37 74.71 28.93 75.12 29.66C75.52 30.4 75.72 31.22 75.72 32.15C75.72 33.07 75.52 33.9 75.12 34.63C74.71 35.36 74.16 35.93 73.45 36.35C72.75 36.75 71.95 36.95 71.06 36.95ZM71.06 36.4C71.83 36.4 72.52 36.23 73.13 35.87C73.75 35.51 74.23 35 74.59 34.36C74.94 33.71 75.12 32.98 75.12 32.15C75.12 31.32 74.94 30.59 74.59 29.96C74.23 29.31 73.75 28.81 73.13 28.46C72.52 28.09 71.83 27.91 71.06 27.91C70.3 27.91 69.6 28.09 68.98 28.46C68.37 28.81 67.89 29.31 67.54 29.96C67.18 30.59 67.01 31.32 67.01 32.15C67.01 32.98 67.18 33.71 67.54 34.36C67.89 35 68.37 35.51 68.98 35.87C69.6 36.23 70.3 36.4 71.06 36.4Z" fill="#000000" fill-opacity="1.000000" fill-rule="evenodd"/>
	<path id="Vector" d="M61.53 32.35L59.1 32.35L59.1 36.9L58.5 36.9L58.5 27.42L59.1 27.42L59.1 31.82L61.55 31.82L65.3 27.42L65.99 27.42L62.03 32.06L66.28 36.9L65.55 36.9L61.53 32.35Z" fill="#000000" fill-opacity="1.000000" fill-rule="evenodd"/>
	<path id="Vector" d="M85.54 18.64C86.19 18.82 86.69 19.09 87.04 19.47C87.4 19.84 87.57 20.31 87.57 20.87C87.57 21.44 87.38 21.96 86.99 22.41C86.6 22.84 86.06 23.19 85.36 23.45C84.68 23.69 83.91 23.81 83.06 23.81C82.34 23.81 81.64 23.72 80.94 23.54C80.26 23.34 79.65 23.07 79.12 22.72L79.65 21.38C80.11 21.68 80.64 21.91 81.23 22.08C81.83 22.24 82.43 22.32 83.04 22.32C83.87 22.32 84.53 22.18 85.01 21.9C85.51 21.6 85.76 21.21 85.76 20.73C85.76 20.28 85.56 19.93 85.16 19.69C84.77 19.44 84.22 19.32 83.5 19.32L81.73 19.32L81.73 18.06L83.37 18.06C84.03 18.06 84.55 17.94 84.92 17.71C85.3 17.48 85.49 17.17 85.49 16.76C85.49 16.33 85.26 15.98 84.81 15.74C84.38 15.5 83.78 15.38 83.02 15.38C82.06 15.38 81.05 15.63 79.97 16.12L79.5 14.77C80.68 14.18 81.92 13.88 83.21 13.88C83.99 13.88 84.69 13.99 85.31 14.21C85.93 14.43 86.41 14.74 86.77 15.14C87.12 15.54 87.3 16 87.3 16.51C87.3 16.98 87.14 17.41 86.82 17.79C86.51 18.16 86.08 18.45 85.54 18.64Z" fill="#000000" fill-opacity="1.000000" fill-rule="evenodd"/>
	<path id="Vector" d="M74.57 22.26C75.73 22.26 76.66 21.87 77.36 21.09L78.31 22.23C77.89 22.74 77.34 23.13 76.69 23.39C76.04 23.66 75.32 23.8 74.51 23.8C73.49 23.8 72.58 23.59 71.79 23.17C71 22.75 70.39 22.16 69.95 21.4C69.52 20.65 69.31 19.8 69.31 18.85C69.31 17.91 69.52 17.06 69.93 16.31C70.36 15.55 70.93 14.97 71.67 14.56C72.41 14.13 73.24 13.92 74.17 13.92C75.04 13.92 75.84 14.12 76.56 14.52C77.28 14.91 77.85 15.46 78.28 16.18C78.7 16.9 78.92 17.73 78.93 18.66L71.25 20.16C71.49 20.83 71.9 21.35 72.47 21.71C73.05 22.08 73.75 22.26 74.57 22.26ZM74.17 15.4C73.56 15.4 73.01 15.54 72.52 15.82C72.05 16.1 71.68 16.49 71.41 17C71.14 17.5 71.01 18.09 71.01 18.76L71.01 18.94L77.2 17.77C77.04 17.06 76.69 16.49 76.14 16.05C75.59 15.61 74.93 15.4 74.17 15.4Z" fill="#000000" fill-opacity="1.000000" fill-rule="evenodd"/>
	<path id="Vector" d="M64 14.34C64.9 14.34 65.7 14.54 66.41 14.94C67.12 15.34 67.66 15.9 68.05 16.62C68.45 17.32 68.66 18.13 68.66 19.05C68.66 19.98 68.44 20.82 68.02 21.55C67.6 22.27 67.01 22.83 66.25 23.23C65.49 23.63 64.63 23.83 63.65 23.83C62.01 23.83 60.74 23.27 59.84 22.15C58.95 21.02 58.5 19.43 58.5 17.39C58.5 15.4 58.91 13.85 59.73 12.73C60.54 11.6 61.79 10.85 63.47 10.48L67.89 9.5L68.14 11.1L64.07 11.98C62.81 12.26 61.86 12.73 61.24 13.4C60.62 14.07 60.27 15.04 60.18 16.29C60.6 15.67 61.13 15.19 61.79 14.85C62.45 14.51 63.18 14.34 64 14.34ZM63.69 22.37C64.31 22.37 64.86 22.23 65.33 21.95C65.82 21.67 66.2 21.29 66.46 20.8C66.73 20.3 66.87 19.74 66.87 19.1C66.87 18.14 66.57 17.37 65.99 16.78C65.41 16.2 64.64 15.91 63.69 15.91C62.74 15.91 61.97 16.2 61.37 16.78C60.78 17.37 60.49 18.14 60.49 19.1C60.49 19.74 60.63 20.3 60.89 20.8C61.17 21.29 61.56 21.67 62.04 21.95C62.53 22.23 63.08 22.37 63.69 22.37Z" fill="#000000" fill-opacity="1.000000" fill-rule="evenodd"/>
</svg>
